%FSTAX23Y23*%
%MOIN*%
%SFA1B1*%

%IPPOS*%
%AMD73*
4,1,8,0.025600,-0.029000,0.025600,0.029000,0.019200,0.035400,-0.019200,0.035400,-0.025600,0.029000,-0.025600,-0.029000,-0.019200,-0.035400,0.019200,-0.035400,0.025600,-0.029000,0.0*
1,1,0.012835,0.019200,-0.029000*
1,1,0.012835,0.019200,0.029000*
1,1,0.012835,-0.019200,0.029000*
1,1,0.012835,-0.019200,-0.029000*
%
%ADD11R,0.045275X0.057087*%
%ADD14R,0.110236X0.062992*%
%ADD28R,0.049212X0.059055*%
%ADD33R,0.057087X0.045275*%
%ADD34R,0.053150X0.061024*%
%ADD70R,0.037401X0.053150*%
%ADD71R,0.061024X0.053150*%
%ADD72R,0.033465X0.051181*%
G04~CAMADD=73~8~0.0~0.0~708.7~511.8~64.2~0.0~15~0.0~0.0~0.0~0.0~0~0.0~0.0~0.0~0.0~0~0.0~0.0~0.0~270.0~512.0~708.0*
%ADD73D73*%
%ADD74R,0.051181X0.033465*%
%ADD75R,0.059055X0.049212*%
%LNpcb_take2-1-1*%
%LPD*%
G54D11*
X04019Y0799D03*
X0409D03*
X0428D03*
X04209D03*
X0445D03*
X04379D03*
X04645D03*
X04574D03*
X04534Y06405D03*
X04605D03*
X04415D03*
X04344D03*
X0423Y0641D03*
X04159D03*
X0366Y04595D03*
X03589D03*
X02579Y06005D03*
X0265D03*
X02579Y0673D03*
X0265D03*
X02579Y0709D03*
X0265D03*
X02579Y07465D03*
X0265D03*
Y0823D03*
X02579D03*
X05414Y0346D03*
X05485D03*
X0567D03*
X05599D03*
X04734Y0715D03*
X04805D03*
X0463D03*
X04559D03*
X04379D03*
X0445D03*
X04275Y07145D03*
X04204D03*
X04024D03*
X04095D03*
X0265Y0789D03*
X02579D03*
Y06365D03*
X0265D03*
X04419Y05685D03*
X0449D03*
G54D14*
X0506Y07291D03*
Y07408D03*
G54D28*
X06263Y0414D03*
X06346D03*
X06258Y04375D03*
X06341D03*
X05716Y04885D03*
X05633D03*
X06248Y04655D03*
X06331D03*
X06091Y04375D03*
X06008D03*
X05983Y04885D03*
X06066D03*
X05853Y05138D03*
X05936D03*
X05513Y0414D03*
X05596D03*
X05576Y04375D03*
X05493D03*
X05513Y05138D03*
X05596D03*
X05248Y04375D03*
X05331D03*
X05113Y04655D03*
X05196D03*
X05118Y04885D03*
X05201D03*
X02893Y04545D03*
X02976D03*
X02893Y0476D03*
X02976D03*
X02971Y0498D03*
X02888D03*
X03116Y07805D03*
X03033D03*
X03116Y0817D03*
X03033D03*
Y0592D03*
X03116D03*
X03033Y0629D03*
X03116D03*
Y0665D03*
X03033D03*
Y07005D03*
X03116D03*
Y07365D03*
X03033D03*
X02263Y05985D03*
X02346D03*
X02263Y0635D03*
X02346D03*
X02263Y0671D03*
X02346D03*
X02263Y07435D03*
X02346D03*
X02263Y0708D03*
X02346D03*
X02263Y07865D03*
X02346D03*
X03498Y0803D03*
X03581D03*
X02263Y0822D03*
X02346D03*
G54D33*
X03945Y0834D03*
Y08269D03*
X04815Y07634D03*
Y07705D03*
Y07915D03*
Y07844D03*
Y07525D03*
Y07454D03*
Y07279D03*
Y0735D03*
X039Y0722D03*
Y07149D03*
Y07334D03*
Y07405D03*
Y07595D03*
Y07524D03*
Y0778D03*
Y07709D03*
X03895Y07955D03*
Y07884D03*
X0542Y03245D03*
Y03174D03*
X0468Y0592D03*
Y05849D03*
X0403Y06254D03*
Y06325D03*
G54D34*
X0544Y04653D03*
X05519D03*
X06D03*
X06079D03*
X05444Y04886D03*
X05365D03*
X0526Y04138D03*
X05339D03*
X05209Y0514D03*
X0513D03*
X03429Y04935D03*
X0335D03*
X04074Y0567D03*
X03995D03*
X0422Y05675D03*
X04299D03*
X04704Y0568D03*
X04625D03*
G54D70*
X06253Y04867D03*
X06316D03*
X06018Y04157D03*
X06081D03*
X05291Y05755D03*
X05228D03*
X05158Y06175D03*
X05221D03*
X05158Y0656D03*
X05221D03*
X05173Y0547D03*
X05236D03*
G54D71*
X05065Y04334D03*
Y04255D03*
X0469Y06225D03*
Y06304D03*
X04685Y06025D03*
Y06104D03*
X04035Y05924D03*
Y05845D03*
Y06124D03*
Y06045D03*
G54D72*
X04943Y0563D03*
X04876D03*
X03596Y0441D03*
X03663D03*
X02653Y07715D03*
X02586D03*
X02653Y0807D03*
X02586D03*
Y073D03*
X02653D03*
X02586Y06925D03*
X02653D03*
X02586Y06565D03*
X02653D03*
X02586Y0619D03*
X02653D03*
X02586Y05825D03*
X02653D03*
X05011Y0354D03*
X05078D03*
X05273D03*
X05206D03*
G54D73*
X04982Y05875D03*
X04867D03*
G54D74*
X0414Y08271D03*
Y08338D03*
X0415Y08576D03*
Y08643D03*
G54D75*
X04775Y08606D03*
Y08523D03*
X04585Y08606D03*
Y08523D03*
M02*