%FSTAX23Y23*%
%MOIN*%
%SFA1B1*%

%IPPOS*%
%AMD53*
4,1,8,0.018700,0.041300,-0.018700,0.041300,-0.037400,0.022600,-0.037400,-0.022600,-0.018700,-0.041300,0.018700,-0.041300,0.037400,-0.022600,0.037400,0.022600,0.018700,0.041300,0.0*
1,1,0.037402,0.018700,0.022600*
1,1,0.037402,-0.018700,0.022600*
1,1,0.037402,-0.018700,-0.022600*
1,1,0.037402,0.018700,-0.022600*
%
%AMD73*
4,1,8,0.025600,-0.029000,0.025600,0.029000,0.019200,0.035400,-0.019200,0.035400,-0.025600,0.029000,-0.025600,-0.029000,-0.019200,-0.035400,0.019200,-0.035400,0.025600,-0.029000,0.0*
1,1,0.012835,0.019200,-0.029000*
1,1,0.012835,0.019200,0.029000*
1,1,0.012835,-0.019200,0.029000*
1,1,0.012835,-0.019200,-0.029000*
%
%ADD11R,0.045275X0.057087*%
%ADD14R,0.110236X0.062992*%
%ADD20R,0.059055X0.059055*%
%ADD28R,0.049212X0.059055*%
%ADD33R,0.057087X0.045275*%
%ADD34R,0.053150X0.061024*%
%ADD38C,0.003937*%
%ADD40C,0.031496*%
%ADD42C,0.010000*%
%ADD50C,0.059055*%
%ADD51R,0.059055X0.059055*%
%ADD52O,0.037401X0.033465*%
G04~CAMADD=53~8~0.0~0.0~748.0~826.8~187.0~0.0~15~0.0~0.0~0.0~0.0~0~0.0~0.0~0.0~0.0~0~0.0~0.0~0.0~0.0~748.0~826.8*
%ADD53D53*%
%ADD54O,0.160000X0.060000*%
%ADD55O,0.060000X0.160000*%
%ADD56O,0.170000X0.060000*%
%ADD57C,0.015748*%
%ADD70R,0.037401X0.053150*%
%ADD71R,0.061024X0.053150*%
%ADD72R,0.033465X0.051181*%
G04~CAMADD=73~8~0.0~0.0~708.7~511.8~64.2~0.0~15~0.0~0.0~0.0~0.0~0~0.0~0.0~0.0~0.0~0~0.0~0.0~0.0~270.0~512.0~708.0*
%ADD73D73*%
%ADD74R,0.051181X0.033465*%
%ADD75R,0.059055X0.049212*%
%ADD76C,0.016732*%
%ADD77C,0.022638*%
%LNpcb_take2-1-1*%
%LPD*%
G54D11*
X04019Y0799D03*
X0409D03*
X0428D03*
X04209D03*
X0445D03*
X04379D03*
X04645D03*
X04574D03*
X04534Y06405D03*
X04605D03*
X04415D03*
X04344D03*
X0423Y0641D03*
X04159D03*
X0366Y04595D03*
X03589D03*
X02579Y06005D03*
X0265D03*
X02579Y0673D03*
X0265D03*
X02579Y0709D03*
X0265D03*
X02579Y07465D03*
X0265D03*
Y0823D03*
X02579D03*
X05414Y0346D03*
X05485D03*
X0567D03*
X05599D03*
X04734Y0715D03*
X04805D03*
X0463D03*
X04559D03*
X04379D03*
X0445D03*
X04275Y07145D03*
X04204D03*
X04024D03*
X04095D03*
X0265Y0789D03*
X02579D03*
Y06365D03*
X0265D03*
X04419Y05685D03*
X0449D03*
G54D14*
X0506Y07291D03*
Y07408D03*
G54D20*
X0596Y0562D03*
X0624Y06935D03*
X04967Y0315D03*
X05116D03*
X05265D03*
G54D28*
X06263Y0414D03*
X06346D03*
X06258Y04375D03*
X06341D03*
X05716Y04885D03*
X05633D03*
X06248Y04655D03*
X06331D03*
X06091Y04375D03*
X06008D03*
X05983Y04885D03*
X06066D03*
X05853Y05138D03*
X05936D03*
X05513Y0414D03*
X05596D03*
X05576Y04375D03*
X05493D03*
X05513Y05138D03*
X05596D03*
X05248Y04375D03*
X05331D03*
X05113Y04655D03*
X05196D03*
X05118Y04885D03*
X05201D03*
X02893Y04545D03*
X02976D03*
X02893Y0476D03*
X02976D03*
X02971Y0498D03*
X02888D03*
X03116Y07805D03*
X03033D03*
X03116Y0817D03*
X03033D03*
Y0592D03*
X03116D03*
X03033Y0629D03*
X03116D03*
Y0665D03*
X03033D03*
Y07005D03*
X03116D03*
Y07365D03*
X03033D03*
X02263Y05985D03*
X02346D03*
X02263Y0635D03*
X02346D03*
X02263Y0671D03*
X02346D03*
X02263Y07435D03*
X02346D03*
X02263Y0708D03*
X02346D03*
X02263Y07865D03*
X02346D03*
X03498Y0803D03*
X03581D03*
X02263Y0822D03*
X02346D03*
G54D33*
X03945Y0834D03*
Y08269D03*
X04815Y07634D03*
Y07705D03*
Y07915D03*
Y07844D03*
Y07525D03*
Y07454D03*
Y07279D03*
Y0735D03*
X039Y0722D03*
Y07149D03*
Y07334D03*
Y07405D03*
Y07595D03*
Y07524D03*
Y0778D03*
Y07709D03*
X03895Y07955D03*
Y07884D03*
X0542Y03245D03*
Y03174D03*
X0468Y0592D03*
Y05849D03*
X0403Y06254D03*
Y06325D03*
G54D34*
X0544Y04653D03*
X05519D03*
X06D03*
X06079D03*
X05444Y04886D03*
X05365D03*
X0526Y04138D03*
X05339D03*
X05209Y0514D03*
X0513D03*
X03429Y04935D03*
X0335D03*
X04074Y0567D03*
X03995D03*
X0422Y05675D03*
X04299D03*
X04704Y0568D03*
X04625D03*
G54D38*
X04327Y06075D02*
Y06076D01*
Y05917D02*
Y06075D01*
X0428Y06122D02*
X04327Y06075D01*
Y0591D02*
Y05917D01*
X04187Y05735D02*
X0426D01*
X0417D02*
X04187D01*
X04295Y05842*
X04147Y05695D02*
X04187Y05735D01*
X04147Y05695D02*
Y05712D01*
Y05365D02*
Y05365D01*
X0414Y04847D02*
X04151D01*
X0409D02*
X0414D01*
X04074Y04914D02*
Y0529D01*
Y04864D02*
Y04914D01*
X0414Y04847D02*
X04151Y04837D01*
X04074Y04914D02*
X0414Y04847D01*
X04073Y04915D02*
X04074Y04914D01*
X02537Y07285D02*
X02586D01*
X02538Y0692D02*
X02586D01*
Y06852D02*
Y0692D01*
X02538Y06555D02*
X02586D01*
Y06565*
Y0649D02*
Y06555D01*
X02653Y0795D02*
Y08032D01*
X06081Y04163D02*
X06156D01*
X05716Y04799D02*
Y04843D01*
X05936Y04951D02*
Y05034D01*
X04159Y0847D02*
Y08576D01*
X02893Y06974D02*
X03033D01*
X04075Y06005D02*
Y06009D01*
X041Y06034*
Y06258*
X0409Y06268D02*
X041Y06258D01*
X0409Y06268D02*
Y0635D01*
X03989Y06452D02*
X0409Y0635D01*
X03989Y06452D02*
Y07325D01*
X04262Y07599*
Y07857*
X04235Y05947D02*
X04249Y05932D01*
X04235Y05947D02*
Y06D01*
X04224Y06012D02*
X04235Y06D01*
X0417Y06012D02*
X04224D01*
X0415Y0603D02*
X0417Y06012D01*
X0415Y0603D02*
Y06242D01*
X0411Y06284D02*
X0415Y06242D01*
X0411Y06284D02*
Y06927D01*
X0424Y07057*
Y0718*
X04322Y07264*
Y0742*
X0437Y07467*
X04392Y05979D02*
X04407Y05964D01*
X04392Y05979D02*
Y06224D01*
X044Y06232*
X0443*
X045Y063*
X0447Y0583D02*
Y05933D01*
X04438Y05964D02*
X0447Y05933D01*
X04574Y04539D02*
Y05955D01*
X04607Y0582D02*
Y05975D01*
Y0582D02*
X04665Y05764D01*
Y0547D02*
Y05764D01*
X04605Y05412D02*
X04665Y0547D01*
X04605Y04544D02*
Y05412D01*
X0458Y04517D02*
X04605Y04544D01*
X04497Y04517D02*
X0458D01*
X04533Y06153D02*
X04621Y06065D01*
Y06D02*
Y06065D01*
Y06D02*
X04638Y05982D01*
X04704*
X0472Y05965*
Y05777D02*
Y05965D01*
Y05777D02*
X04742Y05755D01*
Y05252D02*
Y05755D01*
X04735Y05244D02*
X04742Y05252D01*
X04735Y04612D02*
Y05244D01*
X04624Y04502D02*
X04735Y04612D01*
X0445Y04502D02*
X04624D01*
X04434Y04517D02*
X0445Y04502D01*
X0419Y04566D02*
Y04632D01*
X04525Y04967*
Y05822*
X04506Y05842D02*
X04525Y05822D01*
X04119Y04537D02*
X04192D01*
X04207Y04552*
Y04625*
X0454Y04957*
Y05837*
X04485Y05891D02*
X0454Y05837D01*
X04485Y05891D02*
Y05895D01*
X04455Y06167D02*
X0447Y06153D01*
X04455Y06167D02*
Y0623D01*
X0457Y06345*
Y06995*
X04524Y07042D02*
X0457Y06995D01*
X04524Y07042D02*
Y07232D01*
X04575Y07285*
Y0738*
X04637Y07442*
Y07665*
X0462Y07682D02*
X04637Y07665D01*
X04589Y07682D02*
X0462D01*
X04074Y04864D02*
X0409Y04847D01*
X04074Y0529D02*
X04147Y05365D01*
Y05712D02*
X0417Y05735D01*
X0426D02*
X0433Y05805D01*
Y05905*
X04327Y0591D02*
X0433Y05905D01*
X04281Y06122D02*
X04327Y06076D01*
X04295Y05885D02*
X04327Y05917D01*
X04295Y05842D02*
Y05885D01*
X04147Y05365D02*
Y05695D01*
X04073Y05291D02*
X04147Y05365D01*
X04073Y04915D02*
Y05291D01*
X04415Y0732D02*
X04434Y0734D01*
X04415Y07107D02*
Y0732D01*
X04292Y06985D02*
X04415Y07107D01*
X04292Y06362D02*
Y06985D01*
X04204Y06274D02*
X04292Y06362D01*
X04204Y06072D02*
Y06274D01*
Y06072D02*
X04217Y06058D01*
X04124Y0633D02*
X04162Y0629D01*
X04124Y0633D02*
Y0689D01*
X04344Y0711*
Y0735*
X0438Y07387*
X04504*
X04515Y07399*
Y0749*
X04556Y07532*
Y07615*
X0456Y07619*
X04088Y05146D02*
X04168Y05227D01*
Y05382*
X04359Y05572*
Y06192*
X0435Y062D02*
X04359Y06192D01*
X04297Y062D02*
X0435D01*
X04281Y06217D02*
X04297Y062D01*
X03033Y0731D02*
X0343Y06914D01*
X03033Y0731D02*
Y07365D01*
X03116Y06889D02*
Y07005D01*
Y0598D02*
Y0629D01*
X02586Y06169D02*
X02687Y06068D01*
X02586Y06169D02*
Y0619D01*
X0265Y05949D02*
Y06005D01*
X02586Y05882D02*
X0265Y05949D01*
X02586Y05825D02*
Y05882D01*
X02653Y07677D02*
Y07715D01*
X0544Y04611D02*
X0544Y0461D01*
X0544Y04611D02*
Y04653D01*
X02215Y0822D02*
X02263D01*
X02212Y07865D02*
X02263D01*
X02212Y07435D02*
X02263D01*
X02202Y0671D02*
X02263D01*
X0384Y08269D02*
X03945D01*
X0384Y08186D02*
Y08269D01*
X03783Y0813D02*
X0384Y08186D01*
X04647Y0592D02*
X0468D01*
X0464Y05927D02*
X04647Y0592D01*
X05576Y04375D02*
X05747D01*
X05716Y04843D02*
Y04885D01*
X05444Y04845D02*
X05444Y04845D01*
Y04886*
X05365Y04845D02*
X05365Y04845D01*
X05365Y04845D02*
Y04886D01*
X05633Y04837D02*
Y04885D01*
Y04837D02*
X05719Y04752D01*
X05737*
X05936Y04951*
X0412Y07311D02*
X0429Y07482D01*
Y07749*
X04322Y0778*
Y08316*
X04413Y08407*
X02893Y04728D02*
Y0476D01*
Y04728D02*
X0294Y04681D01*
X03116Y06559D02*
Y0665D01*
X03052Y04545D02*
X0318Y04673D01*
X02976Y04545D02*
X03052D01*
X04217Y05932D02*
X04232Y05919D01*
Y05892D02*
Y05919D01*
X04206Y05867D02*
X04232Y05892D01*
X0419Y05867D02*
X04206D01*
X04088Y05765D02*
X0419Y05867D01*
X03595Y05765D02*
X04088D01*
X02559Y04729D02*
X03595Y05765D01*
X02559Y04585D02*
Y04729D01*
X02521Y04714D02*
X03614Y05807D01*
X04098*
X04193Y05902*
X04217*
X02437Y04497D02*
X02462Y04522D01*
Y04674*
X03752Y05965*
X04218*
X04202Y0598D02*
X04217Y05995D01*
X03712Y0598D02*
X04202D01*
X0244Y04709D02*
X03712Y0598D01*
X0244Y04672D02*
Y04709D01*
X05209Y0514D02*
Y05229D01*
X04847Y05592D02*
X05209Y05229D01*
X04847Y05592D02*
Y05682D01*
X04755Y05774D02*
X04847Y05682D01*
X03033Y06499D02*
Y0665D01*
X04212Y05825D02*
X04215D01*
X04281Y0589*
Y05901*
X04299Y05919*
Y05952*
X0431Y05965*
X04591Y07748D02*
X04663D01*
X04684Y07727*
Y06375D02*
Y07727D01*
X04519Y0621D02*
X04684Y06375D01*
X04519Y0606D02*
Y0621D01*
Y0606D02*
X0455Y06027D01*
X05173Y0547D02*
Y05563D01*
X04465Y0479D02*
X04554Y04877D01*
Y05846*
X04519Y0588D02*
X04554Y05846D01*
X04519Y0588D02*
Y05895D01*
X04487Y05927D02*
X04519Y05895D01*
X04487Y05927D02*
Y06107D01*
X04501Y06122*
X04639Y05853D02*
Y05865D01*
Y05853D02*
X04644Y05849D01*
X0468*
X04867Y05782D02*
Y05875D01*
X04487Y0617D02*
X04502Y06185D01*
X04487Y06147D02*
Y0617D01*
X0448Y06139D02*
X04487Y06147D01*
X04432Y06139D02*
X0448D01*
X04424Y0613D02*
X04432Y06139D01*
X04424Y05927D02*
Y0613D01*
X04401Y05904D02*
X04424Y05927D01*
X04401Y05832D02*
Y05904D01*
Y05832D02*
X04455Y05778D01*
Y0562D02*
Y05778D01*
X0442Y05585D02*
X04455Y0562D01*
X0442Y04925D02*
Y05585D01*
X04245Y0475D02*
X0442Y04925D01*
X05221Y06105D02*
Y06175D01*
X05065Y04334D02*
Y04829D01*
X0425Y06185D02*
X04257D01*
X04267Y06175*
Y05895D02*
Y06175D01*
X04224Y05853D02*
X04267Y05895D01*
X04207Y05853D02*
X04224D01*
X04112Y05758D02*
X04207Y05853D01*
X04112Y05632D02*
Y05758D01*
X03994Y05512D02*
X04112Y05632D01*
X03994Y04962D02*
Y05512D01*
X04187Y06027D02*
X04202Y06044D01*
X04224*
X04234Y06054*
Y06255*
X04309Y0633*
Y06937*
X04505Y07134*
Y07292*
X04545Y07332*
Y07501*
X0457Y07526*
Y07597*
X04622Y07649*
X0307Y04697D02*
X03127Y04754D01*
Y05072*
X0342Y05365*
X05221Y06175D02*
Y06207D01*
X05237Y06224*
X05291*
X05221Y06532D02*
Y0656D01*
Y06532D02*
X05232Y06522D01*
X03033Y08129D02*
Y0817D01*
Y08129D02*
X03305Y07857D01*
X03116Y05879D02*
Y0592D01*
X03115Y05879D02*
X03116Y05879D01*
X0265Y05949D02*
X02714Y06012D01*
X0403Y06254D02*
X04078D01*
X04119Y0509D02*
X04379Y0535D01*
Y06272*
X04393Y06287*
X04437*
X0447Y06185D02*
X0464Y06355D01*
Y06837*
X04595Y06884D02*
X0464Y06837D01*
X04595Y06884D02*
Y07211D01*
X04658Y07275*
Y07689*
X04648Y077D02*
X04658Y07689D01*
X04519Y077D02*
X04648D01*
X04511Y07692D02*
X04519Y077D01*
X04511Y07574D02*
Y07692D01*
X04465Y07529D02*
X04511Y07574D01*
X04501Y06027D02*
X04574Y05955D01*
X04069Y05924D02*
X04077Y05916D01*
X04035Y05924D02*
X04069D01*
X04423Y06364D02*
X04431D01*
X04415Y06372D02*
X04423Y06364D01*
X04415Y06372D02*
Y06405D01*
X04035Y06124D02*
X04077D01*
X04214Y06369D02*
X04222D01*
X0423Y06377*
Y0641*
X0415Y08576D02*
X04159D01*
Y0847D02*
X04175Y08452D01*
X0448*
X04497Y08435*
Y07807D02*
Y08435D01*
X04449Y0776D02*
X04497Y07807D01*
X04449Y07424D02*
Y0776D01*
Y07424D02*
X04465Y07407D01*
X02586Y07285D02*
Y073D01*
X04228Y05713D02*
Y05717D01*
X0422Y05705D02*
X04228Y05713D01*
X0422Y05675D02*
Y05705D01*
X04635Y0719D02*
X04638D01*
X0463Y07184D02*
X04635Y0719D01*
X0463Y0715D02*
Y07184D01*
X04379Y0715D02*
Y07206D01*
X0429Y07949D02*
X04296D01*
X0428Y0796D02*
X0429Y07949D01*
X0428Y0796D02*
Y0799D01*
X04775Y08442D02*
Y08523D01*
X04449Y07949D02*
X0445Y0795D01*
Y0799*
X05983Y04713D02*
Y04885D01*
X05962Y04692D02*
X05983Y04713D01*
X05962Y03347D02*
Y04692D01*
X02976Y04622D02*
Y0476D01*
X05853Y0497D02*
Y05138D01*
X05785Y04902D02*
X05853Y0497D01*
X05576Y04334D02*
Y04375D01*
X05575Y04334D02*
X05576Y04334D01*
X05381Y04138D02*
X05419Y04175D01*
X05339Y04138D02*
X05381D01*
X05535Y04057D02*
X05747D01*
X05513Y04079D02*
X05535Y04057D01*
X05513Y04079D02*
Y0414D01*
X03429Y04846D02*
Y04935D01*
X04413Y08523D02*
X04585D01*
X0526Y0408D02*
Y04138D01*
Y0408D02*
X05276Y04064D01*
X05387*
X05464Y0414*
X05513*
X03472Y04595D02*
X03589D01*
X03449Y04571D02*
X03472Y04595D01*
X05291Y05674D02*
Y05755D01*
Y05674D02*
X05315Y0565D01*
X0288Y04938D02*
X02888Y04946D01*
Y0498*
X02971D02*
X03009D01*
X0618Y0414D02*
X06263D01*
X06156Y04163D02*
X0618Y0414D01*
X06081Y04157D02*
Y04163D01*
X06071Y0461D02*
X06079Y04618D01*
Y04653*
X0605Y0364D02*
Y04207D01*
X06127Y04285*
Y04639*
X06144Y04655*
X06248*
X06316Y04828D02*
Y04867D01*
X06248Y04761D02*
X06316Y04828D01*
X06248Y04655D02*
Y04761D01*
X06091Y04375D02*
Y0452D01*
X06Y0461D02*
X06091Y0452D01*
X06Y0461D02*
Y04653D01*
X02074Y07097D02*
X02091Y0708D01*
X02263*
X02074Y06367D02*
X02091Y0635D01*
X02263*
X02074Y06002D02*
X02091Y05985D01*
X02263*
X02653Y07715D02*
Y07776D01*
X02579Y0785D02*
X02653Y07776D01*
X02579Y0785D02*
Y0789D01*
X05596Y0414D02*
Y04231D01*
X05493Y04334D02*
X05596Y04231D01*
X05493Y04334D02*
Y04375D01*
X06331Y04614D02*
Y04655D01*
X06297Y0458D02*
X06331Y04614D01*
X03498Y0803D02*
Y08307D01*
X02653Y0807D02*
Y08116D01*
X02579Y0819D02*
X02653Y08116D01*
X02579Y0819D02*
Y0823D01*
X05716Y04885D02*
Y04977D01*
X05596Y05097D02*
X05716Y04977D01*
X05596Y05097D02*
Y05138D01*
X02653Y08032D02*
Y0807D01*
X02893Y04513D02*
Y04545D01*
Y04513D02*
X03213Y04193D01*
X03033Y06258D02*
Y0629D01*
X03024Y06249D02*
X03033Y06258D01*
X02888Y06249D02*
X03024D01*
X03033Y05887D02*
Y0592D01*
X03024Y05879D02*
X03033Y05887D01*
X02888Y05879D02*
X03024D01*
X02586Y0692D02*
Y06925D01*
X06346Y04099D02*
X06445Y04D01*
X06346Y04099D02*
Y0414D01*
X03033Y06974D02*
Y07005D01*
Y07805D02*
X03074D01*
X03116Y07365D02*
Y07407D01*
X03107Y07417D02*
X03116Y07407D01*
X02904Y07417D02*
X03107D01*
X05359Y04653D02*
X0544D01*
X0526Y04554D02*
X05359Y04653D01*
X05135Y04554D02*
X0526D01*
X05113Y04575D02*
X05135Y04554D01*
X05113Y04575D02*
Y04655D01*
X03116Y07764D02*
Y07805D01*
X03006Y07654D02*
X03116Y07764D01*
X06091Y04333D02*
Y04375D01*
X05493D02*
X05539D01*
X0307Y0817D02*
X03116D01*
X02538Y0619D02*
X02586D01*
X02537Y05825D02*
X02586D01*
X0265Y07413D02*
Y07465D01*
X02586Y0735D02*
X0265Y07413D01*
X02586Y073D02*
Y0735D01*
X0265Y07038D02*
Y0709D01*
X02586Y06975D02*
X0265Y07038D01*
X02586Y06925D02*
Y06975D01*
X0265Y06678D02*
Y0673D01*
X02586Y06615D02*
X0265Y06678D01*
X02586Y06565D02*
Y06615D01*
X0265Y06308D02*
Y06365D01*
X02586Y06245D02*
X0265Y06308D01*
X02586Y0619D02*
Y06245D01*
X05176Y04375D02*
X05248D01*
X05135Y04334D02*
X05176Y04375D01*
X05065Y04334D02*
X05135D01*
X05118Y04772D02*
Y04885D01*
X05113Y04767D02*
X05118Y04772D01*
X05113Y04655D02*
Y04767D01*
X05361Y05138D02*
X05513D01*
X0536Y0514D02*
X05361Y05138D01*
X05209Y0514D02*
X0536D01*
X03589Y04505D02*
Y04595D01*
Y04505D02*
X03596Y04499D01*
Y0441D02*
Y04499D01*
X04042Y08271D02*
X0414D01*
X0404Y08269D02*
X04042Y08271D01*
X03945Y08269D02*
X0404D01*
X05331Y04291D02*
Y04375D01*
X0526Y0422D02*
X05331Y04291D01*
X0526Y04138D02*
Y0422D01*
X06008Y0427D02*
Y04375D01*
Y0427D02*
X06018Y0426D01*
Y04157D02*
Y0426D01*
X06341Y04295D02*
Y04375D01*
X06263Y04217D02*
X06341Y04295D01*
X06263Y0414D02*
Y04217D01*
X06168Y04867D02*
X06253D01*
X0615Y04885D02*
X06168Y04867D01*
X06066Y04885D02*
X0615D01*
X05936Y05034D02*
Y05138D01*
Y05034D02*
X05983Y04987D01*
Y04885D02*
Y04987D01*
X04982Y05771D02*
Y05875D01*
X04943Y05732D02*
X04982Y05771D01*
X04943Y0563D02*
Y05732D01*
X0366Y04554D02*
Y04595D01*
X0335Y04892D02*
Y04935D01*
X02346Y05943D02*
Y05985D01*
X02579Y05964D02*
Y06005D01*
X05065Y04255D02*
X05107D01*
X02346Y06308D02*
Y0635D01*
X04074Y0567D02*
Y05712D01*
X02579Y06324D02*
Y06365D01*
X05379Y03245D02*
X0542D01*
X05485Y03419D02*
Y0346D01*
X04419Y05685D02*
Y05725D01*
X05599Y03419D02*
Y0346D01*
X05201Y04843D02*
Y04885D01*
X02346Y06668D02*
Y0671D01*
X02579Y06689D02*
Y0673D01*
X0513Y05097D02*
Y0514D01*
X04704Y0568D02*
Y05722D01*
X05519Y0461D02*
Y04653D01*
X04642Y06025D02*
X04685D01*
X05236Y0547D02*
Y05508D01*
X02346Y07038D02*
Y0708D01*
X02579Y07049D02*
Y0709D01*
X04647Y06225D02*
X0469D01*
X05228Y05716D02*
Y05755D01*
X04534Y06364D02*
Y06405D01*
X02346Y07393D02*
Y07435D01*
X06258Y04333D02*
Y04375D01*
X05158Y06136D02*
Y06175D01*
X02579Y07424D02*
Y07465D01*
X04024Y07145D02*
Y07185D01*
X039Y0722D02*
X0394D01*
X04275Y07145D02*
Y07185D01*
X039Y07334D02*
X0394D01*
X05158Y06521D02*
Y0656D01*
X02346Y07823D02*
Y07865D01*
X0265Y07849D02*
Y0789D01*
X04734Y0715D02*
Y0719D01*
X039Y07595D02*
X0394D01*
X04815Y07279D02*
X04855D01*
X039Y0778D02*
X0394D01*
X02346Y08178D02*
Y0822D01*
X0265Y08189D02*
Y0823D01*
X03581Y0803D02*
Y08071D01*
X0506Y07291D02*
X05126D01*
X03895Y07955D02*
X03935D01*
X04815Y07525D02*
X04855D01*
X04019Y07949D02*
Y0799D01*
X04815Y07634D02*
X04855D01*
X04645Y07949D02*
Y0799D01*
X04815Y07915D02*
X04855D01*
X03945Y0834D02*
X03985D01*
G54D40*
X05116Y0335D02*
X05238Y03472D01*
X0506Y03094D02*
X05116Y0315D01*
X04927Y03094D02*
X0506D01*
X04912Y0311D02*
X04927Y03094D01*
X04912Y0311D02*
Y03455D01*
X04927Y03472*
X05105*
X05147Y03515*
X05206Y03594D02*
X0524Y03627D01*
X05011Y03594D02*
X05045Y03627D01*
X05011Y03647D02*
X05036Y03672D01*
X05375D02*
X05534Y03515D01*
X05036Y03672D02*
X05375D01*
X05534Y03407D02*
Y03515D01*
X05517Y0339D02*
X05534Y03407D01*
X05305Y0339D02*
X05517D01*
X05265Y0335D02*
X05305Y0339D01*
G54D42*
X04299Y05675D02*
Y05733D01*
X04035Y05845D02*
X04077D01*
X04069Y06045D02*
X04077Y06037D01*
X04035Y06045D02*
X04069D01*
X0445Y0715D02*
Y07198D01*
X04344Y06364D02*
Y06405D01*
X03995Y0567D02*
Y0572D01*
X04291Y05741D02*
X04299Y05733D01*
X04647Y06299D02*
X04652Y06304D01*
X0469*
X04062Y06325D02*
X0407Y06333D01*
X0403Y06325D02*
X04062D01*
X04605Y06356D02*
Y06405D01*
X03939Y07524D02*
X0394Y07525D01*
X039Y07524D02*
X03939D01*
X0567Y03419D02*
Y0346D01*
X03663Y04372D02*
Y0441D01*
X02653Y05787D02*
Y05825D01*
X05078Y0354D02*
Y03577D01*
X02653Y06152D02*
Y0619D01*
X05196Y04613D02*
Y04655D01*
X02653Y06527D02*
Y06565D01*
X0449Y05685D02*
Y05725D01*
X04625Y0568D02*
Y05722D01*
X04876Y05592D02*
Y0563D01*
X02653Y06887D02*
Y06925D01*
X04159Y06369D02*
Y0641D01*
X04642Y06104D02*
X04685D01*
X02653Y07262D02*
Y073D01*
X039Y07149D02*
X0394D01*
X04095Y07145D02*
Y07185D01*
X04204Y07145D02*
Y07185D01*
X02586Y07677D02*
Y07715D01*
X039Y07405D02*
X0394D01*
X04559Y0715D02*
Y0719D01*
X04805Y0715D02*
Y0719D01*
X039Y07709D02*
X0394D01*
X02586Y08032D02*
Y0807D01*
X04815Y0735D02*
X04855D01*
X03895Y07884D02*
X03935D01*
X04815Y07454D02*
X04855D01*
X0506Y07408D02*
X05126D01*
X0409Y07949D02*
Y0799D01*
X04209Y07949D02*
Y0799D01*
X04815Y07705D02*
X04855D01*
X04379Y07949D02*
Y0799D01*
X04815Y07844D02*
X04855D01*
X04574Y07949D02*
Y0799D01*
X0414Y08338D02*
X04177D01*
X0415Y08643D02*
X04187D01*
X04543Y08606D02*
X04585D01*
X04733D02*
X04775D01*
X0542Y03174D02*
X05606D01*
X05607Y03175*
X0536Y0319D02*
Y03295D01*
Y0319D02*
X05375Y03174D01*
X0542*
G54D50*
X0312Y03805D03*
X0322D03*
X0332D03*
X0586Y0602D03*
X0596D03*
X0586Y0592D03*
X0596D03*
X0586Y0582D03*
X0596D03*
X0586Y0572D03*
X0596D03*
X0586Y0562D03*
X0634Y06935D03*
X0624Y06835D03*
X0634D03*
X0624Y06735D03*
X0634D03*
X0624Y06635D03*
X0634D03*
X0624Y06535D03*
X0634D03*
X0624Y06435D03*
X0634D03*
X0624Y06335D03*
X0634D03*
X0624Y06235D03*
X0634D03*
X0624Y06135D03*
X0634D03*
X0624Y06035D03*
X0634D03*
X05655Y06875D03*
X05755D03*
X027Y0868D03*
Y0858D03*
X026Y0868D03*
Y0858D03*
X025Y0868D03*
Y0858D03*
X024Y0868D03*
Y0858D03*
X023Y0868D03*
Y0858D03*
X022Y0868D03*
X04967Y0325D03*
Y0335D03*
X05116Y0325D03*
Y0335D03*
X0222Y03895D03*
X0212D03*
X05265Y0325D03*
Y0335D03*
X03075Y0868D03*
X03175Y0858D03*
Y0868D03*
X03275Y0858D03*
Y0868D03*
X03375Y0858D03*
Y0868D03*
X03475Y0858D03*
Y0868D03*
X03575Y0858D03*
Y0868D03*
X03675Y0858D03*
Y0868D03*
X0342Y05365D03*
G54D51*
X05555Y06875D03*
X04985Y03835D03*
X05285D03*
X022Y0858D03*
X04575Y03485D03*
X04235D03*
X04575Y03175D03*
X04235D03*
X0232Y03895D03*
X03075Y0858D03*
X0332Y05365D03*
G54D52*
X02215Y05289D03*
Y05465D03*
G54D53*
X02089Y05521D03*
Y05233D03*
G54D54*
X02255Y0336D03*
G54D55*
X02451Y03482D03*
G54D56*
X02255Y03604D03*
G54D57*
X04452Y05842D03*
X04187Y05932D03*
X05299Y06476D03*
X04276Y07812D03*
X0443Y06255D03*
X04187Y05995D03*
X04075Y06005D03*
X04262Y07857D03*
X0437Y07467D03*
X04557Y07682D03*
X04249Y05932D03*
X04465Y05012D03*
X04497Y0497D03*
X04591Y0778D03*
X045Y063D03*
X0447Y0583D03*
X04438Y05964D03*
X04497Y07685D03*
X04695Y05605D03*
X04574Y04539D03*
X04294Y07269D03*
X04495Y07652D03*
X0447Y06122D03*
X04634Y07733D03*
X04607Y05975D03*
X04497Y04517D03*
X0443Y07622D03*
X04533Y06153D03*
X04434Y04517D03*
X0419Y04566D03*
X04506Y05842D03*
X0447Y06185D03*
X04119Y04537D03*
X04485Y05895D03*
X0447Y06153D03*
X04589Y07682D03*
X04502Y06154D03*
X04452Y06494D03*
X04151Y04847D03*
X0428Y06122D03*
X04463Y07622D03*
X04281Y06122D03*
X04151Y04837D03*
X04187Y06059D03*
X04137Y0725D03*
X04497Y07622D03*
X0453Y07624D03*
X04434Y0734D03*
X04217Y06058D03*
X04249Y06059D03*
X04162Y0629D03*
X0456Y07619D03*
X04464Y07588D03*
X04219Y06027D03*
X04088Y05146D03*
X04281Y06217D03*
X04249Y06216D03*
X04115Y06107D03*
X04092Y06384D03*
X04217Y06248D03*
X04088Y0456D03*
X04172Y06244D03*
X0417Y06209D03*
X03787Y05915D03*
X04591Y04437D03*
X04655Y04437D03*
X04217Y06185D03*
X04632Y04602D03*
X04118Y05263D03*
X04217Y06154D03*
X04749Y04557D03*
X0425Y06122D03*
X04686Y05325D03*
X04654Y04882D03*
X04217Y06122D03*
X04265Y05159D03*
X04591Y04824D03*
X04312Y06247D03*
X04317Y05885D03*
X0428Y05995D03*
X0343Y06914D03*
X04312Y05995D03*
X03116Y06889D03*
X04344Y05965D03*
X03116Y0598D03*
X02537Y07285D03*
X0425Y06154D03*
X04532Y05894D03*
X04204Y05784D03*
X02586Y0649D03*
X04594Y05862D03*
X02687Y06068D03*
X04501Y05965D03*
X0538Y05949D03*
X04312Y06217D03*
Y06154D03*
X0425Y05965D03*
X02653Y0795D03*
X04213Y07745D03*
X02653Y07677D03*
X02537Y07715D03*
X04214Y0778D03*
X04119Y07811D03*
X04166Y0788D03*
X04185Y0778D03*
X04249Y0792D03*
X04277Y0778D03*
X0544Y0461D03*
X04344Y05932D03*
X0294Y0508D03*
X02215Y0822D03*
X02212Y07865D03*
Y07435D03*
X02202Y0671D03*
X0382Y0813D03*
X04088Y07277D03*
X03783Y0813D03*
X0464Y05927D03*
X0457Y06045D03*
X05747Y04375D03*
X05716Y04843D03*
X05444Y04845D03*
X05716Y04799D03*
X0576Y04883D03*
X05365Y04845D03*
X05064Y06995D03*
X0528Y06892D03*
X04434Y07497D03*
X04475Y07927D03*
Y0813D03*
X04465Y07374D03*
X04235Y08234D03*
X0412Y07311D03*
X04413Y08407D03*
X04482Y08425D03*
X04592Y07277D03*
X06154Y05362D03*
X04457Y05497D03*
X0294Y04681D03*
X03077Y04291D03*
X03116Y06559D03*
X0318Y04673D03*
X04438Y06122D03*
X04439Y06154D03*
X04217Y05932D03*
X02559Y04585D03*
X02521Y04714D03*
X04217Y05902D03*
X02437Y04497D03*
X04218Y05965D03*
X04217Y05995D03*
X0244Y04672D03*
X04514Y06852D03*
X02586D03*
X04465Y07465D03*
X04344Y06153D03*
X0428Y05965D03*
X04529Y07686D03*
X04437Y06184D03*
X04755Y05774D03*
X03033Y06499D03*
X04212Y05825D03*
X0431Y05965D03*
X04497Y07497D03*
X0455Y06027D03*
X04622Y0475D03*
X04591Y07748D03*
X04407Y05964D03*
X04529Y04882D03*
X0461Y05761D03*
X05173Y05563D03*
X04465Y0479D03*
X04501Y06122D03*
X04639Y05865D03*
X04867Y05782D03*
X04407Y06247D03*
X04917Y05072D03*
X0437Y04525D03*
X04182Y04517D03*
X04355Y04882D03*
X04245Y0475D03*
X04465Y07654D03*
X04555Y06176D03*
X04167Y04965D03*
X04749Y04962D03*
X05221Y06105D03*
X0419Y05622D03*
X04337Y08497D03*
X04362Y08408D03*
X045Y05995D03*
X05065Y04829D03*
X0425Y06185D03*
X03994Y04962D03*
X04187Y06027D03*
X04622Y07649D03*
X04226Y0581D03*
X04249Y05995D03*
X0307Y04697D03*
X05291Y06224D03*
X04439Y05995D03*
X0436Y05512D03*
X0626Y03612D03*
X0429Y05717D03*
X0447Y05996D03*
X05232Y06522D03*
X04222Y0785D03*
X04214Y07811D03*
X04245Y0778D03*
X04146Y07811D03*
X0419Y07854D03*
X04045Y07917D03*
X04276Y07749D03*
X03305Y07857D03*
X0409Y07812D03*
X04077Y05845D03*
X03115Y05879D03*
X04312Y05932D03*
X02714Y06012D03*
X0447Y05965D03*
X04078Y06254D03*
X04119Y0509D03*
X04437Y06287D03*
X04502Y06154D03*
X04407Y06216D03*
X05732Y06047D03*
X04501Y06059D03*
X04465Y07529D03*
X04501Y06027D03*
X0456Y07652D03*
X04217Y07497D03*
X0428Y06059D03*
X04423Y05893D03*
X04056Y04866D03*
X04077Y05916D03*
X04078Y0606D03*
X04344Y06217D03*
X04192Y04882D03*
X04077Y06037D03*
X04195Y06434D03*
X0438Y06384D03*
X0445Y07198D03*
X04344Y06364D03*
X04431D03*
X04432Y0753D03*
X0447Y06216D03*
X03852Y06212D03*
X0425Y06247D03*
X04077Y06124D03*
X04214Y06369D03*
X0392Y06307D03*
X04217Y06214D03*
X04344Y06247D03*
X04465Y07407D03*
X04623Y07268D03*
X03995Y0572D03*
X04291Y05741D03*
X04281Y05964D03*
X04434Y05262D03*
X04228Y05717D03*
X04497Y07432D03*
X04344Y06185D03*
X0428D03*
X04265Y05375D03*
X04277Y04541D03*
X04502Y06185D03*
X0456Y07717D03*
X04647Y06299D03*
X0407Y06333D03*
X04638Y0719D03*
X04395Y04962D03*
X04631Y04882D03*
X04529Y0737D03*
X04285Y08497D03*
X04379Y07206D03*
X04296Y07949D03*
X02175Y05402D03*
X03342Y04494D03*
X03449Y04469D03*
X0225Y05377D03*
X04465Y08407D03*
X04775Y08442D03*
X04559Y07745D03*
X04311Y08327D03*
X04449Y07949D03*
X04312Y08632D03*
X05962Y03347D03*
X05915Y06065D03*
X04605Y06356D03*
X0434Y0497D03*
X04249Y06059D03*
X04245Y04962D03*
X03204Y04647D03*
X02976Y04622D03*
X04337Y08272D03*
X04626Y07815D03*
X05785Y04902D03*
X05575Y04334D03*
X05419Y04175D03*
X05747Y04057D03*
X03429Y04846D03*
X03449Y04519D03*
X04413Y08523D03*
X03449Y04571D03*
X05315Y0565D03*
X0288Y04938D03*
X03009Y0498D03*
X06071Y0461D03*
X0605Y0364D03*
X04528Y07749D03*
X02074Y07097D03*
Y06367D03*
Y06002D03*
X06297Y0458D03*
X02538Y06555D03*
X03498Y08307D03*
X02617Y0808D03*
X02653Y08032D03*
X03213Y04193D03*
X02888Y06249D03*
Y05879D03*
X02538Y0692D03*
X06445Y04D03*
X02893Y06974D03*
X04087Y07839D03*
X03074Y07805D03*
X02904Y07417D03*
X03006Y07654D03*
X06091Y04333D03*
X05539Y04375D03*
X0307Y0817D03*
X02538Y0619D03*
X02537Y05825D03*
X03152Y04192D03*
X0307Y04725D03*
X04922Y035D03*
X0394Y07525D03*
X04309Y07465D03*
X04245Y07529D03*
X04182Y0759D03*
X04434D03*
X0437Y07654D03*
X0277Y03069D03*
X03225D03*
X02522Y04541D03*
X0368Y03069D03*
X03177Y04647D03*
X03448Y04545D03*
X03342Y04622D03*
Y04724D03*
X03448Y0475D03*
X03342Y04775D03*
X0366Y04554D03*
X02174Y05326D03*
X0335Y04892D03*
X03589Y04794D03*
X04327Y03713D03*
X04056Y04437D03*
X03962Y04962D03*
X0434Y04517D03*
X02346Y05943D03*
X02782Y05873D03*
X02579Y05964D03*
X04717Y04517D03*
X05045Y03755D03*
X05107Y04255D03*
X0524Y03755D03*
X02346Y06308D03*
X02782Y06243D03*
X04074Y05712D03*
X02579Y06324D03*
X05379Y03245D03*
X05485Y03419D03*
X04419Y05725D03*
X05599Y03419D03*
X05675Y03237D03*
X05201Y04843D03*
X02346Y06668D03*
X02782Y06618D03*
X04281Y05933D03*
X02579Y06689D03*
X0513Y05097D03*
X04249Y06027D03*
X04407Y05933D03*
X04704Y05722D03*
X04344Y05996D03*
X04501Y05933D03*
X05865Y03347D03*
X05519Y0461D03*
X04281Y06153D03*
X0447Y06027D03*
X05863Y03598D03*
X0447Y06059D03*
X04407Y06185D03*
X05785Y04299D03*
X04642Y06025D03*
X05236Y05508D03*
X02782Y06973D03*
X02346Y07038D03*
X05068Y0565D03*
X02579Y07049D03*
X05316Y05563D03*
X05785Y04709D03*
X04647Y06225D03*
X05228Y05716D03*
X04534Y06364D03*
X0626Y03094D03*
X03941Y06773D03*
X0626Y03639D03*
X02782Y07333D03*
X02346Y07393D03*
X06258Y04333D03*
X05158Y06136D03*
X02579Y07424D03*
X04024Y07185D03*
X0394Y0722D03*
X04606Y06773D03*
X04275Y07185D03*
X0394Y07334D03*
X05158Y06521D03*
X04056Y07276D03*
Y07371D03*
X02782Y07766D03*
X04214Y07308D03*
X02346Y07823D03*
X04151Y07371D03*
X05064Y06795D03*
X0265Y07849D03*
X04088Y07465D03*
X04434Y07308D03*
X04308Y07371D03*
X04734Y0719D03*
X0394Y07595D03*
X04214Y07465D03*
X04497Y07371D03*
X0456Y07339D03*
X04151Y07591D03*
X04434Y07434D03*
X0456Y07371D03*
X04308Y07497D03*
X04465Y07434D03*
X04277Y07528D03*
X04088Y07654D03*
X04623Y07371D03*
X04402Y07497D03*
X04371Y07528D03*
X04855Y07279D03*
X04308Y07591D03*
X04182Y07654D03*
X0394Y0778D03*
X04277Y07622D03*
X04402Y07591D03*
X04591Y07465D03*
X04371Y07622D03*
X04879Y07274D03*
X04182Y07748D03*
X04528Y07591D03*
X04119Y0778D03*
X02777Y08133D03*
X02346Y08178D03*
X04434Y07654D03*
X04056Y07843D03*
X0265Y08189D03*
X03581Y08071D03*
X05126Y07291D03*
X04371Y07748D03*
X04245Y07811D03*
X03935Y07955D03*
X04591Y07654D03*
X04855Y07525D03*
X04528Y07717D03*
X04019Y07949D03*
X04465Y07811D03*
X0456Y0778D03*
X04855Y07634D03*
X04623Y07843D03*
X04213Y08116D03*
X05091Y07686D03*
X04446Y08116D03*
X04645Y07949D03*
X04855Y07915D03*
X03985Y0834D03*
X04465Y08631D03*
X05675Y03162D03*
X0567Y03419D03*
X04245Y07465D03*
X04277Y07497D03*
X04371D03*
X04434Y07465D03*
X04308Y07528D03*
X04277Y07591D03*
X04402Y07528D03*
X04371Y07591D03*
X04308Y07622D03*
X04245Y07654D03*
X04402Y07622D03*
X02522Y04628D03*
X03447Y04193D03*
X03663Y04372D03*
X03962Y04517D03*
X02653Y05787D03*
X04623Y04437D03*
X05078Y03577D03*
X02653Y06152D03*
X04717Y04962D03*
X05196Y04613D03*
X02653Y06527D03*
X0449Y05725D03*
X04625Y05722D03*
X04876Y05592D03*
X02653Y06887D03*
X04159Y06369D03*
X05822Y04393D03*
X04642Y06104D03*
X05822Y04803D03*
X02653Y07262D03*
X04058Y06773D03*
X0394Y07149D03*
X04095Y07185D03*
X04204D03*
X04723Y06773D03*
X02586Y07677D03*
X0394Y07405D03*
X04151Y07308D03*
X04088Y07371D03*
X04559Y0719D03*
X04308Y07308D03*
X04214Y07371D03*
X04182Y07402D03*
X04151Y07465D03*
X04497Y07308D03*
X04308Y07402D03*
X04371D03*
X04434Y07371D03*
X04805Y0719D03*
X04528Y07339D03*
X04088Y07591D03*
X04497Y07402D03*
X0394Y07709D03*
X04591Y07371D03*
X02586Y08032D03*
X04151Y07654D03*
X04528Y07465D03*
X04088Y07717D03*
X05331Y06995D03*
X04855Y0735D03*
X04182Y07717D03*
X04497Y07591D03*
X04056Y07811D03*
X04879Y07345D03*
X03935Y07884D03*
X04308Y07717D03*
X04245Y07748D03*
X04591Y07591D03*
X04371Y07717D03*
X04855Y07454D03*
X04182Y07811D03*
X04528Y07654D03*
X04497Y07717D03*
X04465Y07748D03*
X04371Y07811D03*
X04591Y07717D03*
X05126Y07408D03*
X0409Y07949D03*
X04528Y07811D03*
X04591D03*
X04209Y07949D03*
X04096Y08116D03*
X04855Y07705D03*
X04379Y07949D03*
X04855Y07844D03*
X04574Y07949D03*
X04563Y08116D03*
X05091Y07803D03*
X04177Y08338D03*
X04187Y08643D03*
X04234Y08722D03*
X0426Y08631D03*
X04286Y08722D03*
X04543Y08606D03*
X04733D03*
X05607Y03175D03*
X05444Y03094D03*
X05273Y03587D03*
X0409Y0378D03*
X0524Y03627D03*
X05045D03*
X0536Y03295D03*
X02935Y04349D03*
G54D70*
X06253Y04867D03*
X06316D03*
X06018Y04157D03*
X06081D03*
X05291Y05755D03*
X05228D03*
X05158Y06175D03*
X05221D03*
X05158Y0656D03*
X05221D03*
X05173Y0547D03*
X05236D03*
G54D71*
X05065Y04334D03*
Y04255D03*
X0469Y06225D03*
Y06304D03*
X04685Y06025D03*
Y06104D03*
X04035Y05924D03*
Y05845D03*
Y06124D03*
Y06045D03*
G54D72*
X04943Y0563D03*
X04876D03*
X03596Y0441D03*
X03663D03*
X02653Y07715D03*
X02586D03*
X02653Y0807D03*
X02586D03*
Y073D03*
X02653D03*
X02586Y06925D03*
X02653D03*
X02586Y06565D03*
X02653D03*
X02586Y0619D03*
X02653D03*
X02586Y05825D03*
X02653D03*
X05011Y0354D03*
X05078D03*
X05273D03*
X05206D03*
G54D73*
X04982Y05875D03*
X04867D03*
G54D74*
X0414Y08271D03*
Y08338D03*
X0415Y08576D03*
Y08643D03*
G54D75*
X04775Y08606D03*
Y08523D03*
X04585Y08606D03*
Y08523D03*
G54D76*
X05273Y0353D02*
X05392D01*
X05147Y03515D02*
X05206D01*
X05273Y0354D02*
Y03587D01*
X05238Y03472D02*
X05273Y03507D01*
Y0353*
Y0354*
X05206Y03515D02*
Y0354D01*
Y03594*
X05011Y0354D02*
Y03594D01*
Y03647*
G54D77*
X05392Y0353D02*
X05414Y03508D01*
Y0346D02*
Y03508D01*
M02*