%FSTAX23Y23*%
%MOIN*%
%SFA1B1*%

%IPPOS*%
%ADD29R,0.059055X0.059055*%
%ADD39C,0.031496*%
%ADD45C,0.003937*%
%ADD49C,0.059055*%
%ADD55C,0.015748*%
%ADD65C,0.019685*%
%LNpcb_take2-1-1*%
%LPD*%
G54D29*
X05265Y0315D03*
X0596Y0562D03*
G54D39*
X05215Y033D02*
X05265Y0325D01*
X048Y033D02*
X05215D01*
X04772Y03328D02*
X048Y033D01*
X04772Y03328D02*
Y03644D01*
X04601Y03815D02*
X04772Y03644D01*
X0394Y03815D02*
X04601D01*
G54D45*
X05444Y04845D02*
X05463Y04864D01*
X05695*
X05716Y04843*
X05858Y06122D02*
X0596Y0602D01*
X04532Y06122D02*
X05858D01*
X03131Y07749D02*
X03872D01*
X03898Y07775*
X03977*
X03999Y07797*
X04136*
X04151Y07812*
X02538Y07715D02*
X03852D01*
X03902Y07765*
X04199*
X04214Y0778*
X02364Y08716D02*
X024Y0868D01*
X02176Y08716D02*
X02364D01*
X02164Y08704D02*
X02176Y08716D01*
X02164Y08191D02*
Y08704D01*
Y08191D02*
X02454Y07901D01*
X04124*
X04183Y07842*
X022Y0868D02*
X02236Y08644D01*
X02907*
X03007Y08544*
X03596*
X03175Y0868D02*
X03238Y08617D01*
X03704*
X0372Y08601*
X03924*
X03943Y0862*
X04696*
X04734Y08657*
X03375Y0868D02*
X03411Y08716D01*
X0371*
X03748Y08677*
X04644*
X03317Y08638D02*
X04644D01*
X03275Y0868D02*
X03317Y08638D01*
X04625Y0731D02*
X04945D01*
X04592Y07277D02*
X04625Y0731D01*
X06204Y06599D02*
X0624Y06635D01*
X06204Y0639D02*
Y06599D01*
Y0639D02*
X06224Y0637D01*
X06257*
X06275Y06352*
Y0631D02*
Y06352D01*
X06248Y06283D02*
X06275Y0631D01*
X06184Y06283D02*
X06248D01*
X06109Y06208D02*
X06184Y06283D01*
X04623Y06208D02*
X06109D01*
X04613Y06198D02*
X04623Y06208D01*
X04455Y06198D02*
X04613D01*
X04453Y06196D02*
X04455Y06198D01*
X04453Y0617D02*
Y06196D01*
X04439Y06156D02*
X04453Y0617D01*
X04439Y06154D02*
Y06156D01*
X0624Y06535D02*
X06283Y06491D01*
Y06212D02*
Y06491D01*
X06256Y06185D02*
X06283Y06212D01*
X04678Y06185D02*
X06256D01*
X04661Y06168D02*
X04678Y06185D01*
X04462Y06168D02*
X04661D01*
X04454Y0616D02*
X04462Y06168D01*
X04454Y06138D02*
Y0616D01*
X04438Y06122D02*
X04454Y06138D01*
X04439Y06185D02*
Y06206D01*
X04464Y06231*
X06089*
X06193Y06335*
X0624*
X03888Y06201D02*
X04203D01*
X04218Y06216*
X04327Y05983D02*
X04344Y05966D01*
X04327Y05983D02*
Y06285D01*
X04319Y06293D02*
X04327Y06285D01*
X04627Y0601D02*
X0567D01*
X04611Y06025D02*
X04627Y0601D01*
X04528Y06025D02*
X04611D01*
X04512Y06042D02*
X04528Y06025D01*
X044Y06042D02*
X04512D01*
X04376Y06018D02*
X044Y06042D01*
X04376Y05968D02*
Y06018D01*
X04359Y05951D02*
X04376Y05968D01*
X04304Y05951D02*
X04359D01*
X04299Y05956D02*
X04304Y05951D01*
X04299Y05956D02*
Y0597D01*
X04288Y05981D02*
X04299Y0597D01*
X04265Y05981D02*
X04288D01*
X0425Y05996D02*
X04265Y05981D01*
X0425Y05965D02*
X04265Y0595D01*
X04285*
X04292Y05943*
X04307*
X0433Y05919*
X04413*
X04422Y05928*
Y05969*
X04432Y05979*
X04551*
X04575Y05955*
X05672*
X05748Y05879*
X05919*
X0596Y0592*
X0456Y07654D02*
X04578Y07636D01*
Y0632D02*
Y07636D01*
X04562Y06304D02*
X04578Y0632D01*
X0435Y06304D02*
X04562D01*
X04335Y06319D02*
X0435Y06304D01*
X0432Y06319D02*
X04335D01*
X04296Y06295D02*
X0432Y06319D01*
X04296Y06074D02*
Y06295D01*
X04281Y06059D02*
X04296Y06074D01*
X05493Y04317D02*
X06091D01*
X04559Y0848D02*
X04644D01*
X04543Y08464D02*
X04559Y0848D01*
X04543Y07385D02*
Y08464D01*
X04529Y07371D02*
X04543Y07385D01*
X04451Y07418D02*
Y0792D01*
Y07418D02*
X04466Y07403D01*
X05064Y06995D02*
X05108Y06951D01*
X05579*
X05655Y06875*
X05366Y04845D02*
X05404Y04883D01*
X0576*
X06179Y05974D02*
X0624Y06035D01*
X04615Y05974D02*
X06179D01*
X04578Y06011D02*
X04615Y05974D01*
X044Y06011D02*
X04578D01*
X04393Y06004D02*
X044Y06011D01*
X04393Y05964D02*
Y06004D01*
X04368Y05939D02*
X04393Y05964D01*
X0435Y05939D02*
X04368D01*
X04344Y05933D02*
X0435Y05939D01*
X027Y0858D02*
X02748Y08532D01*
X03573*
X04141Y07964*
X04291*
X04295Y0796*
Y07767D02*
Y0796D01*
X04277Y07749D02*
X04295Y07767D01*
X026Y0858D02*
X03252Y07927D01*
X0424*
X0426Y07907*
Y07794D02*
Y07907D01*
X04246Y0778D02*
X0426Y07794D01*
X025Y0868D02*
X02559Y08739D01*
X03712*
X042Y07825D02*
X04214Y07811D01*
X042Y07825D02*
Y0788D01*
X04171Y07909D02*
X042Y0788D01*
X02496Y07909D02*
X04171D01*
X02475Y0793D02*
X02496Y07909D01*
X02475Y0793D02*
Y08555D01*
X025Y0858*
X02538Y07955D02*
Y0808D01*
Y07955D02*
X02576Y07917D01*
X04207*
X04228Y07896*
Y07763D02*
Y07896D01*
X04214Y07749D02*
X04228Y07763D01*
X03033Y07764D02*
X03097Y07828D01*
X04077*
X04088Y07839*
X04407Y06248D02*
X04424Y06231D01*
Y06112D02*
Y06231D01*
Y06112D02*
X04444Y06092D01*
X04612*
X04645Y06059*
X05821*
X0586Y0602*
X04574Y06041D02*
X05739D01*
X04556Y06059D02*
X04574Y06041D01*
X04502Y06059D02*
X04556D01*
X04502Y05965D02*
X04536D01*
X04554Y05947*
X05525*
X05802Y0567*
X0591*
X0596Y0562*
X02586Y059D02*
X04154D01*
X04162Y05908*
X04314*
X04321Y059*
X04342*
X04369Y05874*
X04461*
X0447Y05883*
Y05965*
X04533Y05922D02*
Y05933D01*
X04488Y05877D02*
X04533Y05922D01*
X04488Y05866D02*
Y05877D01*
X0448Y05858D02*
X04488Y05866D01*
X04418Y05858D02*
X0448D01*
X04358Y05798D02*
X04418Y05858D01*
X02668Y05798D02*
X04358D01*
X02538Y05927D02*
X02668Y05798D01*
X02538Y05927D02*
Y0619D01*
X02586Y06834D02*
X04034D01*
X04541Y06327*
X04298Y05864D02*
X04313Y05879D01*
X03131Y05864D02*
X04298D01*
X03998Y05748D02*
X04152Y05594D01*
X0442*
X04202Y0617D02*
X04218Y06154D01*
X04144Y0617D02*
X04202D01*
X04126Y06152D02*
X04144Y0617D01*
X04126Y06115D02*
Y06152D01*
Y06115D02*
X04152Y06088D01*
Y06016D02*
Y06088D01*
X04127Y05991D02*
X04152Y06016D01*
X04127Y05919D02*
Y05991D01*
Y05919D02*
X04131Y05914D01*
X04152*
X04154Y05916*
X04317*
X04322Y05911*
X04437*
X04453Y05896*
X04227Y06279D02*
X0425Y06256D01*
X04013Y06279D02*
X04227D01*
X03957Y06223D02*
X04013Y06279D01*
X04232Y06234D02*
X0425Y06216D01*
X04139Y06234D02*
X04232D01*
X04131Y06242D02*
X04139Y06234D01*
X04264Y06231D02*
X04281Y06248D01*
X04264Y06145D02*
Y06231D01*
X04256Y06137D02*
X04264Y06145D01*
X04244Y06137D02*
X04256D01*
X04192Y06085D02*
X04244Y06137D01*
X04192Y05979D02*
Y06085D01*
X04141Y05928D02*
X04192Y05979D01*
X04497Y04996D02*
X04547Y05045D01*
Y0594*
X0454Y05946D02*
X04547Y0594D01*
X04524Y05946D02*
X0454D01*
X04519Y05941D02*
X04524Y05946D01*
X04519Y05921D02*
Y05941D01*
X04464Y05866D02*
X04519Y05921D01*
X04356Y05866D02*
X04464D01*
X04329Y05892D02*
X04356Y05866D01*
X04299Y05892D02*
X04329D01*
X04286Y05879D02*
X04299Y05892D01*
X04425Y04922D02*
X04465Y04882D01*
X04335Y04922D02*
X04425D01*
X04135Y05122D02*
X04335Y04922D01*
X04257Y05879D02*
X04286D01*
X0425Y05886D02*
X04257Y05879D01*
G54D49*
X03375Y0868D03*
X03275D03*
X03175D03*
X05265Y0325D03*
X05116D03*
X022Y0868D03*
X024D03*
X025Y0858D03*
Y0868D03*
X026Y0858D03*
X027D03*
X05655Y06875D03*
X0624Y06035D03*
Y06335D03*
Y06535D03*
Y06635D03*
X0596Y0592D03*
Y0602D03*
X0586D03*
G54D55*
X0394Y03815D03*
X02538Y0619D03*
X05444Y04845D03*
X05716Y04843D03*
X04532Y06122D03*
X03131Y07749D03*
X04151Y07812D03*
X02538Y07715D03*
X04214Y0778D03*
X04183Y07842D03*
X03596Y08544D03*
X04734Y08657D03*
X04644Y08677D03*
Y08638D03*
X04945Y0731D03*
X04592Y07277D03*
X04439Y06154D03*
X04438Y06122D03*
X04439Y06185D03*
X03888Y06201D03*
X04218Y06216D03*
X04344Y05966D03*
X04319Y06293D03*
X0567Y0601D03*
X0425Y05996D03*
Y05965D03*
X0456Y07654D03*
X04281Y06059D03*
X05493Y04317D03*
X06091D03*
X04644Y0848D03*
X04529Y07371D03*
X0425Y05886D03*
X04451Y0792D03*
X04466Y07403D03*
X05064Y06995D03*
X05366Y04845D03*
X0576Y04883D03*
X04344Y05933D03*
X04277Y07749D03*
X04246Y0778D03*
X03712Y08739D03*
X04214Y07811D03*
X02538Y0808D03*
X04214Y07749D03*
X03033Y07764D03*
X04088Y07839D03*
X04407Y06248D03*
X05739Y06041D03*
X04502Y06059D03*
Y05965D03*
X02586Y059D03*
X0447Y05965D03*
X04533Y05933D03*
X02586Y06834D03*
X04541Y06327D03*
X04313Y05879D03*
X03131Y05864D03*
X03998Y05748D03*
X0442Y05594D03*
X04218Y06154D03*
X04453Y05896D03*
X0425Y06256D03*
X03957Y06223D03*
X0425Y06216D03*
X04131Y06242D03*
X04281Y06248D03*
X04141Y05928D03*
X04497Y04996D03*
X04465Y04882D03*
X04135Y05122D03*
X05361Y03094D03*
G54D65*
X05116Y0325D02*
X05216Y0315D01*
X05265*
X0532Y03094*
X05361*
M02*