%FSTAX23Y23*%
%MOIN*%
%SFA1B1*%

%IPPOS*%
%ADD38C,0.003937*%
%ADD124C,0.002992*%
%ADD125C,0.020000*%
%LNpcb_take2-1-1*%
%LPD*%
G54D38*
X04834Y05918D02*
X05015D01*
X04834Y05831D02*
X05015D01*
Y05918*
X04834Y05831D02*
Y05918D01*
G54D124*
X04212Y0379D02*
X04372D01*
Y0371D02*
Y0379D01*
X04212Y0371D02*
X04372D01*
X04212D02*
Y0379D01*
X02737Y07763D02*
X02897D01*
X02737D02*
Y07843D01*
X02897*
Y07763D02*
Y07843D01*
X02732Y0813D02*
X02892D01*
X02732D02*
Y0821D01*
X02892*
Y0813D02*
Y0821D01*
X02737Y0624D02*
X02897D01*
X02737D02*
Y0632D01*
X02897*
Y0624D02*
Y0632D01*
X02737Y06615D02*
X02897D01*
X02737D02*
Y06695D01*
X02897*
Y06615D02*
Y06695D01*
X02737Y0697D02*
X02897D01*
X02737D02*
Y0705D01*
X02897*
Y0697D02*
Y0705D01*
X02737Y0733D02*
X02897D01*
X02737D02*
Y0741D01*
X02897*
Y0733D02*
Y0741D01*
X03327Y0419D02*
X03487D01*
X03327D02*
Y0427D01*
X03487*
Y0419D02*
Y0427D01*
X03032Y0419D02*
X03192D01*
X03032D02*
Y0427D01*
X03192*
Y0419D02*
Y0427D01*
X02737Y0587D02*
X02897D01*
X02737D02*
Y0595D01*
X02897*
Y0587D02*
Y0595D01*
G54D125*
X04925Y05875D03*
X0429Y0375D03*
X0282Y07803D03*
X02815Y0817D03*
X0282Y0628D03*
Y06655D03*
Y0701D03*
Y0737D03*
X0341Y0423D03*
X03115D03*
X0282Y0591D03*
M02*