%FSTAX23Y23*%
%MOIN*%
%SFA1B1*%

%IPPOS*%
%ADD38C,0.003937*%
%ADD123C,0.001969*%
%ADD124C,0.002992*%
%LNpcb_take2-1-1*%
%LPD*%
G54D38*
X04275Y08511D02*
D01*
X04275Y08513*
X04275Y08514*
X04274Y08515*
X04274Y08517*
X04274Y08518*
X04273Y08519*
X04272Y08521*
X04272Y08522*
X04271Y08523*
X0427Y08524*
X04269Y08525*
X04268Y08526*
X04267Y08527*
X04266Y08528*
X04265Y08528*
X04264Y08529*
X04262Y0853*
X04261Y0853*
X0426Y0853*
X04258Y08531*
X04257Y08531*
X04256Y08531*
X04254*
X04253Y08531*
X04252Y08531*
X0425Y0853*
X04249Y0853*
X04248Y0853*
X04246Y08529*
X04245Y08528*
X04244Y08528*
X04243Y08527*
X04242Y08526*
X04241Y08525*
X0424Y08524*
X04239Y08523*
X04238Y08522*
X04238Y08521*
X04237Y08519*
X04237Y08518*
X04236Y08517*
X04236Y08515*
X04236Y08514*
X04235Y08513*
X04235Y08511*
X04235Y0851*
X04236Y08509*
X04236Y08507*
X04236Y08506*
X04237Y08505*
X04237Y08503*
X04238Y08502*
X04238Y08501*
X04239Y085*
X0424Y08499*
X04241Y08498*
X04242Y08497*
X04243Y08496*
X04244Y08495*
X04245Y08494*
X04246Y08494*
X04248Y08493*
X04249Y08493*
X0425Y08492*
X04252Y08492*
X04253Y08492*
X04254Y08492*
X04256*
X04257Y08492*
X04258Y08492*
X0426Y08492*
X04261Y08493*
X04262Y08493*
X04264Y08494*
X04265Y08494*
X04266Y08495*
X04267Y08496*
X04268Y08497*
X04269Y08498*
X0427Y08499*
X04271Y085*
X04272Y08501*
X04272Y08502*
X04273Y08503*
X04274Y08505*
X04274Y08506*
X04274Y08507*
X04275Y08509*
X04275Y0851*
X04275Y08511*
X03204Y04806D02*
D01*
X03204Y04807*
X03204Y04808*
X03204Y0481*
X03204Y04811*
X03203Y04812*
X03203Y04814*
X03202Y04815*
X03201Y04816*
X03201Y04817*
X032Y04818*
X03199Y04819*
X03198Y0482*
X03197Y04821*
X03196Y04822*
X03195Y04823*
X03193Y04823*
X03192Y04824*
X03191Y04824*
X03189Y04825*
X03188Y04825*
X03187Y04825*
X03185Y04825*
X03184*
X03183Y04825*
X03181Y04825*
X0318Y04825*
X03179Y04824*
X03177Y04824*
X03176Y04823*
X03175Y04823*
X03174Y04822*
X03173Y04821*
X03172Y0482*
X03171Y04819*
X0317Y04818*
X03169Y04817*
X03168Y04816*
X03167Y04815*
X03167Y04814*
X03166Y04812*
X03166Y04811*
X03165Y0481*
X03165Y04808*
X03165Y04807*
X03165Y04806*
X03165Y04804*
X03165Y04803*
X03165Y04802*
X03166Y048*
X03166Y04799*
X03167Y04798*
X03167Y04797*
X03168Y04795*
X03169Y04794*
X0317Y04793*
X03171Y04792*
X03172Y04791*
X03173Y0479*
X03174Y04789*
X03175Y04789*
X03176Y04788*
X03177Y04788*
X03179Y04787*
X0318Y04787*
X03181Y04786*
X03183Y04786*
X03184Y04786*
X03185*
X03187Y04786*
X03188Y04786*
X03189Y04787*
X03191Y04787*
X03192Y04788*
X03193Y04788*
X03195Y04789*
X03196Y04789*
X03197Y0479*
X03198Y04791*
X03199Y04792*
X032Y04793*
X03201Y04794*
X03201Y04795*
X03202Y04797*
X03203Y04798*
X03203Y04799*
X03204Y048*
X03204Y04802*
X03204Y04803*
X03204Y04804*
X03204Y04806*
X04767Y04867D02*
D01*
X04767Y04868*
X04766Y0487*
X04766Y04871*
X04766Y04872*
X04765Y04874*
X04765Y04875*
X04764Y04876*
X04764Y04877*
X04763Y04878*
X04762Y04879*
X04761Y0488*
X0476Y04881*
X04759Y04882*
X04758Y04883*
X04757Y04884*
X04756Y04885*
X04754Y04885*
X04753Y04886*
X04752Y04886*
X0475Y04886*
X04749Y04886*
X04748Y04886*
X04746*
X04745Y04886*
X04744Y04886*
X04742Y04886*
X04741Y04886*
X0474Y04885*
X04738Y04885*
X04737Y04884*
X04736Y04883*
X04735Y04882*
X04734Y04881*
X04733Y0488*
X04732Y04879*
X04731Y04878*
X0473Y04877*
X0473Y04876*
X04729Y04875*
X04728Y04874*
X04728Y04872*
X04728Y04871*
X04727Y0487*
X04727Y04868*
X04727Y04867*
X04727Y04865*
X04727Y04864*
X04728Y04863*
X04728Y04861*
X04728Y0486*
X04729Y04859*
X0473Y04858*
X0473Y04856*
X04731Y04855*
X04732Y04854*
X04733Y04853*
X04734Y04852*
X04735Y04851*
X04736Y04851*
X04737Y0485*
X04738Y04849*
X0474Y04849*
X04741Y04848*
X04742Y04848*
X04744Y04847*
X04745Y04847*
X04746Y04847*
X04748*
X04749Y04847*
X0475Y04847*
X04752Y04848*
X04753Y04848*
X04754Y04849*
X04756Y04849*
X04757Y0485*
X04758Y04851*
X04759Y04851*
X0476Y04852*
X04761Y04853*
X04762Y04854*
X04763Y04855*
X04764Y04856*
X04764Y04858*
X04765Y04859*
X04765Y0486*
X04766Y04861*
X04766Y04863*
X04766Y04864*
X04767Y04865*
X04767Y04867*
X03581Y04806D02*
Y04863D01*
X03668Y04806D02*
Y04863D01*
X03581D02*
X03668D01*
X03581Y04806D02*
X03668D01*
X04969Y07678D02*
X0508D01*
X04969Y07811D02*
X0508D01*
X04969Y07678D02*
Y07811D01*
X0508Y07678D02*
Y07811D01*
X0422Y08476D02*
X04479D01*
X0422Y08653D02*
X04479D01*
X0422Y08476D02*
Y08653D01*
X04479Y08476D02*
Y08653D01*
X06261Y04113D02*
Y04166D01*
X06348Y04113D02*
Y04166D01*
X06261Y04113D02*
X06348D01*
X06261Y04166D02*
X06348D01*
X06256Y04348D02*
Y04401D01*
X06343Y04348D02*
Y04401D01*
X06256Y04348D02*
X06343D01*
X06256Y04401D02*
X06343D01*
X06241Y04838D02*
Y04895D01*
X06328Y04838D02*
Y04895D01*
X06241Y04838D02*
X06328D01*
X06241Y04895D02*
X06328D01*
X05436Y04624D02*
Y04681D01*
X05523Y04624D02*
Y04681D01*
X05436Y04624D02*
X05523D01*
X05436Y04681D02*
X05523D01*
X05718Y04858D02*
Y04911D01*
X05631Y04858D02*
Y04911D01*
X05718*
X05631Y04858D02*
X05718D01*
X06246Y04628D02*
Y04681D01*
X06333Y04628D02*
Y04681D01*
X06246Y04628D02*
X06333D01*
X06246Y04681D02*
X06333D01*
X06006Y04129D02*
Y04186D01*
X06093Y04129D02*
Y04186D01*
X06006Y04129D02*
X06093D01*
X06006Y04186D02*
X06093D01*
Y04348D02*
Y04401D01*
X06006Y04348D02*
Y04401D01*
X06093*
X06006Y04348D02*
X06093D01*
X05996Y04624D02*
Y04681D01*
X06083Y04624D02*
Y04681D01*
X05996Y04624D02*
X06083D01*
X05996Y04681D02*
X06083D01*
X05981Y04858D02*
Y04911D01*
X06068Y04858D02*
Y04911D01*
X05981Y04858D02*
X06068D01*
X05981Y04911D02*
X06068D01*
X05851Y05111D02*
Y05164D01*
X05938Y05111D02*
Y05164D01*
X05851Y05111D02*
X05938D01*
X05851Y05164D02*
X05938D01*
X05511Y04113D02*
Y04166D01*
X05598Y04113D02*
Y04166D01*
X05511Y04113D02*
X05598D01*
X05511Y04166D02*
X05598D01*
X05578Y04348D02*
Y04401D01*
X05491Y04348D02*
Y04401D01*
X05578*
X05491Y04348D02*
X05578D01*
X05448Y04858D02*
Y04915D01*
X05361Y04858D02*
Y04915D01*
X05448*
X05361Y04858D02*
X05448D01*
X05511Y05111D02*
Y05164D01*
X05598Y05111D02*
Y05164D01*
X05511Y05111D02*
X05598D01*
X05511Y05164D02*
X05598D01*
X05256Y04109D02*
Y04166D01*
X05343Y04109D02*
Y04166D01*
X05256Y04109D02*
X05343D01*
X05256Y04166D02*
X05343D01*
X05246Y04348D02*
Y04401D01*
X05333Y04348D02*
Y04401D01*
X05246Y04348D02*
X05333D01*
X05246Y04401D02*
X05333D01*
X05111Y04628D02*
Y04681D01*
X05198Y04628D02*
Y04681D01*
X05111Y04628D02*
X05198D01*
X05111Y04681D02*
X05198D01*
X05116Y04858D02*
Y04911D01*
X05203Y04858D02*
Y04911D01*
X05116Y04858D02*
X05203D01*
X05116Y04911D02*
X05203D01*
X05213Y05111D02*
Y05168D01*
X05126Y05111D02*
Y05168D01*
X05213*
X05126Y05111D02*
X05213D01*
X05036Y04338D02*
X05093D01*
X05036Y04251D02*
X05093D01*
X05036D02*
Y04338D01*
X05093Y04251D02*
Y04338D01*
X04011Y07961D02*
Y08018D01*
X04098Y07961D02*
Y08018D01*
X04011Y07961D02*
X04098D01*
X04011Y08018D02*
X04098D01*
X04288Y07961D02*
Y08018D01*
X04201Y07961D02*
Y08018D01*
X04288*
X04201Y07961D02*
X04288D01*
X04458D02*
Y08018D01*
X04371Y07961D02*
Y08018D01*
X04458*
X04371Y07961D02*
X04458D01*
X04653D02*
Y08018D01*
X04566Y07961D02*
Y08018D01*
X04653*
X04566Y07961D02*
X04653D01*
X05004Y07283D02*
X05115D01*
X05004Y07416D02*
X05115D01*
Y07283D02*
Y07416D01*
X05004Y07283D02*
Y07416D01*
X04953Y05603D02*
Y05656D01*
X04866Y05603D02*
Y05656D01*
X04953*
X04866Y05603D02*
X04953D01*
X04526Y06376D02*
Y06433D01*
X04613Y06376D02*
Y06433D01*
X04526Y06376D02*
X04613D01*
X04526Y06433D02*
X04613D01*
X04423Y06376D02*
Y06433D01*
X04336Y06376D02*
Y06433D01*
X04423*
X04336Y06376D02*
X04423D01*
X04238Y06381D02*
Y06438D01*
X04151Y06381D02*
Y06438D01*
X04238*
X04151Y06381D02*
X04238D01*
X03916Y08348D02*
X03973D01*
X03916Y08261D02*
X03973D01*
X03916D02*
Y08348D01*
X03973Y08261D02*
Y08348D01*
X04113Y08261D02*
X04166D01*
X04113Y08348D02*
X04166D01*
Y08261D02*
Y08348D01*
X04113Y08261D02*
Y08348D01*
X04123Y08566D02*
X04176D01*
X04123Y08653D02*
X04176D01*
Y08566D02*
Y08653D01*
X04123Y08566D02*
Y08653D01*
X05303Y05726D02*
Y05783D01*
X05216Y05726D02*
Y05783D01*
X05303*
X05216Y05726D02*
X05303D01*
X05146Y06146D02*
Y06203D01*
X05233Y06146D02*
Y06203D01*
X05146Y06146D02*
X05233D01*
X05146Y06203D02*
X05233D01*
X05146Y06531D02*
Y06588D01*
X05233Y06531D02*
Y06588D01*
X05146Y06531D02*
X05233D01*
X05146Y06588D02*
X05233D01*
X03433Y04906D02*
Y04963D01*
X03346Y04906D02*
Y04963D01*
X03433*
X03346Y04906D02*
X03433D01*
X02891Y04518D02*
Y04571D01*
X02978Y04518D02*
Y04571D01*
X02891Y04518D02*
X02978D01*
X02891Y04571D02*
X02978D01*
X02891Y04733D02*
Y04786D01*
X02978Y04733D02*
Y04786D01*
X02891Y04733D02*
X02978D01*
X02891Y04786D02*
X02978D01*
X02973Y04953D02*
Y05006D01*
X02886Y04953D02*
Y05006D01*
X02973*
X02886Y04953D02*
X02973D01*
X03586Y04383D02*
Y04436D01*
X03673Y04383D02*
Y04436D01*
X03586Y04383D02*
X03673D01*
X03586Y04436D02*
X03673D01*
X03668Y04566D02*
Y04623D01*
X03581Y04566D02*
Y04623D01*
X03668*
X03581Y04566D02*
X03668D01*
X03118Y07778D02*
Y07831D01*
X03031Y07778D02*
Y07831D01*
X03118*
X03031Y07778D02*
X03118D01*
Y08143D02*
Y08196D01*
X03031Y08143D02*
Y08196D01*
X03118*
X03031Y08143D02*
X03118D01*
X03031Y05893D02*
Y05946D01*
X03118Y05893D02*
Y05946D01*
X03031Y05893D02*
X03118D01*
X03031Y05946D02*
X03118D01*
X03031Y06263D02*
Y06316D01*
X03118Y06263D02*
Y06316D01*
X03031Y06263D02*
X03118D01*
X03031Y06316D02*
X03118D01*
Y06623D02*
Y06676D01*
X03031Y06623D02*
Y06676D01*
X03118*
X03031Y06623D02*
X03118D01*
X03031Y06978D02*
Y07031D01*
X03118Y06978D02*
Y07031D01*
X03031Y06978D02*
X03118D01*
X03031Y07031D02*
X03118D01*
Y07338D02*
Y07391D01*
X03031Y07338D02*
Y07391D01*
X03118*
X03031Y07338D02*
X03118D01*
X02571Y05976D02*
Y06033D01*
X02658Y05976D02*
Y06033D01*
X02571Y05976D02*
X02658D01*
X02571Y06033D02*
X02658D01*
X02571Y06701D02*
Y06758D01*
X02658Y06701D02*
Y06758D01*
X02571Y06701D02*
X02658D01*
X02571Y06758D02*
X02658D01*
X02571Y07061D02*
Y07118D01*
X02658Y07061D02*
Y07118D01*
X02571Y07061D02*
X02658D01*
X02571Y07118D02*
X02658D01*
X02571Y07436D02*
Y07493D01*
X02658Y07436D02*
Y07493D01*
X02571Y07436D02*
X02658D01*
X02571Y07493D02*
X02658D01*
Y08201D02*
Y08258D01*
X02571Y08201D02*
Y08258D01*
X02658*
X02571Y08201D02*
X02658D01*
X02261Y05958D02*
Y06011D01*
X02348Y05958D02*
Y06011D01*
X02261Y05958D02*
X02348D01*
X02261Y06011D02*
X02348D01*
X02261Y06323D02*
Y06376D01*
X02348Y06323D02*
Y06376D01*
X02261Y06323D02*
X02348D01*
X02261Y06376D02*
X02348D01*
X02261Y06683D02*
Y06736D01*
X02348Y06683D02*
Y06736D01*
X02261Y06683D02*
X02348D01*
X02261Y06736D02*
X02348D01*
X02261Y07408D02*
Y07461D01*
X02348Y07408D02*
Y07461D01*
X02261Y07408D02*
X02348D01*
X02261Y07461D02*
X02348D01*
X02261Y07053D02*
Y07106D01*
X02348Y07053D02*
Y07106D01*
X02261Y07053D02*
X02348D01*
X02261Y07106D02*
X02348D01*
X02261Y07838D02*
Y07891D01*
X02348Y07838D02*
Y07891D01*
X02261Y07838D02*
X02348D01*
X02261Y07891D02*
X02348D01*
X05178Y03639D02*
Y0371D01*
X05301Y03639D02*
Y0371D01*
X05178Y03639D02*
X05301D01*
X05178Y0371D02*
X05301D01*
X04983Y03639D02*
Y0371D01*
X05106Y03639D02*
Y0371D01*
X04983Y03639D02*
X05106D01*
X04983Y0371D02*
X05106D01*
X05406Y03431D02*
Y03488D01*
X05493Y03431D02*
Y03488D01*
X05406Y03431D02*
X05493D01*
X05406Y03488D02*
X05493D01*
X05678Y03431D02*
Y03488D01*
X05591Y03431D02*
Y03488D01*
X05678*
X05591Y03431D02*
X05678D01*
X03149Y04428D02*
X0337D01*
X03149Y04841D02*
X0337D01*
Y04428D02*
Y04841D01*
X03149Y04428D02*
Y04841D01*
X03897Y04902D02*
X04782D01*
X03897Y04497D02*
X04782D01*
Y04902*
X03897Y04497D02*
Y04902D01*
X05561Y03138D02*
Y03261D01*
X05628Y03138D02*
Y03261D01*
X05561D02*
X05628D01*
X05561Y03138D02*
X05628D01*
X03588Y03788D02*
Y03859D01*
X03721Y03788D02*
Y03859D01*
X03588D02*
X03721D01*
X03588Y03788D02*
X03721D01*
X03983D02*
Y03841D01*
X03896Y03788D02*
Y03841D01*
Y03788D02*
X03983D01*
X03896Y03841D02*
X03983D01*
X04221Y07994D02*
Y08105D01*
X04088Y07994D02*
Y08105D01*
Y07994D02*
X04221D01*
X04088Y08105D02*
X04221D01*
X04891Y07266D02*
X04948D01*
X04891Y07353D02*
X04948D01*
X04891Y07266D02*
Y07353D01*
X04948Y07266D02*
Y07353D01*
X03933Y06784D02*
Y06895D01*
X04066Y06784D02*
Y06895D01*
X03933D02*
X04066D01*
X03933Y06784D02*
X04066D01*
X04598D02*
Y06895D01*
X04731Y06784D02*
Y06895D01*
X04598D02*
X04731D01*
X04598Y06784D02*
X04731D01*
X04438Y07994D02*
Y08105D01*
X04571Y07994D02*
Y08105D01*
X04438D02*
X04571D01*
X04438Y07994D02*
X04571D01*
X05724Y04345D02*
X05845D01*
X05724Y04414D02*
X05845D01*
X05724Y04345D02*
Y04414D01*
X05845Y04345D02*
Y04414D01*
X05861Y03613D02*
Y03666D01*
X05948Y03613D02*
Y03666D01*
X05861D02*
X05948D01*
X05861Y03613D02*
X05948D01*
X05724Y04755D02*
X05845D01*
X05724Y04824D02*
X05845D01*
X05724Y04755D02*
Y04824D01*
X05845Y04755D02*
Y04824D01*
X05948Y03361D02*
Y03418D01*
X05861Y03361D02*
Y03418D01*
Y03361D02*
X05948D01*
X05861Y03418D02*
X05948D01*
X04786Y07626D02*
X04843D01*
X04786Y07713D02*
X04843D01*
Y07626D02*
Y07713D01*
X04786Y07626D02*
Y07713D01*
Y07923D02*
X04843D01*
X04786Y07836D02*
X04843D01*
X04786D02*
Y07923D01*
X04843Y07836D02*
Y07923D01*
X04786Y07533D02*
X04843D01*
X04786Y07446D02*
X04843D01*
X04786D02*
Y07533D01*
X04843Y07446D02*
Y07533D01*
X04786Y07271D02*
X04843D01*
X04786Y07358D02*
X04843D01*
Y07271D02*
Y07358D01*
X04786Y07271D02*
Y07358D01*
X04726Y07121D02*
Y07178D01*
X04813Y07121D02*
Y07178D01*
X04726Y07121D02*
X04813D01*
X04726Y07178D02*
X04813D01*
X04638Y07121D02*
Y07178D01*
X04551Y07121D02*
Y07178D01*
X04638*
X04551Y07121D02*
X04638D01*
X04371D02*
Y07178D01*
X04458Y07121D02*
Y07178D01*
X04371Y07121D02*
X04458D01*
X04371Y07178D02*
X04458D01*
X04283Y07116D02*
Y07173D01*
X04196Y07116D02*
Y07173D01*
X04283*
X04196Y07116D02*
X04283D01*
X04016D02*
Y07173D01*
X04103Y07116D02*
Y07173D01*
X04016Y07116D02*
X04103D01*
X04016Y07173D02*
X04103D01*
X03871Y07228D02*
X03928D01*
X03871Y07141D02*
X03928D01*
X03871D02*
Y07228D01*
X03928Y07141D02*
Y07228D01*
X03871Y07326D02*
X03928D01*
X03871Y07413D02*
X03928D01*
Y07326D02*
Y07413D01*
X03871Y07326D02*
Y07413D01*
Y07603D02*
X03928D01*
X03871Y07516D02*
X03928D01*
X03871D02*
Y07603D01*
X03928Y07516D02*
Y07603D01*
X03871Y07788D02*
X03928D01*
X03871Y07701D02*
X03928D01*
X03871D02*
Y07788D01*
X03928Y07701D02*
Y07788D01*
X03866Y07963D02*
X03923D01*
X03866Y07876D02*
X03923D01*
X03866D02*
Y07963D01*
X03923Y07876D02*
Y07963D01*
X04044Y07264D02*
X04635D01*
X04044Y07855D02*
X04635D01*
Y07264D02*
Y07855D01*
X04044Y07264D02*
Y07855D01*
X03496Y08003D02*
Y08056D01*
X03583Y08003D02*
Y08056D01*
X03496Y08003D02*
X03583D01*
X03496Y08056D02*
X03583D01*
X04748Y08608D02*
X04801D01*
X04748Y08521D02*
X04801D01*
X04748D02*
Y08608D01*
X04801Y08521D02*
Y08608D01*
X04558D02*
X04611D01*
X04558Y08521D02*
X04611D01*
X04558D02*
Y08608D01*
X04611Y08521D02*
Y08608D01*
X02663Y07688D02*
Y07741D01*
X02576Y07688D02*
Y07741D01*
X02663*
X02576Y07688D02*
X02663D01*
X02658Y07861D02*
Y07918D01*
X02571Y07861D02*
Y07918D01*
X02658*
X02571Y07861D02*
X02658D01*
X02663Y08043D02*
Y08096D01*
X02576Y08043D02*
Y08096D01*
X02663*
X02576Y08043D02*
X02663D01*
X02261Y08193D02*
Y08246D01*
X02348Y08193D02*
Y08246D01*
X02261Y08193D02*
X02348D01*
X02261Y08246D02*
X02348D01*
X02576Y07273D02*
Y07326D01*
X02663Y07273D02*
Y07326D01*
X02576Y07273D02*
X02663D01*
X02576Y07326D02*
X02663D01*
X02576Y06898D02*
Y06951D01*
X02663Y06898D02*
Y06951D01*
X02576Y06898D02*
X02663D01*
X02576Y06951D02*
X02663D01*
X02576Y06538D02*
Y06591D01*
X02663Y06538D02*
Y06591D01*
X02576Y06538D02*
X02663D01*
X02576Y06591D02*
X02663D01*
X02576Y06163D02*
Y06216D01*
X02663Y06163D02*
Y06216D01*
X02576Y06163D02*
X02663D01*
X02576Y06216D02*
X02663D01*
X02571Y06336D02*
Y06393D01*
X02658Y06336D02*
Y06393D01*
X02571Y06336D02*
X02658D01*
X02571Y06393D02*
X02658D01*
X02576Y05798D02*
Y05851D01*
X02663Y05798D02*
Y05851D01*
X02576Y05798D02*
X02663D01*
X02576Y05851D02*
X02663D01*
X05001Y03513D02*
Y03566D01*
X05088Y03513D02*
Y03566D01*
X05001Y03513D02*
X05088D01*
X05001Y03566D02*
X05088D01*
X05283Y03513D02*
Y03566D01*
X05196Y03513D02*
Y03566D01*
X05283*
X05196Y03513D02*
X05283D01*
X05391Y03253D02*
X05448D01*
X05391Y03166D02*
X05448D01*
X05391D02*
Y03253D01*
X05448Y03166D02*
Y03253D01*
X05161Y05441D02*
Y05498D01*
X05248Y05441D02*
Y05498D01*
X05161Y05441D02*
X05248D01*
X05161Y05498D02*
X05248D01*
X04078Y05641D02*
Y05698D01*
X03991Y05641D02*
Y05698D01*
X04078*
X03991Y05641D02*
X04078D01*
X04216Y05646D02*
Y05703D01*
X04303Y05646D02*
Y05703D01*
X04216Y05646D02*
X04303D01*
X04216Y05703D02*
X04303D01*
X04411Y05656D02*
Y05713D01*
X04498Y05656D02*
Y05713D01*
X04411Y05656D02*
X04498D01*
X04411Y05713D02*
X04498D01*
X04708Y05651D02*
Y05708D01*
X04621Y05651D02*
Y05708D01*
X04708*
X04621Y05651D02*
X04708D01*
X04661Y06221D02*
X04718D01*
X04661Y06308D02*
X04718D01*
Y06221D02*
Y06308D01*
X04661Y06221D02*
Y06308D01*
X04656Y06021D02*
X04713D01*
X04656Y06108D02*
X04713D01*
Y06021D02*
Y06108D01*
X04656Y06021D02*
Y06108D01*
X04651Y05928D02*
X04708D01*
X04651Y05841D02*
X04708D01*
X04651D02*
Y05928D01*
X04708Y05841D02*
Y05928D01*
X04163Y05878D02*
Y06271D01*
X04556Y05878D02*
Y06271D01*
X04163D02*
X04556D01*
X04163Y05878D02*
X04556D01*
X04006Y05928D02*
X04063D01*
X04006Y05841D02*
X04063D01*
X04006D02*
Y05928D01*
X04063Y05841D02*
Y05928D01*
X04006Y06128D02*
X04063D01*
X04006Y06041D02*
X04063D01*
X04006D02*
Y06128D01*
X04063Y06041D02*
Y06128D01*
X04001Y06246D02*
X04058D01*
X04001Y06333D02*
X04058D01*
Y06246D02*
Y06333D01*
X04001Y06246D02*
Y06333D01*
X02868Y04299D02*
Y0437D01*
X03001Y04299D02*
Y0437D01*
X02868D02*
X03001D01*
X02868Y04299D02*
X03001D01*
G54D123*
X04884Y05842D02*
X04965D01*
X04884D02*
X04965D01*
X04884Y05907D02*
X04965D01*
X04884D02*
X04965D01*
X04861Y05842D02*
Y05907D01*
X04884*
Y05842D02*
Y05907D01*
X04861Y05842D02*
X04884D01*
X04965Y05907D02*
X04988D01*
X04965Y05842D02*
Y05907D01*
X04988Y05842D02*
Y05907D01*
X04965Y05842D02*
X04988D01*
G54D124*
X04223Y03779D02*
X04356D01*
Y0372D02*
Y03779D01*
X04223Y0372D02*
X04356D01*
X04223D02*
Y03779D01*
X02753Y07774D02*
X02886D01*
X02753D02*
Y07832D01*
X02886*
Y07774D02*
Y07832D01*
X02748Y0814D02*
X02881D01*
X02748D02*
Y08199D01*
X02881*
Y0814D02*
Y08199D01*
X02753Y0625D02*
X02886D01*
X02753D02*
Y06309D01*
X02886*
Y0625D02*
Y06309D01*
X02753Y06625D02*
X02886D01*
X02753D02*
Y06684D01*
X02886*
Y06625D02*
Y06684D01*
X02753Y0698D02*
X02886D01*
X02753D02*
Y07039D01*
X02886*
Y0698D02*
Y07039D01*
X02753Y0734D02*
X02886D01*
X02753D02*
Y07399D01*
X02886*
Y0734D02*
Y07399D01*
X03343Y042D02*
X03476D01*
X03343D02*
Y04259D01*
X03476*
Y042D02*
Y04259D01*
X03048Y042D02*
X03181D01*
X03048D02*
Y04259D01*
X03181*
Y042D02*
Y04259D01*
X02753Y0588D02*
X02886D01*
X02753D02*
Y05939D01*
X02886*
Y0588D02*
Y05939D01*
M02*