%FSTAX23Y23*%
%MOIN*%
%SFA1B1*%

%IPPOS*%
%ADD38C,0.003937*%
%ADD123C,0.001969*%
%LNpcb_take2-1-1*%
%LPD*%
G54D38*
X03605Y04835D02*
X03644D01*
X03625Y04815D02*
Y04854D01*
X05025Y07725D02*
Y07764D01*
X05005Y07745D02*
X05044D01*
X0435Y08545D02*
Y08584D01*
X0433Y08565D02*
X04369D01*
X06285Y0414D02*
X06324D01*
X06305Y0412D02*
Y04159D01*
X0628Y04375D02*
X06319D01*
X063Y04355D02*
Y04394D01*
X06265Y04867D02*
X06304D01*
X06285Y04847D02*
Y04886D01*
X0546Y04653D02*
X05499D01*
X0548Y04633D02*
Y04672D01*
X05655Y04885D02*
X05694D01*
X05675Y04865D02*
Y04904D01*
X0627Y04655D02*
X06309D01*
X0629Y04635D02*
Y04674D01*
X0603Y04157D02*
X06069D01*
X0605Y04138D02*
Y04177D01*
X0603Y04375D02*
X06069D01*
X0605Y04355D02*
Y04394D01*
X0602Y04653D02*
X06059D01*
X0604Y04633D02*
Y04672D01*
X06005Y04885D02*
X06044D01*
X06025Y04865D02*
Y04904D01*
X05875Y05138D02*
X05914D01*
X05895Y05118D02*
Y05157D01*
X05535Y0414D02*
X05574D01*
X05555Y0412D02*
Y04159D01*
X05515Y04375D02*
X05554D01*
X05535Y04355D02*
Y04394D01*
X05385Y04886D02*
X05424D01*
X05405Y04867D02*
Y04906D01*
X05535Y05138D02*
X05574D01*
X05555Y05118D02*
Y05157D01*
X0528Y04138D02*
X05319D01*
X053Y04118D02*
Y04157D01*
X0527Y04375D02*
X05309D01*
X0529Y04355D02*
Y04394D01*
X05135Y04655D02*
X05174D01*
X05155Y04635D02*
Y04674D01*
X0514Y04885D02*
X05179D01*
X0516Y04865D02*
Y04904D01*
X0515Y0514D02*
X05189D01*
X0517Y0512D02*
Y05159D01*
X05065Y04275D02*
Y04314D01*
X05045Y04295D02*
X05084D01*
X04035Y0799D02*
X04074D01*
X04055Y0797D02*
Y08009D01*
X04225Y0799D02*
X04264D01*
X04245Y0797D02*
Y08009D01*
X04395Y0799D02*
X04434D01*
X04415Y0797D02*
Y08009D01*
X0459Y0799D02*
X04629D01*
X0461Y0797D02*
Y08009D01*
X0506Y0733D02*
Y07369D01*
X0504Y0735D02*
X05079D01*
X0489Y0563D02*
X04929D01*
X0491Y0561D02*
Y05649D01*
X0455Y06405D02*
X04589D01*
X0457Y06385D02*
Y06424D01*
X0436Y06405D02*
X04399D01*
X0438Y06385D02*
Y06424D01*
X04175Y0641D02*
X04214D01*
X04195Y0639D02*
Y06429D01*
X03945Y08285D02*
Y08324D01*
X03925Y08305D02*
X03964D01*
X0414Y08285D02*
Y08324D01*
X0412Y08305D02*
X04159D01*
X0415Y0859D02*
Y08629D01*
X0413Y0861D02*
X04169D01*
X0524Y05755D02*
X05279D01*
X0526Y05735D02*
Y05774D01*
X0517Y06175D02*
X05209D01*
X0519Y06155D02*
Y06194D01*
X0517Y0656D02*
X05209D01*
X0519Y0654D02*
Y06579D01*
X0337Y04935D02*
X03409D01*
X0339Y04915D02*
Y04954D01*
X02915Y04545D02*
X02954D01*
X02935Y04525D02*
Y04564D01*
X02915Y0476D02*
X02954D01*
X02935Y0474D02*
Y04779D01*
X0291Y0498D02*
X02949D01*
X0293Y0496D02*
Y04999D01*
X0361Y0441D02*
X03649D01*
X0363Y0439D02*
Y04429D01*
X03605Y04595D02*
X03644D01*
X03625Y04575D02*
Y04614D01*
X03055Y07805D02*
X03094D01*
X03075Y07785D02*
Y07824D01*
X03055Y0817D02*
X03094D01*
X03075Y0815D02*
Y08189D01*
X03055Y0592D02*
X03094D01*
X03075Y059D02*
Y05939D01*
X03055Y0629D02*
X03094D01*
X03075Y0627D02*
Y06309D01*
X03055Y0665D02*
X03094D01*
X03075Y0663D02*
Y06669D01*
X03055Y07005D02*
X03094D01*
X03075Y06985D02*
Y07024D01*
X03055Y07365D02*
X03094D01*
X03075Y07345D02*
Y07384D01*
X02595Y06005D02*
X02634D01*
X02615Y05985D02*
Y06024D01*
X02595Y0673D02*
X02634D01*
X02615Y0671D02*
Y06749D01*
X02595Y0709D02*
X02634D01*
X02615Y0707D02*
Y07109D01*
X02595Y07465D02*
X02634D01*
X02615Y07445D02*
Y07484D01*
X02595Y0823D02*
X02634D01*
X02615Y0821D02*
Y08249D01*
X02285Y05985D02*
X02324D01*
X02305Y05965D02*
Y06004D01*
X02285Y0635D02*
X02324D01*
X02305Y0633D02*
Y06369D01*
X02285Y0671D02*
X02324D01*
X02305Y0669D02*
Y06729D01*
X02285Y07435D02*
X02324D01*
X02305Y07415D02*
Y07454D01*
X02285Y0708D02*
X02324D01*
X02305Y0706D02*
Y07099D01*
X02285Y07865D02*
X02324D01*
X02305Y07845D02*
Y07884D01*
X0522Y03675D02*
X05259D01*
X0524Y03655D02*
Y03694D01*
X05025Y03675D02*
X05064D01*
X05045Y03655D02*
Y03694D01*
X0543Y0346D02*
X05469D01*
X0545Y0344D02*
Y03479D01*
X05615Y0346D02*
X05654D01*
X05635Y0344D02*
Y03479D01*
X0326Y04615D02*
Y04654D01*
X0324Y04635D02*
X03279D01*
X0434Y0468D02*
Y04719D01*
X0432Y047D02*
X04359D01*
X05575Y032D02*
X05614D01*
X05595Y0318D02*
Y03219D01*
X03576Y03784D02*
Y03863D01*
X03733Y03784D02*
Y03863D01*
X03576D02*
X03733D01*
X03576Y03784D02*
X03733D01*
X03635Y03823D02*
X03674D01*
X03655Y03804D02*
Y03843D01*
X0392Y03815D02*
X03959D01*
X0394Y03795D02*
Y03834D01*
X04135Y0805D02*
X04174D01*
X04155Y0803D02*
Y08069D01*
X0492Y0729D02*
Y07329D01*
X049Y0731D02*
X04939D01*
X0398Y0684D02*
X04019D01*
X04Y0682D02*
Y06859D01*
X04645Y0684D02*
X04684D01*
X04665Y0682D02*
Y06859D01*
X04485Y0805D02*
X04524D01*
X04505Y0803D02*
Y08069D01*
X05785Y0436D02*
Y04399D01*
X05765Y0438D02*
X05804D01*
X05885Y0364D02*
X05924D01*
X05905Y0362D02*
Y03659D01*
X05785Y0477D02*
Y04809D01*
X05765Y0479D02*
X05804D01*
X05885Y0339D02*
X05924D01*
X05905Y0337D02*
Y03409D01*
X04815Y0765D02*
Y07689D01*
X04795Y0767D02*
X04834D01*
X04815Y0786D02*
Y07899D01*
X04795Y0788D02*
X04834D01*
X04815Y0747D02*
Y07509D01*
X04795Y0749D02*
X04834D01*
X04815Y07295D02*
Y07334D01*
X04795Y07315D02*
X04834D01*
X0475Y0715D02*
X04789D01*
X0477Y0713D02*
Y07169D01*
X04575Y0715D02*
X04614D01*
X04595Y0713D02*
Y07169D01*
X04395Y0715D02*
X04434D01*
X04415Y0713D02*
Y07169D01*
X0422Y07145D02*
X04259D01*
X0424Y07125D02*
Y07164D01*
X0404Y07145D02*
X04079D01*
X0406Y07125D02*
Y07164D01*
X039Y07165D02*
Y07204D01*
X0388Y07185D02*
X03919D01*
X039Y0735D02*
Y07389D01*
X0388Y0737D02*
X03919D01*
X039Y0754D02*
Y07579D01*
X0388Y0756D02*
X03919D01*
X039Y07725D02*
Y07764D01*
X0388Y07745D02*
X03919D01*
X03895Y079D02*
Y07939D01*
X03875Y0792D02*
X03914D01*
X0434Y0754D02*
Y07579D01*
X0432Y0756D02*
X04359D01*
X0352Y0803D02*
X03559D01*
X0354Y0801D02*
Y08049D01*
X04775Y08545D02*
Y08584D01*
X04755Y08565D02*
X04794D01*
X04585Y08545D02*
Y08584D01*
X04565Y08565D02*
X04604D01*
X026Y07715D02*
X02639D01*
X0262Y07695D02*
Y07734D01*
X02595Y0789D02*
X02634D01*
X02615Y0787D02*
Y07909D01*
X026Y0807D02*
X02639D01*
X0262Y0805D02*
Y08089D01*
X02285Y0822D02*
X02324D01*
X02305Y082D02*
Y08239D01*
X026Y073D02*
X02639D01*
X0262Y0728D02*
Y07319D01*
X026Y06925D02*
X02639D01*
X0262Y06905D02*
Y06944D01*
X026Y06565D02*
X02639D01*
X0262Y06545D02*
Y06584D01*
X026Y0619D02*
X02639D01*
X0262Y0617D02*
Y06209D01*
X02595Y06365D02*
X02634D01*
X02615Y06345D02*
Y06384D01*
X026Y05825D02*
X02639D01*
X0262Y05805D02*
Y05844D01*
X05025Y0354D02*
X05064D01*
X05045Y0352D02*
Y03559D01*
X0522Y0354D02*
X05259D01*
X0524Y0352D02*
Y03559D01*
X0542Y0319D02*
Y03229D01*
X054Y0321D02*
X05439D01*
X05185Y0547D02*
X05224D01*
X05205Y0545D02*
Y05489D01*
X04015Y0567D02*
X04054D01*
X04035Y0565D02*
Y05689D01*
X0424Y05675D02*
X04279D01*
X0426Y05655D02*
Y05694D01*
X04435Y05685D02*
X04474D01*
X04455Y05665D02*
Y05704D01*
X04645Y0568D02*
X04684D01*
X04665Y0566D02*
Y05699D01*
X0469Y06245D02*
Y06284D01*
X0467Y06265D02*
X04709D01*
X04685Y06045D02*
Y06084D01*
X04665Y06065D02*
X04704D01*
X0468Y05865D02*
Y05904D01*
X0466Y05885D02*
X04699D01*
X0434Y06075D02*
X04379D01*
X0436Y06055D02*
Y06094D01*
X04035Y05865D02*
Y05904D01*
X04015Y05885D02*
X04054D01*
X04035Y06065D02*
Y06104D01*
X04015Y06085D02*
X04054D01*
X0403Y0627D02*
Y06309D01*
X0401Y0629D02*
X04049D01*
X02856Y04295D02*
Y04374D01*
X03013Y04295D02*
Y04374D01*
X02856D02*
X03013D01*
X02856Y04295D02*
X03013D01*
X02915Y04335D02*
X02954D01*
X02935Y04315D02*
Y04354D01*
G54D123*
X03556Y04795D02*
Y04874D01*
X03693Y04795D02*
Y04874D01*
X03556D02*
X03693D01*
X03556Y04795D02*
X03693D01*
X0495Y07634D02*
X05099D01*
X0495Y07855D02*
X05099D01*
X0495Y07634D02*
Y07855D01*
X05099Y07634D02*
Y07855D01*
X0421Y08409D02*
X04489D01*
X0421Y0872D02*
X04489D01*
X0421Y08409D02*
Y0872D01*
X04489Y08409D02*
Y0872D01*
X06218Y0409D02*
Y04189D01*
X06391Y0409D02*
Y04189D01*
X06218Y0409D02*
X06391D01*
X06218Y04189D02*
X06391D01*
X06213Y04325D02*
Y04424D01*
X06386Y04325D02*
Y04424D01*
X06213Y04325D02*
X06386D01*
X06213Y04424D02*
X06386D01*
X06229Y04835D02*
Y04898D01*
X0634Y04835D02*
Y04898D01*
X06229Y04835D02*
X0634D01*
X06229Y04898D02*
X0634D01*
X05393Y04601D02*
Y04704D01*
X05566Y04601D02*
Y04704D01*
X05393Y04601D02*
X05566D01*
X05393Y04704D02*
X05566D01*
X05761Y04835D02*
Y04934D01*
X05588Y04835D02*
Y04934D01*
X05761*
X05588Y04835D02*
X05761D01*
X06203Y04605D02*
Y04704D01*
X06376Y04605D02*
Y04704D01*
X06203Y04605D02*
X06376D01*
X06203Y04704D02*
X06376D01*
X05994Y04126D02*
Y04189D01*
X06105Y04126D02*
Y04189D01*
X05994Y04126D02*
X06105D01*
X05994Y04189D02*
X06105D01*
X06136Y04325D02*
Y04424D01*
X05963Y04325D02*
Y04424D01*
X06136*
X05963Y04325D02*
X06136D01*
X05953Y04601D02*
Y04704D01*
X06126Y04601D02*
Y04704D01*
X05953Y04601D02*
X06126D01*
X05953Y04704D02*
X06126D01*
X05938Y04835D02*
Y04934D01*
X06111Y04835D02*
Y04934D01*
X05938Y04835D02*
X06111D01*
X05938Y04934D02*
X06111D01*
X05808Y05088D02*
Y05187D01*
X05981Y05088D02*
Y05187D01*
X05808Y05088D02*
X05981D01*
X05808Y05187D02*
X05981D01*
X05468Y0409D02*
Y04189D01*
X05641Y0409D02*
Y04189D01*
X05468Y0409D02*
X05641D01*
X05468Y04189D02*
X05641D01*
X05621Y04325D02*
Y04424D01*
X05448Y04325D02*
Y04424D01*
X05621*
X05448Y04325D02*
X05621D01*
X05491Y04835D02*
Y04938D01*
X05318Y04835D02*
Y04938D01*
X05491*
X05318Y04835D02*
X05491D01*
X05468Y05088D02*
Y05187D01*
X05641Y05088D02*
Y05187D01*
X05468Y05088D02*
X05641D01*
X05468Y05187D02*
X05641D01*
X05213Y04086D02*
Y04189D01*
X05386Y04086D02*
Y04189D01*
X05213Y04086D02*
X05386D01*
X05213Y04189D02*
X05386D01*
X05203Y04325D02*
Y04424D01*
X05376Y04325D02*
Y04424D01*
X05203Y04325D02*
X05376D01*
X05203Y04424D02*
X05376D01*
X05068Y04605D02*
Y04704D01*
X05241Y04605D02*
Y04704D01*
X05068Y04605D02*
X05241D01*
X05068Y04704D02*
X05241D01*
X05073Y04835D02*
Y04934D01*
X05246Y04835D02*
Y04934D01*
X05073Y04835D02*
X05246D01*
X05073Y04934D02*
X05246D01*
X05256Y05088D02*
Y05191D01*
X05083Y05088D02*
Y05191D01*
X05256*
X05083Y05088D02*
X05256D01*
X05013Y04381D02*
X05116D01*
X05013Y04208D02*
X05116D01*
X05013D02*
Y04381D01*
X05116Y04208D02*
Y04381D01*
X03986Y0795D02*
Y08029D01*
X04123Y0795D02*
Y08029D01*
X03986Y0795D02*
X04123D01*
X03986Y08029D02*
X04123D01*
X04313Y0795D02*
Y08029D01*
X04176Y0795D02*
Y08029D01*
X04313*
X04176Y0795D02*
X04313D01*
X04483D02*
Y08029D01*
X04346Y0795D02*
Y08029D01*
X04483*
X04346Y0795D02*
X04483D01*
X04678D02*
Y08029D01*
X04541Y0795D02*
Y08029D01*
X04678*
X04541Y0795D02*
X04678D01*
X04985Y07239D02*
X05134D01*
X04985Y0746D02*
X05134D01*
Y07239D02*
Y0746D01*
X04985Y07239D02*
Y0746D01*
X04965Y056D02*
Y05659D01*
X04854Y056D02*
Y05659D01*
X04965*
X04854Y056D02*
X04965D01*
X04501Y06365D02*
Y06444D01*
X04638Y06365D02*
Y06444D01*
X04501Y06365D02*
X04638D01*
X04501Y06444D02*
X04638D01*
X04448Y06365D02*
Y06444D01*
X04311Y06365D02*
Y06444D01*
X04448*
X04311Y06365D02*
X04448D01*
X04263Y0637D02*
Y06449D01*
X04126Y0637D02*
Y06449D01*
X04263*
X04126Y0637D02*
X04263D01*
X03905Y08373D02*
X03984D01*
X03905Y08236D02*
X03984D01*
X03905D02*
Y08373D01*
X03984Y08236D02*
Y08373D01*
X0411Y08249D02*
X04169D01*
X0411Y0836D02*
X04169D01*
Y08249D02*
Y0836D01*
X0411Y08249D02*
Y0836D01*
X0412Y08554D02*
X04179D01*
X0412Y08665D02*
X04179D01*
Y08554D02*
Y08665D01*
X0412Y08554D02*
Y08665D01*
X05315Y05723D02*
Y05786D01*
X05204Y05723D02*
Y05786D01*
X05315*
X05204Y05723D02*
X05315D01*
X05134Y06143D02*
Y06206D01*
X05245Y06143D02*
Y06206D01*
X05134Y06143D02*
X05245D01*
X05134Y06206D02*
X05245D01*
X05134Y06528D02*
Y06591D01*
X05245Y06528D02*
Y06591D01*
X05134Y06528D02*
X05245D01*
X05134Y06591D02*
X05245D01*
X03476Y04883D02*
Y04986D01*
X03303Y04883D02*
Y04986D01*
X03476*
X03303Y04883D02*
X03476D01*
X02848Y04495D02*
Y04594D01*
X03021Y04495D02*
Y04594D01*
X02848Y04495D02*
X03021D01*
X02848Y04594D02*
X03021D01*
X02848Y0471D02*
Y04809D01*
X03021Y0471D02*
Y04809D01*
X02848Y0471D02*
X03021D01*
X02848Y04809D02*
X03021D01*
X03016Y0493D02*
Y05029D01*
X02843Y0493D02*
Y05029D01*
X03016*
X02843Y0493D02*
X03016D01*
X03574Y0438D02*
Y04439D01*
X03685Y0438D02*
Y04439D01*
X03574Y0438D02*
X03685D01*
X03574Y04439D02*
X03685D01*
X03693Y04555D02*
Y04634D01*
X03556Y04555D02*
Y04634D01*
X03693*
X03556Y04555D02*
X03693D01*
X03161Y07755D02*
Y07854D01*
X02988Y07755D02*
Y07854D01*
X03161*
X02988Y07755D02*
X03161D01*
Y0812D02*
Y08219D01*
X02988Y0812D02*
Y08219D01*
X03161*
X02988Y0812D02*
X03161D01*
X02988Y0587D02*
Y05969D01*
X03161Y0587D02*
Y05969D01*
X02988Y0587D02*
X03161D01*
X02988Y05969D02*
X03161D01*
X02988Y0624D02*
Y06339D01*
X03161Y0624D02*
Y06339D01*
X02988Y0624D02*
X03161D01*
X02988Y06339D02*
X03161D01*
Y066D02*
Y06699D01*
X02988Y066D02*
Y06699D01*
X03161*
X02988Y066D02*
X03161D01*
X02988Y06955D02*
Y07054D01*
X03161Y06955D02*
Y07054D01*
X02988Y06955D02*
X03161D01*
X02988Y07054D02*
X03161D01*
Y07315D02*
Y07414D01*
X02988Y07315D02*
Y07414D01*
X03161*
X02988Y07315D02*
X03161D01*
X02546Y05965D02*
Y06044D01*
X02683Y05965D02*
Y06044D01*
X02546Y05965D02*
X02683D01*
X02546Y06044D02*
X02683D01*
X02546Y0669D02*
Y06769D01*
X02683Y0669D02*
Y06769D01*
X02546Y0669D02*
X02683D01*
X02546Y06769D02*
X02683D01*
X02546Y0705D02*
Y07129D01*
X02683Y0705D02*
Y07129D01*
X02546Y0705D02*
X02683D01*
X02546Y07129D02*
X02683D01*
X02546Y07425D02*
Y07504D01*
X02683Y07425D02*
Y07504D01*
X02546Y07425D02*
X02683D01*
X02546Y07504D02*
X02683D01*
Y0819D02*
Y08269D01*
X02546Y0819D02*
Y08269D01*
X02683*
X02546Y0819D02*
X02683D01*
X02218Y05935D02*
Y06034D01*
X02391Y05935D02*
Y06034D01*
X02218Y05935D02*
X02391D01*
X02218Y06034D02*
X02391D01*
X02218Y063D02*
Y06399D01*
X02391Y063D02*
Y06399D01*
X02218Y063D02*
X02391D01*
X02218Y06399D02*
X02391D01*
X02218Y0666D02*
Y06759D01*
X02391Y0666D02*
Y06759D01*
X02218Y0666D02*
X02391D01*
X02218Y06759D02*
X02391D01*
X02218Y07385D02*
Y07484D01*
X02391Y07385D02*
Y07484D01*
X02218Y07385D02*
X02391D01*
X02218Y07484D02*
X02391D01*
X02218Y0703D02*
Y07129D01*
X02391Y0703D02*
Y07129D01*
X02218Y0703D02*
X02391D01*
X02218Y07129D02*
X02391D01*
X02218Y07815D02*
Y07914D01*
X02391Y07815D02*
Y07914D01*
X02218Y07815D02*
X02391D01*
X02218Y07914D02*
X02391D01*
X05169Y03596D02*
Y03753D01*
X0531Y03596D02*
Y03753D01*
X05169Y03596D02*
X0531D01*
X05169Y03753D02*
X0531D01*
X04974Y03596D02*
Y03753D01*
X05115Y03596D02*
Y03753D01*
X04974Y03596D02*
X05115D01*
X04974Y03753D02*
X05115D01*
X05381Y0342D02*
Y03499D01*
X05518Y0342D02*
Y03499D01*
X05381Y0342D02*
X05518D01*
X05381Y03499D02*
X05518D01*
X05703Y0342D02*
Y03499D01*
X05566Y0342D02*
Y03499D01*
X05703*
X05566Y0342D02*
X05703D01*
X03072Y04418D02*
X03447D01*
X03072Y04851D02*
X03447D01*
Y04418D02*
Y04851D01*
X03072Y04418D02*
Y04851D01*
X03885Y0496D02*
X04794D01*
X03885Y04439D02*
X04794D01*
Y0496*
X03885Y04439D02*
Y0496D01*
X05516Y03129D02*
Y0327D01*
X05673Y03129D02*
Y0327D01*
X05516D02*
X05673D01*
X05516Y03129D02*
X05673D01*
X04026Y03765D02*
Y03864D01*
X03853Y03765D02*
Y03864D01*
Y03765D02*
X04026D01*
X03853Y03864D02*
X04026D01*
X04265Y07975D02*
Y08124D01*
X04044Y07975D02*
Y08124D01*
Y07975D02*
X04265D01*
X04044Y08124D02*
X04265D01*
X0488Y07241D02*
X04959D01*
X0488Y07378D02*
X04959D01*
X0488Y07241D02*
Y07378D01*
X04959Y07241D02*
Y07378D01*
X03889Y06765D02*
Y06914D01*
X0411Y06765D02*
Y06914D01*
X03889D02*
X0411D01*
X03889Y06765D02*
X0411D01*
X04554D02*
Y06914D01*
X04775Y06765D02*
Y06914D01*
X04554D02*
X04775D01*
X04554Y06765D02*
X04775D01*
X04394Y07975D02*
Y08124D01*
X04615Y07975D02*
Y08124D01*
X04394D02*
X04615D01*
X04394Y07975D02*
X04615D01*
X05714Y04301D02*
X05855D01*
X05714Y04458D02*
X05855D01*
X05714Y04301D02*
Y04458D01*
X05855Y04301D02*
Y04458D01*
X05818Y0359D02*
Y03689D01*
X05991Y0359D02*
Y03689D01*
X05818D02*
X05991D01*
X05818Y0359D02*
X05991D01*
X05714Y04711D02*
X05855D01*
X05714Y04868D02*
X05855D01*
X05714Y04711D02*
Y04868D01*
X05855Y04711D02*
Y04868D01*
X05991Y03338D02*
Y03441D01*
X05818Y03338D02*
Y03441D01*
Y03338D02*
X05991D01*
X05818Y03441D02*
X05991D01*
X04775Y07601D02*
X04854D01*
X04775Y07738D02*
X04854D01*
Y07601D02*
Y07738D01*
X04775Y07601D02*
Y07738D01*
Y07948D02*
X04854D01*
X04775Y07811D02*
X04854D01*
X04775D02*
Y07948D01*
X04854Y07811D02*
Y07948D01*
X04775Y07558D02*
X04854D01*
X04775Y07421D02*
X04854D01*
X04775D02*
Y07558D01*
X04854Y07421D02*
Y07558D01*
X04775Y07246D02*
X04854D01*
X04775Y07383D02*
X04854D01*
Y07246D02*
Y07383D01*
X04775Y07246D02*
Y07383D01*
X04701Y0711D02*
Y07189D01*
X04838Y0711D02*
Y07189D01*
X04701Y0711D02*
X04838D01*
X04701Y07189D02*
X04838D01*
X04663Y0711D02*
Y07189D01*
X04526Y0711D02*
Y07189D01*
X04663*
X04526Y0711D02*
X04663D01*
X04346D02*
Y07189D01*
X04483Y0711D02*
Y07189D01*
X04346Y0711D02*
X04483D01*
X04346Y07189D02*
X04483D01*
X04308Y07105D02*
Y07184D01*
X04171Y07105D02*
Y07184D01*
X04308*
X04171Y07105D02*
X04308D01*
X03991D02*
Y07184D01*
X04128Y07105D02*
Y07184D01*
X03991Y07105D02*
X04128D01*
X03991Y07184D02*
X04128D01*
X0386Y07253D02*
X03939D01*
X0386Y07116D02*
X03939D01*
X0386D02*
Y07253D01*
X03939Y07116D02*
Y07253D01*
X0386Y07301D02*
X03939D01*
X0386Y07438D02*
X03939D01*
Y07301D02*
Y07438D01*
X0386Y07301D02*
Y07438D01*
Y07628D02*
X03939D01*
X0386Y07491D02*
X03939D01*
X0386D02*
Y07628D01*
X03939Y07491D02*
Y07628D01*
X0386Y07813D02*
X03939D01*
X0386Y07676D02*
X03939D01*
X0386D02*
Y07813D01*
X03939Y07676D02*
Y07813D01*
X03855Y07988D02*
X03934D01*
X03855Y07851D02*
X03934D01*
X03855D02*
Y07988D01*
X03934Y07851D02*
Y07988D01*
X04005Y07225D02*
X04674D01*
X04005Y07894D02*
X04674D01*
Y07225D02*
Y07894D01*
X04005Y07225D02*
Y07894D01*
X03453Y0798D02*
Y08079D01*
X03626Y0798D02*
Y08079D01*
X03453Y0798D02*
X03626D01*
X03453Y08079D02*
X03626D01*
X04725Y08651D02*
X04824D01*
X04725Y08478D02*
X04824D01*
X04725D02*
Y08651D01*
X04824Y08478D02*
Y08651D01*
X04535D02*
X04634D01*
X04535Y08478D02*
X04634D01*
X04535D02*
Y08651D01*
X04634Y08478D02*
Y08651D01*
X02675Y07685D02*
Y07744D01*
X02564Y07685D02*
Y07744D01*
X02675*
X02564Y07685D02*
X02675D01*
X02683Y0785D02*
Y07929D01*
X02546Y0785D02*
Y07929D01*
X02683*
X02546Y0785D02*
X02683D01*
X02675Y0804D02*
Y08099D01*
X02564Y0804D02*
Y08099D01*
X02675*
X02564Y0804D02*
X02675D01*
X02218Y0817D02*
Y08269D01*
X02391Y0817D02*
Y08269D01*
X02218Y0817D02*
X02391D01*
X02218Y08269D02*
X02391D01*
X02564Y0727D02*
Y07329D01*
X02675Y0727D02*
Y07329D01*
X02564Y0727D02*
X02675D01*
X02564Y07329D02*
X02675D01*
X02564Y06895D02*
Y06954D01*
X02675Y06895D02*
Y06954D01*
X02564Y06895D02*
X02675D01*
X02564Y06954D02*
X02675D01*
X02564Y06535D02*
Y06594D01*
X02675Y06535D02*
Y06594D01*
X02564Y06535D02*
X02675D01*
X02564Y06594D02*
X02675D01*
X02564Y0616D02*
Y06219D01*
X02675Y0616D02*
Y06219D01*
X02564Y0616D02*
X02675D01*
X02564Y06219D02*
X02675D01*
X02546Y06325D02*
Y06404D01*
X02683Y06325D02*
Y06404D01*
X02546Y06325D02*
X02683D01*
X02546Y06404D02*
X02683D01*
X02564Y05795D02*
Y05854D01*
X02675Y05795D02*
Y05854D01*
X02564Y05795D02*
X02675D01*
X02564Y05854D02*
X02675D01*
X04989Y0351D02*
Y03569D01*
X051Y0351D02*
Y03569D01*
X04989Y0351D02*
X051D01*
X04989Y03569D02*
X051D01*
X05295Y0351D02*
Y03569D01*
X05184Y0351D02*
Y03569D01*
X05295*
X05184Y0351D02*
X05295D01*
X0538Y03278D02*
X05459D01*
X0538Y03141D02*
X05459D01*
X0538D02*
Y03278D01*
X05459Y03141D02*
Y03278D01*
X05149Y05438D02*
Y05501D01*
X0526Y05438D02*
Y05501D01*
X05149Y05438D02*
X0526D01*
X05149Y05501D02*
X0526D01*
X04121Y05618D02*
Y05721D01*
X03948Y05618D02*
Y05721D01*
X04121*
X03948Y05618D02*
X04121D01*
X04173Y05623D02*
Y05726D01*
X04346Y05623D02*
Y05726D01*
X04173Y05623D02*
X04346D01*
X04173Y05726D02*
X04346D01*
X04386Y05645D02*
Y05724D01*
X04523Y05645D02*
Y05724D01*
X04386Y05645D02*
X04523D01*
X04386Y05724D02*
X04523D01*
X04751Y05628D02*
Y05731D01*
X04578Y05628D02*
Y05731D01*
X04751*
X04578Y05628D02*
X04751D01*
X04638Y06178D02*
X04741D01*
X04638Y06351D02*
X04741D01*
Y06178D02*
Y06351D01*
X04638Y06178D02*
Y06351D01*
X04633Y05978D02*
X04736D01*
X04633Y06151D02*
X04736D01*
Y05978D02*
Y06151D01*
X04633Y05978D02*
Y06151D01*
X0464Y05953D02*
X04719D01*
X0464Y05816D02*
X04719D01*
X0464D02*
Y05953D01*
X04719Y05816D02*
Y05953D01*
X04143Y05858D02*
Y06291D01*
X04576Y05858D02*
Y06291D01*
X04143D02*
X04576D01*
X04143Y05858D02*
X04576D01*
X03983Y05971D02*
X04086D01*
X03983Y05798D02*
X04086D01*
X03983D02*
Y05971D01*
X04086Y05798D02*
Y05971D01*
X03983Y06171D02*
X04086D01*
X03983Y05998D02*
X04086D01*
X03983D02*
Y06171D01*
X04086Y05998D02*
Y06171D01*
X0399Y06221D02*
X04069D01*
X0399Y06358D02*
X04069D01*
Y06221D02*
Y06358D01*
X0399Y06221D02*
Y06358D01*
M02*