%FSTAX23Y23*%
%MOIN*%
%SFA1B1*%

%IPPOS*%
%ADD38C,0.003937*%
%ADD40C,0.031496*%
%ADD50C,0.059055*%
%ADD57C,0.015748*%
%LNpcb_take2-1-1*%
%LPD*%
G54D38*
X04136Y06172D02*
X04249Y06059D01*
X04452Y05828D02*
Y05842D01*
Y05828D02*
X04598Y05682D01*
X05282*
X05315Y0565*
X0437Y07467D02*
X04385Y07482D01*
Y07647*
X04407Y0767*
X04545*
X04557Y07682*
X04497Y07685D02*
X0451Y077D01*
X04715*
X0511Y07305*
X05222*
X0561Y06917*
Y0644D02*
Y06917D01*
Y0644D02*
X06002Y0605D01*
Y05694D02*
Y0605D01*
X05984Y05675D02*
X06002Y05694D01*
X05404Y05675D02*
X05984D01*
X05315Y05587D02*
X05404Y05675D01*
X05162Y05587D02*
X05315D01*
X05137Y05562D02*
X05162Y05587D01*
X04737Y05562D02*
X05137D01*
X04695Y05605D02*
X04737Y05562D01*
X04506Y05842D02*
Y05889D01*
X0453Y05913*
Y06124*
X04547Y0614*
Y0616*
X04537Y0617D02*
X04547Y0616D01*
X04484Y0617D02*
X04537D01*
X0447Y06185D02*
X04484Y0617D01*
X04485Y05895D02*
Y06137D01*
X0447Y06153D02*
X04485Y06137D01*
X04136Y06172D02*
Y06264D01*
X04162Y0629*
X04092Y06384D02*
X04152Y06322D01*
X04199*
X04217Y06304*
Y06248D02*
Y06304D01*
X0425Y06122D02*
X04392Y05979D01*
Y05619D02*
Y05979D01*
Y05619D02*
X04686Y05325D01*
X04654Y04882D02*
X047Y04928D01*
Y05535*
X04412Y05824D02*
X047Y05535D01*
X04412Y05824D02*
Y05863D01*
X04437Y05887*
Y05899*
X04422Y05914D02*
X04437Y05899D01*
X04422Y05914D02*
Y06006D01*
X0429Y06137D02*
X04422Y06006D01*
X04234Y06137D02*
X0429D01*
X04217Y06122D02*
X04234Y06137D01*
X0428Y05995D02*
Y06035D01*
X04272Y06045D02*
X0428Y06035D01*
X04125Y06045D02*
X04272D01*
X0343Y0674D02*
X04125Y06045D01*
X0343Y0674D02*
Y06914D01*
X04312Y05995D02*
X0433Y05977D01*
Y05959D02*
Y05977D01*
X04319Y05947D02*
X0433Y05959D01*
X04057Y05947D02*
X04319D01*
X03116Y06889D02*
X04057Y05947D01*
X02537Y07285D02*
X03094D01*
X03962Y06416*
X042*
X04264Y06352*
Y06167D02*
Y06352D01*
X0425Y06154D02*
X04264Y06167D01*
X03293Y05784D02*
X04204D01*
X02586Y0649D02*
X03293Y05784D01*
X0591Y0577D02*
X0596Y0572D01*
X05727Y0577D02*
X0591D01*
X05295Y062D02*
X05727Y0577D01*
X04329Y062D02*
X05295D01*
X04312Y06217D02*
X04329Y062D01*
X04312Y06154D02*
X04455Y0601D01*
Y05891D02*
Y0601D01*
Y05891D02*
X04492Y05854D01*
Y05832D02*
Y05854D01*
Y05832D02*
X04496Y05827D01*
X04772*
X04857Y05742*
X05837*
X0586Y0572*
X04185Y0778D02*
X042Y07765D01*
X04287*
X04292Y07769*
Y07817*
X0428Y07829D02*
X04292Y07817D01*
X04125Y07829D02*
X0428D01*
X04094Y0786D02*
X04125Y07829D01*
X03526Y0786D02*
X04094D01*
X02885Y08502D02*
X03526Y0786D01*
X02885Y08502D02*
Y08704D01*
X02867Y08722D02*
X02885Y08704D01*
X02659Y08722D02*
X02867D01*
X0265Y08712D02*
X02659Y08722D01*
X0265Y0864D02*
Y08712D01*
X02632Y08622D02*
X0265Y0864D01*
X02442Y08622D02*
X02632D01*
X024Y0858D02*
X02442Y08622D01*
X0426Y07796D02*
X04277Y0778D01*
X0355Y07796D02*
X0426D01*
X027Y08647D02*
X0355Y07796D01*
X027Y08647D02*
Y0868D01*
X05067Y06892D02*
X0528D01*
X04635Y07324D02*
X05067Y06892D01*
X04502Y07324D02*
X04635D01*
X04482Y07344D02*
X04502Y07324D01*
X04482Y07344D02*
Y07479D01*
X04464Y07497D02*
X04482Y07479D01*
X04434Y07497D02*
X04464D01*
X03033Y06499D02*
X03707Y05825D01*
X04212*
X03527Y07917D02*
X04045D01*
X02917Y08527D02*
X03527Y07917D01*
X02917Y08527D02*
Y0872D01*
X02897Y0874D02*
X02917Y0872D01*
X0226Y0874D02*
X02897D01*
X022Y0868D02*
X0226Y0874D01*
X027Y0858D02*
X03594Y07685D01*
X04213*
X04276Y07749*
X0392Y06307D02*
X0418D01*
X042Y06287*
Y06231D02*
Y06287D01*
Y06231D02*
X04217Y06214D01*
X02175Y05402D02*
X02365D01*
X02957Y0481*
X032*
X03219Y04792*
Y04617D02*
Y04792D01*
Y04617D02*
X03342Y04494D01*
X03084Y04469D02*
X03449D01*
X0225Y05302D02*
X03084Y04469D01*
X0225Y05302D02*
Y05377D01*
X0318Y04622D02*
X03204Y04647D01*
X02976Y04622D02*
X0318D01*
X045Y07776D02*
X04528Y07749D01*
X045Y07776D02*
Y07862D01*
X03732Y0863D02*
X045Y07862D01*
X03525Y0863D02*
X03732D01*
X03475Y0868D02*
X03525Y0863D01*
X02617Y08068D02*
Y0808D01*
Y08068D02*
X02653Y08032D01*
G54D40*
X0409Y0378D02*
X04727D01*
X05187Y03477D02*
X05209Y03455D01*
Y03305D02*
X05265Y0325D01*
X05209Y03305D02*
Y03455D01*
X0503Y03477D02*
X05187D01*
X04727Y0378D02*
X0503Y03477D01*
G54D50*
X0586Y0572D03*
X0596D03*
X027Y0868D03*
Y0858D03*
X024D03*
X022Y0868D03*
X05265Y0325D03*
X03475Y0868D03*
G54D57*
X04452Y05842D03*
X0437Y07467D03*
X04557Y07682D03*
X04497Y07685D03*
X04695Y05605D03*
X04506Y05842D03*
X0447Y06185D03*
X04485Y05895D03*
X0447Y06153D03*
X04502Y06154D03*
X04151Y04847D03*
X0428Y06122D03*
X04281Y06122D03*
X04151Y04837D03*
X04249Y06059D03*
X04162Y0629D03*
X04092Y06384D03*
X04217Y06248D03*
X0425Y06122D03*
X04686Y05325D03*
X04654Y04882D03*
X04217Y06122D03*
X0428Y05995D03*
X0343Y06914D03*
X04312Y05995D03*
X03116Y06889D03*
X02537Y07285D03*
X0425Y06154D03*
X04204Y05784D03*
X02586Y0649D03*
X04312Y06217D03*
Y06154D03*
X04185Y0778D03*
X04277D03*
X0528Y06892D03*
X04434Y07497D03*
X0428Y05965D03*
X03033Y06499D03*
X04212Y05825D03*
X04045Y07917D03*
X04276Y07749D03*
X04502Y06154D03*
X0392Y06307D03*
X04217Y06214D03*
X04281Y05964D03*
X02175Y05402D03*
X03342Y04494D03*
X03449Y04469D03*
X0225Y05377D03*
X04249Y06059D03*
X03204Y04647D03*
X02976Y04622D03*
X05315Y0565D03*
X04528Y07749D03*
X02617Y0808D03*
X02653Y08032D03*
X0409Y0378D03*
M02*