%FSTAX23Y23*%
%MOIN*%
%SFA1B1*%

%IPPOS*%
%AMD112*
4,1,8,0.018700,0.045300,-0.018700,0.045300,-0.041400,0.022600,-0.041400,-0.022600,-0.018700,-0.045300,0.018700,-0.045300,0.041400,-0.022600,0.041400,0.022600,0.018700,0.045300,0.0*
1,1,0.045433,0.018700,0.022600*
1,1,0.045433,-0.018700,0.022600*
1,1,0.045433,-0.018700,-0.022600*
1,1,0.045433,0.018700,-0.022600*
%
%AMD120*
4,1,8,0.029600,-0.029000,0.029600,0.029000,0.019200,0.039400,-0.019200,0.039400,-0.029600,0.029000,-0.029600,-0.029000,-0.019200,-0.039400,0.019200,-0.039400,0.029600,-0.029000,0.0*
1,1,0.020787,0.019200,-0.029000*
1,1,0.020787,0.019200,0.029000*
1,1,0.020787,-0.019200,0.029000*
1,1,0.020787,-0.019200,-0.029000*
%
%ADD82R,0.053268X0.065079*%
%ADD85R,0.118228X0.070984*%
%ADD91R,0.067047X0.067047*%
%ADD99R,0.057205X0.067047*%
%ADD104R,0.065079X0.053268*%
%ADD105R,0.061142X0.069016*%
%ADD109C,0.067047*%
%ADD110R,0.067047X0.067047*%
%ADD111O,0.045394X0.041457*%
G04~CAMADD=112~8~0.0~0.0~828.0~906.7~227.2~0.0~15~0.0~0.0~0.0~0.0~0~0.0~0.0~0.0~0.0~0~0.0~0.0~0.0~0.0~828.0~906.7*
%ADD112D112*%
%ADD113O,0.167992X0.067992*%
%ADD114O,0.067992X0.167992*%
%ADD115O,0.177992X0.067992*%
%ADD116C,0.023740*%
%ADD117R,0.045394X0.061142*%
%ADD118R,0.069016X0.061142*%
%ADD119R,0.041457X0.059173*%
G04~CAMADD=120~8~0.0~0.0~788.6~591.7~103.9~0.0~15~0.0~0.0~0.0~0.0~0~0.0~0.0~0.0~0.0~0~0.0~0.0~0.0~270.0~592.0~788.0*
%ADD120D120*%
%ADD121R,0.059173X0.041457*%
%ADD122R,0.067047X0.057205*%
%LNpcb_take2-1-1*%
%LPD*%
G54D82*
X04019Y0799D03*
X0409D03*
X0428D03*
X04209D03*
X0445D03*
X04379D03*
X04645D03*
X04574D03*
X04534Y06405D03*
X04605D03*
X04415D03*
X04344D03*
X0423Y0641D03*
X04159D03*
X0366Y04595D03*
X03589D03*
X02579Y06005D03*
X0265D03*
X02579Y0673D03*
X0265D03*
X02579Y0709D03*
X0265D03*
X02579Y07465D03*
X0265D03*
Y0823D03*
X02579D03*
X05414Y0346D03*
X05485D03*
X0567D03*
X05599D03*
X04734Y0715D03*
X04805D03*
X0463D03*
X04559D03*
X04379D03*
X0445D03*
X04275Y07145D03*
X04204D03*
X04024D03*
X04095D03*
X0265Y0789D03*
X02579D03*
Y06365D03*
X0265D03*
X04419Y05685D03*
X0449D03*
G54D85*
X0506Y07291D03*
Y07408D03*
G54D91*
X0596Y0562D03*
X0624Y06935D03*
X04967Y0315D03*
X05116D03*
X05265D03*
G54D99*
X06263Y0414D03*
X06346D03*
X06258Y04375D03*
X06341D03*
X05716Y04885D03*
X05633D03*
X06248Y04655D03*
X06331D03*
X06091Y04375D03*
X06008D03*
X05983Y04885D03*
X06066D03*
X05853Y05138D03*
X05936D03*
X05513Y0414D03*
X05596D03*
X05576Y04375D03*
X05493D03*
X05513Y05138D03*
X05596D03*
X05248Y04375D03*
X05331D03*
X05113Y04655D03*
X05196D03*
X05118Y04885D03*
X05201D03*
X02893Y04545D03*
X02976D03*
X02893Y0476D03*
X02976D03*
X02971Y0498D03*
X02888D03*
X03116Y07805D03*
X03033D03*
X03116Y0817D03*
X03033D03*
Y0592D03*
X03116D03*
X03033Y0629D03*
X03116D03*
Y0665D03*
X03033D03*
Y07005D03*
X03116D03*
Y07365D03*
X03033D03*
X02263Y05985D03*
X02346D03*
X02263Y0635D03*
X02346D03*
X02263Y0671D03*
X02346D03*
X02263Y07435D03*
X02346D03*
X02263Y0708D03*
X02346D03*
X02263Y07865D03*
X02346D03*
X03498Y0803D03*
X03581D03*
X02263Y0822D03*
X02346D03*
G54D104*
X03945Y0834D03*
Y08269D03*
X04815Y07634D03*
Y07705D03*
Y07915D03*
Y07844D03*
Y07525D03*
Y07454D03*
Y07279D03*
Y0735D03*
X039Y0722D03*
Y07149D03*
Y07334D03*
Y07405D03*
Y07595D03*
Y07524D03*
Y0778D03*
Y07709D03*
X03895Y07955D03*
Y07884D03*
X0542Y03245D03*
Y03174D03*
X0468Y0592D03*
Y05849D03*
X0403Y06254D03*
Y06325D03*
G54D105*
X0544Y04653D03*
X05519D03*
X06D03*
X06079D03*
X05444Y04886D03*
X05365D03*
X0526Y04138D03*
X05339D03*
X05209Y0514D03*
X0513D03*
X03429Y04935D03*
X0335D03*
X04074Y0567D03*
X03995D03*
X0422Y05675D03*
X04299D03*
X04704Y0568D03*
X04625D03*
G54D109*
X0312Y03805D03*
X0322D03*
X0332D03*
X0586Y0602D03*
X0596D03*
X0586Y0592D03*
X0596D03*
X0586Y0582D03*
X0596D03*
X0586Y0572D03*
X0596D03*
X0586Y0562D03*
X0634Y06935D03*
X0624Y06835D03*
X0634D03*
X0624Y06735D03*
X0634D03*
X0624Y06635D03*
X0634D03*
X0624Y06535D03*
X0634D03*
X0624Y06435D03*
X0634D03*
X0624Y06335D03*
X0634D03*
X0624Y06235D03*
X0634D03*
X0624Y06135D03*
X0634D03*
X0624Y06035D03*
X0634D03*
X05655Y06875D03*
X05755D03*
X027Y0868D03*
Y0858D03*
X026Y0868D03*
Y0858D03*
X025Y0868D03*
Y0858D03*
X024Y0868D03*
Y0858D03*
X023Y0868D03*
Y0858D03*
X022Y0868D03*
X04967Y0325D03*
Y0335D03*
X05116Y0325D03*
Y0335D03*
X0222Y03895D03*
X0212D03*
X05265Y0325D03*
Y0335D03*
X03075Y0868D03*
X03175Y0858D03*
Y0868D03*
X03275Y0858D03*
Y0868D03*
X03375Y0858D03*
Y0868D03*
X03475Y0858D03*
Y0868D03*
X03575Y0858D03*
Y0868D03*
X03675Y0858D03*
Y0868D03*
X0342Y05365D03*
G54D110*
X05555Y06875D03*
X04985Y03835D03*
X05285D03*
X022Y0858D03*
X04575Y03485D03*
X04235D03*
X04575Y03175D03*
X04235D03*
X0232Y03895D03*
X03075Y0858D03*
X0332Y05365D03*
G54D111*
X02215Y05289D03*
Y05465D03*
G54D112*
X02089Y05521D03*
Y05233D03*
G54D113*
X02255Y0336D03*
G54D114*
X02451Y03482D03*
G54D115*
X02255Y03604D03*
G54D116*
X04452Y05842D03*
X04187Y05932D03*
X05299Y06476D03*
X04276Y07812D03*
X0443Y06255D03*
X04187Y05995D03*
X04075Y06005D03*
X04262Y07857D03*
X0437Y07467D03*
X04557Y07682D03*
X04249Y05932D03*
X04465Y05012D03*
X04497Y0497D03*
X04591Y0778D03*
X045Y063D03*
X0447Y0583D03*
X04438Y05964D03*
X04497Y07685D03*
X04695Y05605D03*
X04574Y04539D03*
X04294Y07269D03*
X04495Y07652D03*
X0447Y06122D03*
X04634Y07733D03*
X04607Y05975D03*
X04497Y04517D03*
X0443Y07622D03*
X04533Y06153D03*
X04434Y04517D03*
X0419Y04566D03*
X04506Y05842D03*
X0447Y06185D03*
X04119Y04537D03*
X04485Y05895D03*
X0447Y06153D03*
X04589Y07682D03*
X04502Y06154D03*
X04452Y06494D03*
X04151Y04847D03*
X0428Y06122D03*
X04463Y07622D03*
X04281Y06122D03*
X04151Y04837D03*
X04187Y06059D03*
X04137Y0725D03*
X04497Y07622D03*
X0453Y07624D03*
X04434Y0734D03*
X04217Y06058D03*
X04249Y06059D03*
X04162Y0629D03*
X0456Y07619D03*
X04464Y07588D03*
X04219Y06027D03*
X04088Y05146D03*
X04281Y06217D03*
X04249Y06216D03*
X04115Y06107D03*
X04092Y06384D03*
X04217Y06248D03*
X04088Y0456D03*
X04172Y06244D03*
X0417Y06209D03*
X03787Y05915D03*
X04591Y04437D03*
X04655Y04437D03*
X04217Y06185D03*
X04632Y04602D03*
X04118Y05263D03*
X04217Y06154D03*
X04749Y04557D03*
X0425Y06122D03*
X04686Y05325D03*
X04654Y04882D03*
X04217Y06122D03*
X04265Y05159D03*
X04591Y04824D03*
X04312Y06247D03*
X04317Y05885D03*
X0428Y05995D03*
X0343Y06914D03*
X04312Y05995D03*
X03116Y06889D03*
X04344Y05965D03*
X03116Y0598D03*
X02537Y07285D03*
X0425Y06154D03*
X04532Y05894D03*
X04204Y05784D03*
X02586Y0649D03*
X04594Y05862D03*
X02687Y06068D03*
X04501Y05965D03*
X0538Y05949D03*
X04312Y06217D03*
Y06154D03*
X0425Y05965D03*
X02653Y0795D03*
X04213Y07745D03*
X02653Y07677D03*
X02537Y07715D03*
X04214Y0778D03*
X04119Y07811D03*
X04166Y0788D03*
X04185Y0778D03*
X04249Y0792D03*
X04277Y0778D03*
X0544Y0461D03*
X04344Y05932D03*
X0294Y0508D03*
X02215Y0822D03*
X02212Y07865D03*
Y07435D03*
X02202Y0671D03*
X0382Y0813D03*
X04088Y07277D03*
X03783Y0813D03*
X0464Y05927D03*
X0457Y06045D03*
X05747Y04375D03*
X05716Y04843D03*
X05444Y04845D03*
X05716Y04799D03*
X0576Y04883D03*
X05365Y04845D03*
X05064Y06995D03*
X0528Y06892D03*
X04434Y07497D03*
X04475Y07927D03*
Y0813D03*
X04465Y07374D03*
X04235Y08234D03*
X0412Y07311D03*
X04413Y08407D03*
X04482Y08425D03*
X04592Y07277D03*
X06154Y05362D03*
X04457Y05497D03*
X0294Y04681D03*
X03077Y04291D03*
X03116Y06559D03*
X0318Y04673D03*
X04438Y06122D03*
X04439Y06154D03*
X04217Y05932D03*
X02559Y04585D03*
X02521Y04714D03*
X04217Y05902D03*
X02437Y04497D03*
X04218Y05965D03*
X04217Y05995D03*
X0244Y04672D03*
X04514Y06852D03*
X02586D03*
X04465Y07465D03*
X04344Y06153D03*
X0428Y05965D03*
X04529Y07686D03*
X04437Y06184D03*
X04755Y05774D03*
X03033Y06499D03*
X04212Y05825D03*
X0431Y05965D03*
X04497Y07497D03*
X0455Y06027D03*
X04622Y0475D03*
X04591Y07748D03*
X04407Y05964D03*
X04529Y04882D03*
X0461Y05761D03*
X05173Y05563D03*
X04465Y0479D03*
X04501Y06122D03*
X04639Y05865D03*
X04867Y05782D03*
X04407Y06247D03*
X04917Y05072D03*
X0437Y04525D03*
X04182Y04517D03*
X04355Y04882D03*
X04245Y0475D03*
X04465Y07654D03*
X04555Y06176D03*
X04167Y04965D03*
X04749Y04962D03*
X05221Y06105D03*
X0419Y05622D03*
X04337Y08497D03*
X04362Y08408D03*
X045Y05995D03*
X05065Y04829D03*
X0425Y06185D03*
X03994Y04962D03*
X04187Y06027D03*
X04622Y07649D03*
X04226Y0581D03*
X04249Y05995D03*
X0307Y04697D03*
X05291Y06224D03*
X04439Y05995D03*
X0436Y05512D03*
X0626Y03612D03*
X0429Y05717D03*
X0447Y05996D03*
X05232Y06522D03*
X04222Y0785D03*
X04214Y07811D03*
X04245Y0778D03*
X04146Y07811D03*
X0419Y07854D03*
X04045Y07917D03*
X04276Y07749D03*
X03305Y07857D03*
X0409Y07812D03*
X04077Y05845D03*
X03115Y05879D03*
X04312Y05932D03*
X02714Y06012D03*
X0447Y05965D03*
X04078Y06254D03*
X04119Y0509D03*
X04437Y06287D03*
X04502Y06154D03*
X04407Y06216D03*
X05732Y06047D03*
X04501Y06059D03*
X04465Y07529D03*
X04501Y06027D03*
X0456Y07652D03*
X04217Y07497D03*
X0428Y06059D03*
X04423Y05893D03*
X04056Y04866D03*
X04077Y05916D03*
X04078Y0606D03*
X04344Y06217D03*
X04192Y04882D03*
X04077Y06037D03*
X04195Y06434D03*
X0438Y06384D03*
X0445Y07198D03*
X04344Y06364D03*
X04431D03*
X04432Y0753D03*
X0447Y06216D03*
X03852Y06212D03*
X0425Y06247D03*
X04077Y06124D03*
X04214Y06369D03*
X0392Y06307D03*
X04217Y06214D03*
X04344Y06247D03*
X04465Y07407D03*
X04623Y07268D03*
X03995Y0572D03*
X04291Y05741D03*
X04281Y05964D03*
X04434Y05262D03*
X04228Y05717D03*
X04497Y07432D03*
X04344Y06185D03*
X0428D03*
X04265Y05375D03*
X04277Y04541D03*
X04502Y06185D03*
X0456Y07717D03*
X04647Y06299D03*
X0407Y06333D03*
X04638Y0719D03*
X04395Y04962D03*
X04631Y04882D03*
X04529Y0737D03*
X04285Y08497D03*
X04379Y07206D03*
X04296Y07949D03*
X02175Y05402D03*
X03342Y04494D03*
X03449Y04469D03*
X0225Y05377D03*
X04465Y08407D03*
X04775Y08442D03*
X04559Y07745D03*
X04311Y08327D03*
X04449Y07949D03*
X04312Y08632D03*
X05962Y03347D03*
X05915Y06065D03*
X04605Y06356D03*
X0434Y0497D03*
X04249Y06059D03*
X04245Y04962D03*
X03204Y04647D03*
X02976Y04622D03*
X04337Y08272D03*
X04626Y07815D03*
X05785Y04902D03*
X05575Y04334D03*
X05419Y04175D03*
X05747Y04057D03*
X03429Y04846D03*
X03449Y04519D03*
X04413Y08523D03*
X03449Y04571D03*
X05315Y0565D03*
X0288Y04938D03*
X03009Y0498D03*
X06071Y0461D03*
X0605Y0364D03*
X04528Y07749D03*
X02074Y07097D03*
Y06367D03*
Y06002D03*
X06297Y0458D03*
X02538Y06555D03*
X03498Y08307D03*
X02617Y0808D03*
X02653Y08032D03*
X03213Y04193D03*
X02888Y06249D03*
Y05879D03*
X02538Y0692D03*
X06445Y04D03*
X02893Y06974D03*
X04087Y07839D03*
X03074Y07805D03*
X02904Y07417D03*
X03006Y07654D03*
X06091Y04333D03*
X05539Y04375D03*
X0307Y0817D03*
X02538Y0619D03*
X02537Y05825D03*
X03152Y04192D03*
X0307Y04725D03*
X04922Y035D03*
X0394Y07525D03*
X04309Y07465D03*
X04245Y07529D03*
X04182Y0759D03*
X04434D03*
X0437Y07654D03*
X0277Y03069D03*
X03225D03*
X02522Y04541D03*
X0368Y03069D03*
X03177Y04647D03*
X03448Y04545D03*
X03342Y04622D03*
Y04724D03*
X03448Y0475D03*
X03342Y04775D03*
X0366Y04554D03*
X02174Y05326D03*
X0335Y04892D03*
X03589Y04794D03*
X04327Y03713D03*
X04056Y04437D03*
X03962Y04962D03*
X0434Y04517D03*
X02346Y05943D03*
X02782Y05873D03*
X02579Y05964D03*
X04717Y04517D03*
X05045Y03755D03*
X05107Y04255D03*
X0524Y03755D03*
X02346Y06308D03*
X02782Y06243D03*
X04074Y05712D03*
X02579Y06324D03*
X05379Y03245D03*
X05485Y03419D03*
X04419Y05725D03*
X05599Y03419D03*
X05675Y03237D03*
X05201Y04843D03*
X02346Y06668D03*
X02782Y06618D03*
X04281Y05933D03*
X02579Y06689D03*
X0513Y05097D03*
X04249Y06027D03*
X04407Y05933D03*
X04704Y05722D03*
X04344Y05996D03*
X04501Y05933D03*
X05865Y03347D03*
X05519Y0461D03*
X04281Y06153D03*
X0447Y06027D03*
X05863Y03598D03*
X0447Y06059D03*
X04407Y06185D03*
X05785Y04299D03*
X04642Y06025D03*
X05236Y05508D03*
X02782Y06973D03*
X02346Y07038D03*
X05068Y0565D03*
X02579Y07049D03*
X05316Y05563D03*
X05785Y04709D03*
X04647Y06225D03*
X05228Y05716D03*
X04534Y06364D03*
X0626Y03094D03*
X03941Y06773D03*
X0626Y03639D03*
X02782Y07333D03*
X02346Y07393D03*
X06258Y04333D03*
X05158Y06136D03*
X02579Y07424D03*
X04024Y07185D03*
X0394Y0722D03*
X04606Y06773D03*
X04275Y07185D03*
X0394Y07334D03*
X05158Y06521D03*
X04056Y07276D03*
Y07371D03*
X02782Y07766D03*
X04214Y07308D03*
X02346Y07823D03*
X04151Y07371D03*
X05064Y06795D03*
X0265Y07849D03*
X04088Y07465D03*
X04434Y07308D03*
X04308Y07371D03*
X04734Y0719D03*
X0394Y07595D03*
X04214Y07465D03*
X04497Y07371D03*
X0456Y07339D03*
X04151Y07591D03*
X04434Y07434D03*
X0456Y07371D03*
X04308Y07497D03*
X04465Y07434D03*
X04277Y07528D03*
X04088Y07654D03*
X04623Y07371D03*
X04402Y07497D03*
X04371Y07528D03*
X04855Y07279D03*
X04308Y07591D03*
X04182Y07654D03*
X0394Y0778D03*
X04277Y07622D03*
X04402Y07591D03*
X04591Y07465D03*
X04371Y07622D03*
X04879Y07274D03*
X04182Y07748D03*
X04528Y07591D03*
X04119Y0778D03*
X02777Y08133D03*
X02346Y08178D03*
X04434Y07654D03*
X04056Y07843D03*
X0265Y08189D03*
X03581Y08071D03*
X05126Y07291D03*
X04371Y07748D03*
X04245Y07811D03*
X03935Y07955D03*
X04591Y07654D03*
X04855Y07525D03*
X04528Y07717D03*
X04019Y07949D03*
X04465Y07811D03*
X0456Y0778D03*
X04855Y07634D03*
X04623Y07843D03*
X04213Y08116D03*
X05091Y07686D03*
X04446Y08116D03*
X04645Y07949D03*
X04855Y07915D03*
X03985Y0834D03*
X04465Y08631D03*
X05675Y03162D03*
X0567Y03419D03*
X04245Y07465D03*
X04277Y07497D03*
X04371D03*
X04434Y07465D03*
X04308Y07528D03*
X04277Y07591D03*
X04402Y07528D03*
X04371Y07591D03*
X04308Y07622D03*
X04245Y07654D03*
X04402Y07622D03*
X02522Y04628D03*
X03447Y04193D03*
X03663Y04372D03*
X03962Y04517D03*
X02653Y05787D03*
X04623Y04437D03*
X05078Y03577D03*
X02653Y06152D03*
X04717Y04962D03*
X05196Y04613D03*
X02653Y06527D03*
X0449Y05725D03*
X04625Y05722D03*
X04876Y05592D03*
X02653Y06887D03*
X04159Y06369D03*
X05822Y04393D03*
X04642Y06104D03*
X05822Y04803D03*
X02653Y07262D03*
X04058Y06773D03*
X0394Y07149D03*
X04095Y07185D03*
X04204D03*
X04723Y06773D03*
X02586Y07677D03*
X0394Y07405D03*
X04151Y07308D03*
X04088Y07371D03*
X04559Y0719D03*
X04308Y07308D03*
X04214Y07371D03*
X04182Y07402D03*
X04151Y07465D03*
X04497Y07308D03*
X04308Y07402D03*
X04371D03*
X04434Y07371D03*
X04805Y0719D03*
X04528Y07339D03*
X04088Y07591D03*
X04497Y07402D03*
X0394Y07709D03*
X04591Y07371D03*
X02586Y08032D03*
X04151Y07654D03*
X04528Y07465D03*
X04088Y07717D03*
X05331Y06995D03*
X04855Y0735D03*
X04182Y07717D03*
X04497Y07591D03*
X04056Y07811D03*
X04879Y07345D03*
X03935Y07884D03*
X04308Y07717D03*
X04245Y07748D03*
X04591Y07591D03*
X04371Y07717D03*
X04855Y07454D03*
X04182Y07811D03*
X04528Y07654D03*
X04497Y07717D03*
X04465Y07748D03*
X04371Y07811D03*
X04591Y07717D03*
X05126Y07408D03*
X0409Y07949D03*
X04528Y07811D03*
X04591D03*
X04209Y07949D03*
X04096Y08116D03*
X04855Y07705D03*
X04379Y07949D03*
X04855Y07844D03*
X04574Y07949D03*
X04563Y08116D03*
X05091Y07803D03*
X04177Y08338D03*
X04187Y08643D03*
X04234Y08722D03*
X0426Y08631D03*
X04286Y08722D03*
X04543Y08606D03*
X04733D03*
X05607Y03175D03*
X05444Y03094D03*
X05273Y03587D03*
X0409Y0378D03*
X0524Y03627D03*
X05045D03*
X0536Y03295D03*
X02935Y04349D03*
G54D117*
X06253Y04867D03*
X06316D03*
X06018Y04157D03*
X06081D03*
X05291Y05755D03*
X05228D03*
X05158Y06175D03*
X05221D03*
X05158Y0656D03*
X05221D03*
X05173Y0547D03*
X05236D03*
G54D118*
X05065Y04334D03*
Y04255D03*
X0469Y06225D03*
Y06304D03*
X04685Y06025D03*
Y06104D03*
X04035Y05924D03*
Y05845D03*
Y06124D03*
Y06045D03*
G54D119*
X04943Y0563D03*
X04876D03*
X03596Y0441D03*
X03663D03*
X02653Y07715D03*
X02586D03*
X02653Y0807D03*
X02586D03*
Y073D03*
X02653D03*
X02586Y06925D03*
X02653D03*
X02586Y06565D03*
X02653D03*
X02586Y0619D03*
X02653D03*
X02586Y05825D03*
X02653D03*
X05011Y0354D03*
X05078D03*
X05273D03*
X05206D03*
G54D120*
X04982Y05875D03*
X04867D03*
G54D121*
X0414Y08271D03*
Y08338D03*
X0415Y08576D03*
Y08643D03*
G54D122*
X04775Y08606D03*
Y08523D03*
X04585Y08606D03*
Y08523D03*
M02*