%FSTAX23Y23*%
%MOIN*%
%SFA1B1*%

%IPPOS*%
%ADD56C,0.040000*%
%ADD57C,0.010000*%
%ADD58C,0.047244*%
%ADD59O,0.151811X0.041811*%
%ADD60O,0.041811X0.141811*%
%ADD61O,0.141811X0.041811*%
%ADD62O,0.070866X0.044488*%
%ADD63O,0.045275X0.041339*%
%ADD64C,0.019685*%
%LNpcb_take2-1-1*%
%LPD*%
G54D56*
X02Y03D02*
Y08905D01*
X06724*
Y03D02*
Y08905D01*
X02Y03D02*
X06724D01*
G54D57*
X04465Y0341D02*
Y03703D01*
X0534Y04578*
Y07721*
X04848Y08212D02*
X0534Y07721D01*
X03901Y08212D02*
X04848D01*
X03844Y0827D02*
X03901Y08212D01*
X03844Y0827D02*
Y08727D01*
X03875Y08757*
X04947*
X05488Y08217*
Y04452D02*
Y08217D01*
X04705Y03669D02*
X05488Y04452D01*
X04705Y03413D02*
Y03669D01*
X04701Y0341D02*
X04705Y03413D01*
X04465Y0341D02*
X04701D01*
X0299Y0433D02*
Y06775D01*
X03897Y07682*
X0331Y068D02*
X03975Y07465D01*
X0331Y0427D02*
Y068D01*
Y0427D02*
X0423Y0335D01*
X0299Y0433D02*
X04099Y0322D01*
Y03105D02*
X0423D01*
X03897Y07682D02*
X0393D01*
X04099Y03105D02*
Y0322D01*
X0423Y03105D02*
X043D01*
X0423Y0335D02*
X0428Y033D01*
X043Y03233D02*
Y03263D01*
X0428Y033D02*
X043Y03279D01*
Y03217D02*
Y03233D01*
Y03263D02*
Y03279D01*
Y03105D02*
Y03217D01*
X03977Y07465D02*
X03995Y07482D01*
X03928Y07682D02*
X04471D01*
X04477Y07676*
Y07516D02*
Y07676D01*
X04475Y07515D02*
X04477Y07516D01*
X04475Y07487D02*
Y07515D01*
X04471Y07482D02*
X04475Y07487D01*
X03994Y07482D02*
X04471D01*
G54D58*
X0332Y05365D03*
X0342D03*
X03675Y0868D03*
Y0858D03*
X03575Y0868D03*
Y0858D03*
X03475Y0868D03*
Y0858D03*
X03375Y0868D03*
Y0858D03*
X03275Y0868D03*
Y0858D03*
X03175Y0868D03*
Y0858D03*
X03075D03*
X05265Y0335D03*
Y0325D03*
X0212Y03895D03*
X0222D03*
X0232D03*
X05116Y0335D03*
Y0315D03*
X04967Y0335D03*
Y0325D03*
Y0315D03*
X04575Y03175D03*
X022Y0858D03*
Y0868D03*
X023Y0858D03*
Y0868D03*
X024Y0858D03*
Y0868D03*
X025Y0858D03*
Y0868D03*
X026Y0858D03*
Y0868D03*
X027Y0858D03*
Y0868D03*
X05285Y03835D03*
X04985D03*
X05655Y06875D03*
X05555D03*
X0634Y06035D03*
X0624D03*
X0634Y06135D03*
X0624D03*
X0634Y06235D03*
X0624D03*
X0634Y06335D03*
X0624D03*
X0634Y06435D03*
X0624D03*
X0634Y06535D03*
X0624D03*
X0634Y06635D03*
X0624D03*
X0634Y06735D03*
X0624D03*
X0634Y06835D03*
X0624D03*
X0634Y06935D03*
X0596Y0562D03*
X0586D03*
X0596Y0572D03*
X0586D03*
X0596Y0582D03*
X0586D03*
X0596Y0592D03*
X0586D03*
X0596Y0602D03*
X0586D03*
X0332Y03805D03*
X0322D03*
X0312D03*
G54D59*
X02255Y03604D03*
G54D60*
X02451Y03482D03*
G54D61*
X02255Y0336D03*
G54D62*
X02089Y05216D03*
Y05538D03*
G54D63*
X02215Y05465D03*
Y05289D03*
G54D64*
X05277Y03588D03*
X0394Y03815D03*
X0524Y03628D03*
X05045D03*
X0561Y032D03*
X05675Y03162D03*
X04643Y08697D03*
Y08579D03*
X03966Y08846D03*
X04643Y08382D03*
X04734Y08283D03*
X03978Y08598D03*
X03887Y085D03*
X04855Y07915D03*
X04645Y07949D03*
X04448Y0815D03*
X05091Y07686D03*
X0445Y07949D03*
X04191Y08159D03*
X04623Y07843D03*
X0428Y07949D03*
X04855Y07634D03*
X0456Y0778D03*
X04465Y07811D03*
X04528Y07717D03*
X04855Y07525D03*
X04591Y07654D03*
X03935Y07955D03*
X04245Y07811D03*
X04371Y07748D03*
X05126Y07291D03*
X03581Y08071D03*
X04056Y07843D03*
X04434Y07654D03*
X02346Y08178D03*
X02777Y08133D03*
X04119Y0778D03*
X04528Y07591D03*
X04182Y07748D03*
X04879Y07274D03*
X04371Y07622D03*
X04591Y07465D03*
X04402Y07591D03*
X04277Y07622D03*
X04182Y07654D03*
X04308Y07591D03*
X04855Y07279D03*
X04371Y07528D03*
X04402Y07497D03*
X04623Y07371D03*
X04088Y07654D03*
X04277Y07528D03*
X04465Y07434D03*
X04308Y07497D03*
X0456Y07371D03*
X04434Y07434D03*
X04151Y07591D03*
X0456Y07339D03*
X04497Y07371D03*
X04623Y07276D03*
X04214Y07465D03*
X0394Y07595D03*
X04734Y0719D03*
X04308Y07371D03*
X04434Y07308D03*
X04088Y07465D03*
X0265Y07849D03*
X0463Y0719D03*
X05064Y06795D03*
X04151Y07371D03*
X02346Y07823D03*
X04214Y07308D03*
X02782Y07766D03*
X04056Y07371D03*
Y07276D03*
X05158Y06521D03*
X04606Y06885D03*
X0394Y07334D03*
Y0722D03*
X04024Y07185D03*
X02579Y07424D03*
X05158Y06136D03*
X06258Y04333D03*
X02346Y07393D03*
X02782Y07333D03*
X03939Y06885D03*
X0626Y03639D03*
Y03094D03*
X05228Y05716D03*
X05785Y04709D03*
X05316Y05563D03*
X02579Y07049D03*
X05068Y0565D03*
X02346Y07038D03*
X02782Y06973D03*
X0423Y06369D03*
X05236Y05508D03*
X04642Y06025D03*
X05785Y04299D03*
X04407Y06185D03*
X0447Y06059D03*
X04639Y05849D03*
X05863Y03598D03*
X0447Y06027D03*
X04281Y06153D03*
X05519Y0461D03*
X05865Y03347D03*
X04501Y05933D03*
X0407Y06254D03*
X04344Y05996D03*
X04704Y05722D03*
X04407Y05933D03*
X04249Y06027D03*
X0513Y05097D03*
X02579Y06689D03*
X04281Y05933D03*
X02782Y06618D03*
X02346Y06668D03*
X05201Y04843D03*
X05675Y03237D03*
X05599Y03419D03*
X04419Y05725D03*
X04077Y05924D03*
X05485Y03419D03*
X0422Y05717D03*
X05473Y03274D03*
X02579Y06324D03*
X04074Y05712D03*
X02782Y06243D03*
X02346Y06308D03*
X0524Y03755D03*
X05107Y04255D03*
X04623Y04882D03*
X05045Y03755D03*
X04717Y04517D03*
X04402Y04962D03*
X02579Y05964D03*
X02782Y05873D03*
X02346Y05943D03*
X0434Y04517D03*
X03962Y04962D03*
X04277Y04517D03*
X04056Y04437D03*
X04327Y03713D03*
X03589Y04794D03*
X0335Y04892D03*
X02174Y05326D03*
X0366Y04554D03*
X03342Y04775D03*
X03448Y0475D03*
X03342Y04724D03*
X02912Y04925D03*
X03448Y04545D03*
X0368Y03069D03*
X02522Y04541D03*
X03225Y03069D03*
X0277D03*
X04734Y08717D03*
Y08402D03*
X03888Y08619D03*
Y08461D03*
X03978Y08323D03*
X04371Y07654D03*
X04434Y07591D03*
X04151Y07654D03*
X04183Y07591D03*
X04246Y07529D03*
X04088Y07591D03*
X0394Y07525D03*
X02538Y05825D03*
X02538Y0619D03*
X03071Y0817D03*
X05173Y05563D03*
X03006Y07654D03*
X05444Y04845D03*
X05716Y04843D03*
X02904Y07417D03*
X02893Y06974D03*
X06445Y04D03*
X02538Y0692D03*
X02888Y05879D03*
Y06249D03*
X03213Y04193D03*
X03832Y0813D03*
X02538Y06555D03*
X06297Y0458D03*
X02074Y06002D03*
Y06367D03*
Y07097D03*
X04532Y06122D03*
X05747Y04104D03*
X05786Y04902D03*
X02943Y04678D03*
X03077Y04303D03*
X03887Y08295D03*
X05747Y04375D03*
X06071Y0461D03*
X02971Y05038D03*
X05316Y0565D03*
X03449Y04571D03*
X04439Y05818D03*
X04529Y07749D03*
X06219Y03496D03*
X04368Y05618D03*
X04407Y05965D03*
X04591Y06137D03*
X04267Y07185D03*
X0455Y06364D03*
X04218Y06248D03*
X03912Y06312D03*
X04512Y04558D03*
X04502Y06028D03*
X04465Y07623D03*
X04281Y06122D03*
X0456Y07717D03*
X04435Y07225D03*
X0456Y07623D03*
X0425Y06059D03*
X04308Y05002D03*
X03477Y05834D03*
X04437Y07527D03*
X02538Y07285D03*
X04647Y06193D03*
X04545Y06137D03*
X04434Y04529D03*
X03131Y07749D03*
X04151Y07812D03*
X0265Y08181D03*
X02538Y07715D03*
X04214Y0778D03*
X03956Y07796D03*
X04182Y07779D03*
X04183Y07842D03*
X04027Y07949D03*
X04277Y0778D03*
X04407Y05893D03*
X0544Y04803D03*
X03596Y08544D03*
X0412Y07851D03*
X04734Y08657D03*
X04644Y08677D03*
Y08638D03*
X04168Y08657D03*
X04466Y07371D03*
X04945Y0731D03*
X04592Y07277D03*
X03342Y04614D03*
X03463Y04468D03*
X02286Y05342D03*
X04439Y06154D03*
X04438Y06122D03*
X04439Y06185D03*
X02782Y04585D03*
X04218Y05933D03*
X04344Y06217D03*
X04415Y06332D03*
X04387Y0719D03*
X04497Y07686D03*
X04439Y05965D03*
X04623Y07686D03*
X03888Y06201D03*
X04218Y06216D03*
X0425Y06122D03*
X04686Y04986D03*
X04344Y05966D03*
X04319Y06293D03*
X0567Y0601D03*
X0425Y05996D03*
Y05965D03*
X0412Y07497D03*
X04093Y0614D03*
X04497Y07622D03*
X04115Y06075D03*
X0456Y07654D03*
X04281Y06059D03*
X04376Y06185D03*
X04281Y06217D03*
X04088Y04962D03*
X04502Y06122D03*
X04277Y04882D03*
X04313Y06248D03*
X04119Y05658D03*
X04501Y06154D03*
X04575Y05977D03*
X04528Y04437D03*
X0456Y0502D03*
X04245Y04518D03*
X04501Y06185D03*
X0447Y06248D03*
X04291Y04857D03*
X04312Y05996D03*
X03116Y06884D03*
X0425Y06154D03*
X04599Y0593D03*
X03463Y04859D03*
X05493Y04317D03*
X06091D03*
X04674Y07862D03*
X04748Y08618D03*
X0456Y07749D03*
X04644Y0848D03*
X04529Y07371D03*
X04857Y085D03*
X03071Y04699D03*
X03313Y04678D03*
X03185Y04647D03*
X03449Y04673D03*
X02976Y04504D03*
X0366Y04795D03*
X03343Y04589D03*
X04591Y04963D03*
X04171Y06106D03*
Y0602D03*
X04623Y07531D03*
X04591Y04437D03*
X04186Y06217D03*
X0425Y05886D03*
X04592Y0778D03*
X04218Y05996D03*
X0244Y04693D03*
X02611Y04498D03*
X04138Y05478D03*
X04211Y05894D03*
X02675Y04714D03*
X02384Y05402D03*
X03343Y04494D03*
X03116Y06559D03*
X04336Y05828D03*
X06514Y03455D03*
X0447Y05996D03*
X05433Y05639D03*
X04344Y06256D03*
X04621Y08461D03*
X04446Y0885D03*
X04451Y0792D03*
X04466Y07403D03*
X04811Y05832D03*
X04434Y07497D03*
X0528Y06892D03*
X05064Y06995D03*
X05634Y04844D03*
X05946Y0382D03*
X05366Y04845D03*
X0576Y04883D03*
X05716Y04799D03*
X05576Y04334D03*
X0538Y04138D03*
X04588Y06057D03*
X0464Y0592D03*
X03499Y08307D03*
X03795Y0813D03*
X04088Y07277D03*
X02202Y0671D03*
X02212Y07435D03*
Y07865D03*
X02215Y0822D03*
X03589Y04698D03*
X0294Y05128D03*
X04344Y05933D03*
X04502Y05996D03*
X04277Y07749D03*
X04245Y07843D03*
X04246Y0778D03*
X03712Y08739D03*
X04214Y07859D03*
Y07811D03*
X04151Y07843D03*
X04059Y07946D03*
X04115Y07812D03*
X02653Y07677D03*
X02538Y0808D03*
X04214Y07749D03*
X02653Y08032D03*
X02618Y0808D03*
X03033Y07764D03*
X04088Y07839D03*
X03033Y08121D03*
X04088Y07812D03*
X04407Y06248D03*
X05739Y06041D03*
X04502Y06059D03*
X04281Y06185D03*
X04313Y06185D03*
Y06217D03*
X04439Y05996D03*
X04502Y05965D03*
X02586Y059D03*
X0447Y05965D03*
X04533Y05933D03*
Y05902D03*
X02586Y06423D03*
Y06834D03*
X04541Y06327D03*
X04313Y05879D03*
X03131Y05864D03*
X03033Y06527D03*
X04313Y05965D03*
X03033Y07286D03*
X04281Y05996D03*
X04497Y07434D03*
X04683Y0719D03*
X04263Y04626D03*
X04345Y06184D03*
X04466Y07466D03*
X04343Y06153D03*
X0414Y06143D03*
X03998Y05748D03*
X0442Y05594D03*
X0416Y06137D03*
X04076Y05588D03*
X04749Y04963D03*
X04218Y06154D03*
X04453Y05896D03*
X04686Y04518D03*
X03582Y05647D03*
X04187Y06185D03*
X04218D03*
X04644Y04883D03*
X04088Y04542D03*
X04187Y06248D03*
X0425Y06256D03*
X03957Y06223D03*
X0425Y06216D03*
X04131Y06242D03*
X04141Y05983D03*
X0425Y06185D03*
X04281Y06248D03*
X04141Y05928D03*
X04466Y07591D03*
X04131Y06487D03*
X04218Y06028D03*
X04113Y05979D03*
X04245Y04979D03*
X04165Y06861D03*
X04524Y07623D03*
X04165Y06454D03*
X0403D03*
X0413Y06027D03*
X04174Y04987D03*
X04592Y07681D03*
X03921Y05819D03*
X0447Y06154D03*
X04151Y0474D03*
X04465Y07529D03*
X0447Y06185D03*
X04471Y06217D03*
X04183Y04518D03*
X04645Y07638D03*
X04466Y07654D03*
X04434Y07623D03*
X04465Y04595D03*
X04497Y04544D03*
X0447Y06122D03*
X04415Y06357D03*
X04623Y07749D03*
X04541Y06044D03*
X04592Y07749D03*
X04497Y07654D03*
X04528Y04882D03*
X04497Y04996D03*
X04465Y04882D03*
X04135Y05122D03*
X0456Y07686D03*
X0425Y05933D03*
X04281Y05965D03*
X04206Y05378D03*
X04434Y0503D03*
X04528Y07683D03*
X05299Y06522D03*
X05221D03*
X04187Y05933D03*
X05299Y0626D03*
X04173Y05888D03*
M02*