%FSTAX23Y23*%
%MOIN*%
%SFA1B1*%

%IPPOS*%
%ADD44C,0.007874*%
%ADD45C,0.003937*%
%ADD48R,0.059055X0.059055*%
%ADD49C,0.059055*%
%ADD55C,0.015748*%
%LNpcb_take2-1-1*%
%LPD*%
G54D44*
X03454Y04589D02*
X0366Y04795D01*
X03343Y04589D02*
X03454D01*
X04434Y07591D02*
X04444D01*
X04459Y07575*
X04472*
X04488Y07591*
X04497*
G54D45*
X04543Y077D02*
X0456Y07717D01*
X0444Y077D02*
X04543D01*
X0442Y0768D02*
X0444Y077D01*
X0442Y0724D02*
Y0768D01*
Y0724D02*
X04435Y07225D01*
X04546Y07609D02*
X0456Y07623D01*
X04546Y07312D02*
Y07609D01*
Y07312D02*
X04574Y07284D01*
Y0706D02*
Y07284D01*
X04365Y06851D02*
X04574Y0706D01*
X04365Y06227D02*
Y06851D01*
X04359Y0622D02*
X04365Y06227D01*
X04359Y06064D02*
Y0622D01*
X0434Y06045D02*
X04359Y06064D01*
X04264Y06045D02*
X0434D01*
X0425Y06059D02*
X04264Y06045D01*
X03477Y05834D02*
X04105Y06462D01*
Y07062*
X04251Y07208*
X04453*
X04482Y07237*
X02782Y04585D02*
X03963Y05766D01*
X04208*
X04225Y05783*
Y05926*
X04218Y05933D02*
X04225Y05926D01*
X04344Y06217D02*
X04357Y0623D01*
Y06328*
X04131Y06555D02*
X04357Y06328D01*
X04131Y06555D02*
Y06847D01*
X04482Y07198*
X04437Y07527D02*
X04482Y07482D01*
X04376Y06059D02*
Y06185D01*
X04329Y06012D02*
X04376Y06059D01*
X04192Y06012D02*
X04329D01*
X04185Y06005D02*
X04192Y06012D01*
X0406Y06005D02*
X04185D01*
X0342Y05365D02*
X0406Y06005D01*
X04439Y05844D02*
Y05965D01*
Y05844D02*
X0456Y05722D01*
Y0502D02*
Y05722D01*
X04245Y04518D02*
X04449Y04721D01*
Y05739*
X04425Y05763D02*
X04449Y05739D01*
X04425Y05763D02*
Y05976D01*
X04431Y05982*
X0448*
X04488Y0599*
Y06006*
X04496Y06014*
X04511*
X04516Y06018*
Y0617*
X04501Y06185D02*
X04516Y0617D01*
X04215Y05996D02*
X04218D01*
X04165Y05945D02*
X04215Y05996D01*
X04165Y05929D02*
Y05945D01*
X04144Y05908D02*
X04165Y05929D01*
X0407Y05908D02*
X04144D01*
X02954Y04792D02*
X0407Y05908D01*
X02539Y04792D02*
X02954D01*
X0244Y04693D02*
X02539Y04792D01*
X02611Y04498D02*
X02667Y04442D01*
X03102*
X04138Y05478*
X04188Y05871D02*
X04211Y05894D01*
X04049Y05871D02*
X04188D01*
X02931Y04753D02*
X04049Y05871D01*
X02714Y04753D02*
X02931D01*
X02675Y04714D02*
X02714Y04753D01*
X04329Y06241D02*
X04344Y06256D01*
X04329Y06176D02*
Y06241D01*
X0432Y06167D02*
X04329Y06176D01*
X04144Y06167D02*
X0432D01*
X04126Y0615D02*
X04144Y06167D01*
X04126Y06132D02*
Y0615D01*
X03359Y05365D02*
X04126Y06132D01*
X0332Y05365D02*
X03359D01*
X03033Y08121D02*
X03327Y07827D01*
X04073*
X04088Y07812*
X03582Y05647D02*
Y05648D01*
X04118Y06185*
X04187*
X04165Y06861D02*
X04512Y07208D01*
Y0761*
X04524Y07623*
X04151Y0474D02*
X04196Y04785D01*
Y04971*
X04354Y05129*
Y05668*
X04388Y05702*
Y06009D02*
X04423Y06045D01*
X0448*
X04485Y0605*
Y06168*
X04151Y0474D02*
Y05465D01*
X04388Y05702D02*
Y06009D01*
X0447Y06183D02*
X04485Y06168D01*
X0447Y06183D02*
Y06185D01*
X04415Y06357D02*
Y06869D01*
X04609Y07063*
Y07735*
X04623Y07749*
X04528Y04882D02*
X04583D01*
X0464Y04939*
Y05736*
X04561Y05815D02*
X0464Y05736D01*
X04561Y05815D02*
Y06107D01*
X04591Y06137*
X0493Y06231D02*
X05221Y06522D01*
X04462Y06231D02*
X0493D01*
X04423Y06192D02*
X04462Y06231D01*
X04423Y06065D02*
Y06192D01*
X04368Y0601D02*
X04423Y06065D01*
X04368Y05964D02*
Y0601D01*
X04352Y05948D02*
X04368Y05964D01*
X04202Y05948D02*
X04352D01*
X04187Y05933D02*
X04202Y05948D01*
X04173Y05888D02*
Y0594D01*
X04213Y0598*
X04355*
X04359Y05984*
Y06014*
X04391Y06046*
Y0626*
X04725Y06594*
X05218*
X05236Y06576*
Y06323D02*
Y06576D01*
Y06323D02*
X05299Y0626D01*
X04482Y07198D02*
Y07237D01*
Y07482*
X04151Y05465D02*
X04354Y05668D01*
G54D48*
X0332Y05365D03*
G54D49*
X0342Y05365D03*
G54D55*
X04497Y07591D03*
X04434Y07591D03*
X04591Y06137D03*
X0456Y07717D03*
X04435Y07225D03*
X0456Y07623D03*
X0425Y06059D03*
X03477Y05834D03*
X04437Y07527D03*
X02782Y04585D03*
X04218Y05933D03*
X04344Y06217D03*
X04439Y05965D03*
X04376Y06185D03*
X0456Y0502D03*
X04245Y04518D03*
X04501Y06185D03*
X0366Y04795D03*
X03343Y04589D03*
X04218Y05996D03*
X0244Y04693D03*
X02611Y04498D03*
X04138Y05478D03*
X04211Y05894D03*
X02675Y04714D03*
X04344Y06256D03*
X03033Y08121D03*
X04088Y07812D03*
X03582Y05647D03*
X04187Y06185D03*
X04165Y06861D03*
X04524Y07623D03*
X04151Y0474D03*
X0447Y06185D03*
X04415Y06357D03*
X04623Y07749D03*
X04528Y04882D03*
X05221Y06522D03*
X04187Y05933D03*
X05299Y0626D03*
X04173Y05888D03*
M02*