%FSTAX23Y23*%
%MOIN*%
%SFA1B1*%

%IPPOS*%
%ADD42C,0.010000*%
%ADD47C,0.007874*%
%ADD79C,0.005000*%
%LNpcb_take2-1-1*%
%LPD*%
G54D42*
X0347Y0797D02*
Y0791D01*
X035*
X0351Y0792*
Y0794*
X035Y0795*
X0347*
X0349D02*
X0351Y0797D01*
X03559D02*
Y0791D01*
X0353Y0794*
X03569*
X03589Y0792D02*
X03599Y0791D01*
X03619*
X03629Y0792*
Y0793*
X03619Y0794*
X03629Y0795*
Y0796*
X03619Y0797*
X03599*
X03589Y0796*
Y0795*
X03599Y0794*
X03589Y0793*
Y0792*
X03599Y0794D02*
X03619D01*
X0416Y0839D02*
Y0845D01*
X04131*
X04121Y0844*
Y0842*
X04131Y0841*
X0416*
X04141D02*
X04121Y0839D01*
X04071D02*
Y0845D01*
X04101Y0842*
X04061*
X04041Y0845D02*
X04001D01*
Y0844*
X04041Y084*
Y0839*
X0417Y08695D02*
Y08755D01*
X04141*
X04131Y08745*
Y08725*
X04141Y08715*
X0417*
X04151D02*
X04131Y08695D01*
X04081D02*
Y08755D01*
X04111Y08725*
X04071*
X04011Y08755D02*
X04031Y08745D01*
X04051Y08725*
Y08705*
X04041Y08695*
X04021*
X04011Y08705*
Y08715*
X04021Y08725*
X04051*
X04845Y0849D02*
X04905D01*
Y0852*
X04895Y0853*
X04875*
X04865Y0852*
Y0849*
Y0851D02*
X04845Y0853D01*
Y08579D02*
X04905D01*
X04875Y0855*
Y08589*
X04905Y08649D02*
Y08609D01*
X04875*
X04885Y08629*
Y08639*
X04875Y08649*
X04855*
X04845Y08639*
Y08619*
X04855Y08609*
X0465Y08485D02*
X0471D01*
Y08515*
X047Y08525*
X0468*
X0467Y08515*
Y08485*
Y08505D02*
X0465Y08525D01*
Y08574D02*
X0471D01*
X0468Y08545*
Y08584*
X0465Y08634D02*
X0471D01*
X0468Y08604*
Y08644*
X05632Y05218D02*
Y05277D01*
X05602*
X05593Y05268*
Y05248*
X05602Y05238*
X05632*
X05612D02*
X05593Y05218D01*
X05543D02*
Y05277D01*
X05573Y05248*
X05533*
X05513Y05268D02*
X05503Y05277D01*
X05483*
X05473Y05268*
Y05258*
X05483Y05248*
X05493*
X05483*
X05473Y05238*
Y05228*
X05483Y05218*
X05503*
X05513Y05228*
X05972Y05218D02*
Y05277D01*
X05942*
X05933Y05268*
Y05248*
X05942Y05238*
X05972*
X05952D02*
X05933Y05218D01*
X05883D02*
Y05277D01*
X05913Y05248*
X05873*
X05813Y05218D02*
X05853D01*
X05813Y05258*
Y05268*
X05823Y05277*
X05843*
X05853Y05268*
X06102Y04965D02*
Y05025D01*
X06072*
X06063Y05015*
Y04995*
X06072Y04985*
X06102*
X06082D02*
X06063Y04965D01*
X06013D02*
Y05025D01*
X06043Y04995*
X06003*
X05983Y04965D02*
X05963D01*
X05973*
Y05025*
X05983Y05015*
X06367Y04735D02*
Y04795D01*
X06337*
X06328Y04785*
Y04765*
X06337Y04755*
X06367*
X06347D02*
X06328Y04735D01*
X06278D02*
Y04795D01*
X06308Y04765*
X06268*
X06248Y04785D02*
X06238Y04795D01*
X06218*
X06208Y04785*
Y04745*
X06218Y04735*
X06238*
X06248Y04745*
Y04785*
X05752Y04965D02*
Y05025D01*
X05722*
X05713Y05015*
Y04995*
X05722Y04985*
X05752*
X05732D02*
X05713Y04965D01*
X05693Y05015D02*
X05683Y05025D01*
X05663*
X05653Y05015*
Y05005*
X05663Y04995*
X05673*
X05663*
X05653Y04985*
Y04975*
X05663Y04965*
X05683*
X05693Y04975*
X05633Y05015D02*
X05623Y05025D01*
X05603*
X05593Y05015*
Y05005*
X05603Y04995*
X05593Y04985*
Y04975*
X05603Y04965*
X05623*
X05633Y04975*
Y04985*
X05623Y04995*
X05633Y05005*
Y05015*
X05623Y04995D02*
X05603D01*
X05237Y04965D02*
Y05025D01*
X05207*
X05198Y05015*
Y04995*
X05207Y04985*
X05237*
X05217D02*
X05198Y04965D01*
X05178Y05015D02*
X05168Y05025D01*
X05148*
X05138Y05015*
Y05005*
X05148Y04995*
X05158*
X05148*
X05138Y04985*
Y04975*
X05148Y04965*
X05168*
X05178Y04975*
X05118Y05025D02*
X05078D01*
Y05015*
X05118Y04975*
Y04965*
X05232Y04735D02*
Y04795D01*
X05202*
X05193Y04785*
Y04765*
X05202Y04755*
X05232*
X05212D02*
X05193Y04735D01*
X05173Y04785D02*
X05163Y04795D01*
X05143*
X05133Y04785*
Y04775*
X05143Y04765*
X05153*
X05143*
X05133Y04755*
Y04745*
X05143Y04735*
X05163*
X05173Y04745*
X05073Y04795D02*
X05093Y04785D01*
X05113Y04765*
Y04745*
X05103Y04735*
X05083*
X05073Y04745*
Y04755*
X05083Y04765*
X05113*
X05367Y04455D02*
Y04515D01*
X05337*
X05328Y04505*
Y04485*
X05337Y04475*
X05367*
X05347D02*
X05328Y04455D01*
X05308Y04505D02*
X05298Y04515D01*
X05278*
X05268Y04505*
Y04495*
X05278Y04485*
X05288*
X05278*
X05268Y04475*
Y04465*
X05278Y04455*
X05298*
X05308Y04465*
X05208Y04515D02*
X05248D01*
Y04485*
X05228Y04495*
X05218*
X05208Y04485*
Y04465*
X05218Y04455*
X05238*
X05248Y04465*
X05612Y04455D02*
Y04515D01*
X05582*
X05573Y04505*
Y04485*
X05582Y04475*
X05612*
X05592D02*
X05573Y04455D01*
X05553Y04505D02*
X05543Y04515D01*
X05523*
X05513Y04505*
Y04495*
X05523Y04485*
X05533*
X05523*
X05513Y04475*
Y04465*
X05523Y04455*
X05543*
X05553Y04465*
X05463Y04455D02*
Y04515D01*
X05493Y04485*
X05453*
X06127Y04455D02*
Y04515D01*
X06097*
X06088Y04505*
Y04485*
X06097Y04475*
X06127*
X06107D02*
X06088Y04455D01*
X06068Y04505D02*
X06058Y04515D01*
X06038*
X06028Y04505*
Y04495*
X06038Y04485*
X06048*
X06038*
X06028Y04475*
Y04465*
X06038Y04455*
X06058*
X06068Y04465*
X06008Y04505D02*
X05998Y04515D01*
X05978*
X05968Y04505*
Y04495*
X05978Y04485*
X05988*
X05978*
X05968Y04475*
Y04465*
X05978Y04455*
X05998*
X06008Y04465*
X06382Y0422D02*
Y0428D01*
X06352*
X06343Y0427*
Y0425*
X06352Y0424*
X06382*
X06362D02*
X06343Y0422D01*
X06323Y0427D02*
X06313Y0428D01*
X06293*
X06283Y0427*
Y0426*
X06293Y0425*
X06303*
X06293*
X06283Y0424*
Y0423*
X06293Y0422*
X06313*
X06323Y0423*
X06223Y0422D02*
X06263D01*
X06223Y0426*
Y0427*
X06233Y0428*
X06253*
X06263Y0427*
X06377Y04455D02*
Y04515D01*
X06347*
X06338Y04505*
Y04485*
X06347Y04475*
X06377*
X06357D02*
X06338Y04455D01*
X06318Y04505D02*
X06308Y04515D01*
X06288*
X06278Y04505*
Y04495*
X06288Y04485*
X06298*
X06288*
X06278Y04475*
Y04465*
X06288Y04455*
X06308*
X06318Y04465*
X06258Y04455D02*
X06238D01*
X06248*
Y04515*
X06258Y04505*
X05632Y0422D02*
Y0428D01*
X05602*
X05593Y0427*
Y0425*
X05602Y0424*
X05632*
X05612D02*
X05593Y0422D01*
X05573Y0427D02*
X05563Y0428D01*
X05543*
X05533Y0427*
Y0426*
X05543Y0425*
X05553*
X05543*
X05533Y0424*
Y0423*
X05543Y0422*
X05563*
X05573Y0423*
X05513Y0427D02*
X05503Y0428D01*
X05483*
X05473Y0427*
Y0423*
X05483Y0422*
X05503*
X05513Y0423*
Y0427*
X03152Y06D02*
Y0606D01*
X03122*
X03113Y0605*
Y0603*
X03122Y0602*
X03152*
X03132D02*
X03113Y06D01*
X03053D02*
X03093D01*
X03053Y0604*
Y0605*
X03063Y0606*
X03083*
X03093Y0605*
X03033Y0601D02*
X03023Y06D01*
X03003*
X02993Y0601*
Y0605*
X03003Y0606*
X03023*
X03033Y0605*
Y0604*
X03023Y0603*
X02993*
X03152Y0637D02*
Y0643D01*
X03122*
X03113Y0642*
Y064*
X03122Y0639*
X03152*
X03132D02*
X03113Y0637D01*
X03053D02*
X03093D01*
X03053Y0641*
Y0642*
X03063Y0643*
X03083*
X03093Y0642*
X03033D02*
X03023Y0643D01*
X03003*
X02993Y0642*
Y0641*
X03003Y064*
X02993Y0639*
Y0638*
X03003Y0637*
X03023*
X03033Y0638*
Y0639*
X03023Y064*
X03033Y0641*
Y0642*
X03023Y064D02*
X03003D01*
X03152Y0673D02*
Y0679D01*
X03122*
X03113Y0678*
Y0676*
X03122Y0675*
X03152*
X03132D02*
X03113Y0673D01*
X03053D02*
X03093D01*
X03053Y0677*
Y0678*
X03063Y0679*
X03083*
X03093Y0678*
X03033Y0679D02*
X02993D01*
Y0678*
X03033Y0674*
Y0673*
X03152Y07085D02*
Y07145D01*
X03122*
X03113Y07135*
Y07115*
X03122Y07105*
X03152*
X03132D02*
X03113Y07085D01*
X03053D02*
X03093D01*
X03053Y07125*
Y07135*
X03063Y07145*
X03083*
X03093Y07135*
X02993Y07145D02*
X03013Y07135D01*
X03033Y07115*
Y07095*
X03023Y07085*
X03003*
X02993Y07095*
Y07105*
X03003Y07115*
X03033*
X03152Y07445D02*
Y07505D01*
X03122*
X03113Y07495*
Y07475*
X03122Y07465*
X03152*
X03132D02*
X03113Y07445D01*
X03053D02*
X03093D01*
X03053Y07485*
Y07495*
X03063Y07505*
X03083*
X03093Y07495*
X02993Y07505D02*
X03033D01*
Y07475*
X03013Y07485*
X03003*
X02993Y07475*
Y07455*
X03003Y07445*
X03023*
X03033Y07455*
X02382Y06065D02*
Y06125D01*
X02352*
X02343Y06115*
Y06095*
X02352Y06085*
X02382*
X02362D02*
X02343Y06065D01*
X02283D02*
X02323D01*
X02283Y06105*
Y06115*
X02293Y06125*
X02313*
X02323Y06115*
X02233Y06065D02*
Y06125D01*
X02263Y06095*
X02223*
X02382Y0643D02*
Y0649D01*
X02352*
X02343Y0648*
Y0646*
X02352Y0645*
X02382*
X02362D02*
X02343Y0643D01*
X02283D02*
X02323D01*
X02283Y0647*
Y0648*
X02293Y0649*
X02313*
X02323Y0648*
X02263D02*
X02253Y0649D01*
X02233*
X02223Y0648*
Y0647*
X02233Y0646*
X02243*
X02233*
X02223Y0645*
Y0644*
X02233Y0643*
X02253*
X02263Y0644*
X02382Y0679D02*
Y0685D01*
X02352*
X02343Y0684*
Y0682*
X02352Y0681*
X02382*
X02362D02*
X02343Y0679D01*
X02283D02*
X02323D01*
X02283Y0683*
Y0684*
X02293Y0685*
X02313*
X02323Y0684*
X02223Y0679D02*
X02263D01*
X02223Y0683*
Y0684*
X02233Y0685*
X02253*
X02263Y0684*
X02382Y0716D02*
Y0722D01*
X02352*
X02343Y0721*
Y0719*
X02352Y0718*
X02382*
X02362D02*
X02343Y0716D01*
X02283D02*
X02323D01*
X02283Y072*
Y0721*
X02293Y0722*
X02313*
X02323Y0721*
X02263Y0716D02*
X02243D01*
X02253*
Y0722*
X02263Y0721*
X02382Y07515D02*
Y07575D01*
X02352*
X02343Y07565*
Y07545*
X02352Y07535*
X02382*
X02362D02*
X02343Y07515D01*
X02283D02*
X02323D01*
X02283Y07555*
Y07565*
X02293Y07575*
X02313*
X02323Y07565*
X02263D02*
X02253Y07575D01*
X02233*
X02223Y07565*
Y07525*
X02233Y07515*
X02253*
X02263Y07525*
Y07565*
X0269Y0588D02*
Y0594D01*
X0266*
X0265Y0593*
Y0591*
X0266Y059*
X0269*
X0267D02*
X0265Y0588D01*
X0263D02*
X0261D01*
X0262*
Y0594*
X0263Y0593*
X0258Y0589D02*
X0257Y0588D01*
X0255*
X0254Y0589*
Y0593*
X0255Y0594*
X0257*
X0258Y0593*
Y0592*
X0257Y0591*
X0254*
X02695Y0624D02*
Y063D01*
X02665*
X02655Y0629*
Y0627*
X02665Y0626*
X02695*
X02675D02*
X02655Y0624D01*
X02635D02*
X02615D01*
X02625*
Y063*
X02635Y0629*
X02585D02*
X02575Y063D01*
X02555*
X02545Y0629*
Y0628*
X02555Y0627*
X02545Y0626*
Y0625*
X02555Y0624*
X02575*
X02585Y0625*
Y0626*
X02575Y0627*
X02585Y0628*
Y0629*
X02575Y0627D02*
X02555D01*
X0268Y0661D02*
Y0667D01*
X0265*
X0264Y0666*
Y0664*
X0265Y0663*
X0268*
X0266D02*
X0264Y0661D01*
X0262D02*
X026D01*
X0261*
Y0667*
X0262Y0666*
X0257Y0667D02*
X0253D01*
Y0666*
X0257Y0662*
Y0661*
X0269Y0697D02*
Y0703D01*
X0266*
X0265Y0702*
Y07*
X0266Y0699*
X0269*
X0267D02*
X0265Y0697D01*
X0263D02*
X0261D01*
X0262*
Y0703*
X0263Y0702*
X0254Y0703D02*
X0256Y0702D01*
X0258Y07*
Y0698*
X0257Y0697*
X0255*
X0254Y0698*
Y0699*
X0255Y07*
X0258*
X0269Y0735D02*
Y0741D01*
X0266*
X0265Y074*
Y0738*
X0266Y0737*
X0269*
X0267D02*
X0265Y0735D01*
X0263D02*
X0261D01*
X0262*
Y0741*
X0263Y074*
X0254Y0741D02*
X0258D01*
Y0738*
X0256Y0739*
X0255*
X0254Y0738*
Y0736*
X0255Y0735*
X0257*
X0258Y0736*
X02382Y07945D02*
Y08005D01*
X02352*
X02343Y07995*
Y07975*
X02352Y07965*
X02382*
X02362D02*
X02343Y07945D01*
X02323D02*
X02303D01*
X02313*
Y08005*
X02323Y07995*
X02243Y07945D02*
Y08005D01*
X02273Y07975*
X02233*
X03152Y07885D02*
Y07945D01*
X03122*
X03113Y07935*
Y07915*
X03122Y07905*
X03152*
X03132D02*
X03113Y07885D01*
X03093D02*
X03073D01*
X03083*
Y07945*
X03093Y07935*
X03043D02*
X03033Y07945D01*
X03013*
X03003Y07935*
Y07925*
X03013Y07915*
X03023*
X03013*
X03003Y07905*
Y07895*
X03013Y07885*
X03033*
X03043Y07895*
X03152Y0825D02*
Y0831D01*
X03122*
X03113Y083*
Y0828*
X03122Y0827*
X03152*
X03132D02*
X03113Y0825D01*
X03093D02*
X03073D01*
X03083*
Y0831*
X03093Y083*
X03003Y0825D02*
X03043D01*
X03003Y0829*
Y083*
X03013Y0831*
X03033*
X03043Y083*
X0237Y0831D02*
Y0837D01*
X0234*
X0233Y0836*
Y0834*
X0234Y0833*
X0237*
X0235D02*
X0233Y0831D01*
X0231D02*
X0229D01*
X023*
Y0837*
X0231Y0836*
X0226Y0831D02*
X0224D01*
X0225*
Y0837*
X0226Y0836*
X02685Y07765D02*
Y07825D01*
X02655*
X02645Y07815*
Y07795*
X02655Y07785*
X02685*
X02665D02*
X02645Y07765D01*
X02625D02*
X02605D01*
X02615*
Y07825*
X02625Y07815*
X02575D02*
X02565Y07825D01*
X02545*
X02535Y07815*
Y07775*
X02545Y07765*
X02565*
X02575Y07775*
Y07815*
X02665Y08115D02*
Y08175D01*
X02635*
X02625Y08165*
Y08145*
X02635Y08135*
X02665*
X02645D02*
X02625Y08115D01*
X02605Y08125D02*
X02595Y08115D01*
X02575*
X02565Y08125*
Y08165*
X02575Y08175*
X02595*
X02605Y08165*
Y08155*
X02595Y08145*
X02565*
X03007Y0506D02*
Y0512D01*
X02977*
X02968Y0511*
Y0509*
X02977Y0508*
X03007*
X02987D02*
X02968Y0506D01*
X02948Y0511D02*
X02938Y0512D01*
X02918*
X02908Y0511*
Y051*
X02918Y0509*
X02908Y0508*
Y0507*
X02918Y0506*
X02938*
X02948Y0507*
Y0508*
X02938Y0509*
X02948Y051*
Y0511*
X02938Y0509D02*
X02918D01*
X03675Y0447D02*
Y0453D01*
X03646*
X03636Y0452*
Y045*
X03646Y0449*
X03675*
X03656D02*
X03636Y0447D01*
X03616Y0453D02*
X03576D01*
Y0452*
X03616Y0448*
Y0447*
X03012Y04625D02*
Y04685D01*
X02982*
X02973Y04675*
Y04655*
X02982Y04645*
X03012*
X02992D02*
X02973Y04625D01*
X02913Y04685D02*
X02933Y04675D01*
X02953Y04655*
Y04635*
X02943Y04625*
X02923*
X02913Y04635*
Y04645*
X02923Y04655*
X02953*
X03012Y0484D02*
Y049D01*
X02982*
X02973Y0489*
Y0487*
X02982Y0486*
X03012*
X02992D02*
X02973Y0484D01*
X02913Y049D02*
X02953D01*
Y0487*
X02933Y0488*
X02923*
X02913Y0487*
Y0485*
X02923Y0484*
X02943*
X02953Y0485*
X05095Y0359D02*
Y0365D01*
X05065*
X05055Y0364*
Y0362*
X05065Y0361*
X05095*
X05075D02*
X05055Y0359D01*
X05005D02*
Y0365D01*
X05035Y0362*
X04995*
X05285Y03585D02*
Y03645D01*
X05255*
X05245Y03635*
Y03615*
X05255Y03605*
X05285*
X05265D02*
X05245Y03585D01*
X05185D02*
X05225D01*
X05185Y03625*
Y03635*
X05195Y03645*
X05215*
X05225Y03635*
X04955Y0569D02*
Y0575D01*
X04926*
X04916Y0574*
Y0572*
X04926Y0571*
X04955*
X04936D02*
X04916Y0569D01*
X04896D02*
X04876D01*
X04886*
Y0575*
X04896Y0574*
X04968Y0601D02*
X05007D01*
Y0598*
X04987*
X05007*
Y0595*
X04948Y0601D02*
Y0595D01*
X04918*
X04908Y0596*
Y0597*
X04918Y0598*
X04948*
X04918*
X04908Y0599*
Y06*
X04918Y0601*
X04948*
X04848Y0595D02*
X04888D01*
X04848Y0599*
Y06*
X04858Y0601*
X04878*
X04888Y06*
X03935Y08455D02*
X03945Y08465D01*
X03965*
X03975Y08455*
Y08415*
X03965Y08405*
X03945*
X03935Y08415*
X03875Y08465D02*
X03895Y08455D01*
X03915Y08435*
Y08415*
X03905Y08405*
X03885*
X03875Y08415*
Y08425*
X03885Y08435*
X03915*
X03855Y08455D02*
X03845Y08465D01*
X03825*
X03815Y08455*
Y08445*
X03825Y08435*
X03815Y08425*
Y08415*
X03825Y08405*
X03845*
X03855Y08415*
Y08425*
X03845Y08435*
X03855Y08445*
Y08455*
X03845Y08435D02*
X03825D01*
X06291Y04979D02*
X06301Y04989D01*
X0632*
X0633Y04979*
Y04939*
X0632Y04929*
X06301*
X06291Y04939*
X06231Y04989D02*
X06251Y04979D01*
X06271Y04959*
Y04939*
X06261Y04929*
X06241*
X06231Y04939*
Y04949*
X06241Y04959*
X06271*
X06171Y04989D02*
X06211D01*
Y04959*
X06191Y04969*
X06181*
X06171Y04959*
Y04939*
X06181Y04929*
X06201*
X06211Y04939*
X05443Y05018D02*
X05452Y05028D01*
X05472*
X05482Y05018*
Y04978*
X05472Y04968*
X05452*
X05443Y04978*
X05383Y05028D02*
X05403Y05018D01*
X05423Y04998*
Y04978*
X05413Y04968*
X05393*
X05383Y04978*
Y04988*
X05393Y04998*
X05423*
X05333Y04968D02*
Y05028D01*
X05363Y04998*
X05323*
X06078Y04785D02*
X06087Y04795D01*
X06107*
X06117Y04785*
Y04745*
X06107Y04735*
X06087*
X06078Y04745*
X06018Y04795D02*
X06038Y04785D01*
X06058Y04765*
Y04745*
X06048Y04735*
X06028*
X06018Y04745*
Y04755*
X06028Y04765*
X06058*
X05998Y04735D02*
X05978D01*
X05988*
Y04795*
X05998Y04785*
X06056Y04269D02*
X06066Y04279D01*
X06085*
X06095Y04269*
Y04229*
X06085Y04219*
X06066*
X06056Y04229*
X05996Y04279D02*
X06016Y04269D01*
X06036Y04249*
Y04229*
X06026Y04219*
X06006*
X05996Y04229*
Y04239*
X06006Y04249*
X06036*
X05976Y04269D02*
X05966Y04279D01*
X05946*
X05936Y04269*
Y04229*
X05946Y04219*
X05966*
X05976Y04229*
Y04269*
X05338Y0427D02*
X05347Y0428D01*
X05367*
X05377Y0427*
Y0423*
X05367Y0422*
X05347*
X05338Y0423*
X05278Y0428D02*
X05318D01*
Y0425*
X05298Y0426*
X05288*
X05278Y0425*
Y0423*
X05288Y0422*
X05308*
X05318Y0423*
X05258D02*
X05248Y0422D01*
X05228*
X05218Y0423*
Y0427*
X05228Y0428*
X05248*
X05258Y0427*
Y0426*
X05248Y0425*
X05218*
X02635Y06125D02*
X02645Y06135D01*
X02665*
X02675Y06125*
Y06085*
X02665Y06075*
X02645*
X02635Y06085*
X02575Y06135D02*
X02615D01*
Y06105*
X02595Y06115*
X02585*
X02575Y06105*
Y06085*
X02585Y06075*
X02605*
X02615Y06085*
X02555Y06125D02*
X02545Y06135D01*
X02525*
X02515Y06125*
Y06115*
X02525Y06105*
X02515Y06095*
Y06085*
X02525Y06075*
X02545*
X02555Y06085*
Y06095*
X02545Y06105*
X02555Y06115*
Y06125*
X02545Y06105D02*
X02525D01*
X02645Y0647D02*
X02655Y0648D01*
X02675*
X02685Y0647*
Y0643*
X02675Y0642*
X02655*
X02645Y0643*
X02585Y0648D02*
X02625D01*
Y0645*
X02605Y0646*
X02595*
X02585Y0645*
Y0643*
X02595Y0642*
X02615*
X02625Y0643*
X02565Y0648D02*
X02525D01*
Y0647*
X02565Y0643*
Y0642*
X02635Y0685D02*
X02645Y0686D01*
X02665*
X02675Y0685*
Y0681*
X02665Y068*
X02645*
X02635Y0681*
X02575Y0686D02*
X02615D01*
Y0683*
X02595Y0684*
X02585*
X02575Y0683*
Y0681*
X02585Y068*
X02605*
X02615Y0681*
X02515Y0686D02*
X02535Y0685D01*
X02555Y0683*
Y0681*
X02545Y068*
X02525*
X02515Y0681*
Y0682*
X02525Y0683*
X02555*
X02635Y0721D02*
X02645Y0722D01*
X02665*
X02675Y0721*
Y0717*
X02665Y0716*
X02645*
X02635Y0717*
X02575Y0722D02*
X02615D01*
Y0719*
X02595Y072*
X02585*
X02575Y0719*
Y0717*
X02585Y0716*
X02605*
X02615Y0717*
X02515Y0722D02*
X02555D01*
Y0719*
X02535Y072*
X02525*
X02515Y0719*
Y0717*
X02525Y0716*
X02545*
X02555Y0717*
X02635Y07585D02*
X02645Y07595D01*
X02665*
X02675Y07585*
Y07545*
X02665Y07535*
X02645*
X02635Y07545*
X02575Y07595D02*
X02615D01*
Y07565*
X02595Y07575*
X02585*
X02575Y07565*
Y07545*
X02585Y07535*
X02605*
X02615Y07545*
X02525Y07535D02*
Y07595D01*
X02555Y07565*
X02515*
X02655Y07995D02*
X02665Y08005D01*
X02685*
X02695Y07995*
Y07955*
X02685Y07945*
X02665*
X02655Y07955*
X02595Y08005D02*
X02635D01*
Y07975*
X02615Y07985*
X02605*
X02595Y07975*
Y07955*
X02605Y07945*
X02625*
X02635Y07955*
X02575Y07995D02*
X02565Y08005D01*
X02545*
X02535Y07995*
Y07985*
X02545Y07975*
X02555*
X02545*
X02535Y07965*
Y07955*
X02545Y07945*
X02565*
X02575Y07955*
X02635Y0835D02*
X02645Y0836D01*
X02665*
X02675Y0835*
Y0831*
X02665Y083*
X02645*
X02635Y0831*
X02575Y0836D02*
X02615D01*
Y0833*
X02595Y0834*
X02585*
X02575Y0833*
Y0831*
X02585Y083*
X02605*
X02615Y0831*
X02515Y083D02*
X02555D01*
X02515Y0834*
Y0835*
X02525Y0836*
X02545*
X02555Y0835*
X03645Y04715D02*
X03655Y04725D01*
X03675*
X03685Y04715*
Y04675*
X03675Y04665*
X03655*
X03645Y04675*
X03585Y04725D02*
X03625D01*
Y04695*
X03605Y04705*
X03595*
X03585Y04695*
Y04675*
X03595Y04665*
X03615*
X03625Y04675*
X03565Y04665D02*
X03545D01*
X03555*
Y04725*
X03565Y04715*
X03428Y05066D02*
X03437Y05076D01*
X03457*
X03467Y05066*
Y05027*
X03457Y05017*
X03437*
X03428Y05027*
X03368Y05076D02*
X03408D01*
Y05047*
X03388Y05056*
X03378*
X03368Y05047*
Y05027*
X03378Y05017*
X03398*
X03408Y05027*
X03348Y05066D02*
X03338Y05076D01*
X03318*
X03308Y05066*
Y05027*
X03318Y05017*
X03338*
X03348Y05027*
Y05066*
X0547Y0358D02*
X0548Y0359D01*
X055*
X0551Y0358*
Y0354*
X055Y0353*
X0548*
X0547Y0354*
X0542Y0353D02*
Y0359D01*
X0545Y0356*
X0541*
X0535Y0359D02*
X0539D01*
Y0356*
X0537Y0357*
X0536*
X0535Y0356*
Y0354*
X0536Y0353*
X0538*
X0539Y0354*
X0545Y0336D02*
X0546Y0337D01*
X0548*
X0549Y0336*
Y0332*
X0548Y0331*
X0546*
X0545Y0332*
X054Y0331D02*
Y0337D01*
X0543Y0334*
X0539*
X0534Y0331D02*
Y0337D01*
X0537Y0334*
X0533*
X05655Y0358D02*
X05665Y0359D01*
X05685*
X05695Y0358*
Y0354*
X05685Y0353*
X05665*
X05655Y0354*
X05605Y0353D02*
Y0359D01*
X05635Y0356*
X05595*
X05575Y0358D02*
X05565Y0359D01*
X05545*
X05535Y0358*
Y0357*
X05545Y0356*
X05555*
X05545*
X05535Y0355*
Y0354*
X05545Y0353*
X05565*
X05575Y0354*
X05175Y05375D02*
X05165Y05365D01*
X05145*
X05135Y05375*
Y05415*
X05145Y05425*
X05165*
X05175Y05415*
X05224Y05425D02*
Y05365D01*
X05195Y05395*
X05234*
X05294Y05425D02*
X05254D01*
X05294Y05385*
Y05375*
X05284Y05365*
X05264*
X05254Y05375*
X05266Y05866D02*
X05276Y05876D01*
X05295*
X05305Y05866*
Y05827*
X05295Y05817*
X05276*
X05266Y05827*
X05216Y05817D02*
Y05876D01*
X05246Y05847*
X05206*
X05186Y05817D02*
X05166D01*
X05176*
Y05876*
X05186Y05866*
X05196Y06286D02*
X05206Y06296D01*
X05225*
X05235Y06286*
Y06247*
X05225Y06237*
X05206*
X05196Y06247*
X05146Y06237D02*
Y06296D01*
X05176Y06267*
X05136*
X05116Y06286D02*
X05106Y06296D01*
X05086*
X05076Y06286*
Y06247*
X05086Y06237*
X05106*
X05116Y06247*
Y06286*
X05196Y06671D02*
X05206Y06681D01*
X05225*
X05235Y06671*
Y06632*
X05225Y06622*
X05206*
X05196Y06632*
X05176Y06671D02*
X05166Y06681D01*
X05146*
X05136Y06671*
Y06661*
X05146Y06652*
X05156*
X05146*
X05136Y06642*
Y06632*
X05146Y06622*
X05166*
X05176Y06632*
X05116D02*
X05106Y06622D01*
X05086*
X05076Y06632*
Y06671*
X05086Y06681*
X05106*
X05116Y06671*
Y06661*
X05106Y06652*
X05076*
X03915Y0613D02*
X03905Y0614D01*
Y0616*
X03915Y0617*
X03955*
X03965Y0616*
Y0614*
X03955Y0613*
X03915Y0611D02*
X03905Y061D01*
Y0608*
X03915Y0607*
X03925*
X03935Y0608*
Y0609*
Y0608*
X03945Y0607*
X03955*
X03965Y0608*
Y061*
X03955Y0611*
X03915Y0605D02*
X03905Y0604D01*
Y0602*
X03915Y0601*
X03925*
X03935Y0602*
X03945Y0601*
X03955*
X03965Y0602*
Y0604*
X03955Y0605*
X03945*
X03935Y0604*
X03925Y0605*
X03915*
X03935Y0604D02*
Y0602D01*
X0392Y05915D02*
X0391Y05925D01*
Y05945*
X0392Y05955*
X0396*
X0397Y05945*
Y05925*
X0396Y05915*
X0392Y05895D02*
X0391Y05885D01*
Y05865*
X0392Y05855*
X0393*
X0394Y05865*
Y05875*
Y05865*
X0395Y05855*
X0396*
X0397Y05865*
Y05885*
X0396Y05895*
X0391Y05835D02*
Y05795D01*
X0392*
X0396Y05835*
X0397*
X04765Y06305D02*
X04755Y06315D01*
Y06335*
X04765Y06345*
X04805*
X04815Y06335*
Y06315*
X04805Y06305*
X04765Y06285D02*
X04755Y06275D01*
Y06255*
X04765Y06245*
X04775*
X04785Y06255*
Y06265*
Y06255*
X04795Y06245*
X04805*
X04815Y06255*
Y06275*
X04805Y06285*
X04755Y06185D02*
X04765Y06205D01*
X04785Y06225*
X04805*
X04815Y06215*
Y06195*
X04805Y06185*
X04795*
X04785Y06195*
Y06225*
X0476Y06105D02*
X0475Y06115D01*
Y06135*
X0476Y06145*
X048*
X0481Y06135*
Y06115*
X048Y06105*
X0476Y06085D02*
X0475Y06075D01*
Y06055*
X0476Y06045*
X0477*
X0478Y06055*
Y06065*
Y06055*
X0479Y06045*
X048*
X0481Y06055*
Y06075*
X048Y06085*
X0475Y05985D02*
Y06025D01*
X0478*
X0477Y06005*
Y05995*
X0478Y05985*
X048*
X0481Y05995*
Y06015*
X048Y06025*
X04625Y05565D02*
X04615Y05555D01*
X04595*
X04585Y05565*
Y05605*
X04595Y05615*
X04615*
X04625Y05605*
X04645Y05565D02*
X04654Y05555D01*
X04674*
X04684Y05565*
Y05575*
X04674Y05585*
X04664*
X04674*
X04684Y05595*
Y05605*
X04674Y05615*
X04654*
X04645Y05605*
X04734Y05615D02*
Y05555D01*
X04704Y05585*
X04744*
X03985Y05555D02*
X03975Y05545D01*
X03955*
X03945Y05555*
Y05595*
X03955Y05605*
X03975*
X03985Y05595*
X04005Y05555D02*
X04014Y05545D01*
X04034*
X04044Y05555*
Y05565*
X04034Y05575*
X04024*
X04034*
X04044Y05585*
Y05595*
X04034Y05605*
X04014*
X04005Y05595*
X04064Y05555D02*
X04074Y05545D01*
X04094*
X04104Y05555*
Y05565*
X04094Y05575*
X04084*
X04094*
X04104Y05585*
Y05595*
X04094Y05605*
X04074*
X04064Y05595*
X0422Y05565D02*
X0421Y05555D01*
X0419*
X0418Y05565*
Y05605*
X0419Y05615*
X0421*
X0422Y05605*
X0424Y05565D02*
X04249Y05555D01*
X04269*
X04279Y05565*
Y05575*
X04269Y05585*
X04259*
X04269*
X04279Y05595*
Y05605*
X04269Y05615*
X04249*
X0424Y05605*
X04339Y05615D02*
X04299D01*
X04339Y05575*
Y05565*
X04329Y05555*
X04309*
X04299Y05565*
X04425Y05575D02*
X04415Y05565D01*
X04395*
X04385Y05575*
Y05615*
X04395Y05625*
X04415*
X04425Y05615*
X04445Y05575D02*
X04454Y05565D01*
X04474*
X04484Y05575*
Y05585*
X04474Y05595*
X04464*
X04474*
X04484Y05605*
Y05615*
X04474Y05625*
X04454*
X04445Y05615*
X04504Y05625D02*
X04524D01*
X04514*
Y05565*
X04504Y05575*
X0459Y06525D02*
X046Y06535D01*
X0462*
X0463Y06525*
Y06485*
X0462Y06475*
X046*
X0459Y06485*
X0457Y06525D02*
X0456Y06535D01*
X0454*
X0453Y06525*
Y06515*
X0454Y06505*
X0455*
X0454*
X0453Y06495*
Y06485*
X0454Y06475*
X0456*
X0457Y06485*
X0451Y06525D02*
X045Y06535D01*
X0448*
X0447Y06525*
Y06485*
X0448Y06475*
X045*
X0451Y06485*
Y06525*
X04215Y0653D02*
X04225Y0654D01*
X04245*
X04255Y0653*
Y0649*
X04245Y0648*
X04225*
X04215Y0649*
X04155Y0648D02*
X04195D01*
X04155Y0652*
Y0653*
X04165Y0654*
X04185*
X04195Y0653*
X04135Y0649D02*
X04125Y0648D01*
X04105*
X04095Y0649*
Y0653*
X04105Y0654*
X04125*
X04135Y0653*
Y0652*
X04125Y0651*
X04095*
X03921Y0634D02*
X03911Y0635D01*
Y0637*
X03921Y0638*
X03961*
X03971Y0637*
Y0635*
X03961Y0634*
X03971Y0628D02*
Y0632D01*
X03931Y0628*
X03921*
X03911Y0629*
Y0631*
X03921Y0632*
Y0626D02*
X03911Y0625D01*
Y0623*
X03921Y0622*
X03931*
X03941Y0623*
X03951Y0622*
X03961*
X03971Y0623*
Y0625*
X03961Y0626*
X03951*
X03941Y0625*
X03931Y0626*
X03921*
X03941Y0625D02*
Y0623D01*
X044Y06525D02*
X0441Y06535D01*
X0443*
X0444Y06525*
Y06485*
X0443Y06475*
X0441*
X044Y06485*
X0434Y06475D02*
X0438D01*
X0434Y06515*
Y06525*
X0435Y06535*
X0437*
X0438Y06525*
X0432Y06535D02*
X0428D01*
Y06525*
X0432Y06485*
Y06475*
X04191Y0703D02*
X04181Y0702D01*
X04161*
X04151Y0703*
Y0707*
X04161Y0708*
X04181*
X04191Y0707*
X04251Y0708D02*
X04211D01*
X04251Y0704*
Y0703*
X04241Y0702*
X04221*
X04211Y0703*
X04311Y0702D02*
X04291Y0703D01*
X04271Y0705*
Y0707*
X04281Y0708*
X04301*
X04311Y0707*
Y0706*
X04301Y0705*
X04271*
X03995Y07035D02*
X03985Y07025D01*
X03965*
X03955Y07035*
Y07075*
X03965Y07085*
X03985*
X03995Y07075*
X04054Y07085D02*
X04015D01*
X04054Y07045*
Y07035*
X04044Y07025*
X04024*
X04015Y07035*
X04114Y07025D02*
X04074D01*
Y07055*
X04094Y07045*
X04104*
X04114Y07055*
Y07075*
X04104Y07085*
X04084*
X04074Y07075*
X04075Y0811D02*
X04085Y0812D01*
X04105*
X04115Y0811*
Y0807*
X04105Y0806*
X04085*
X04075Y0807*
X04015Y0806D02*
X04055D01*
X04015Y081*
Y0811*
X04025Y0812*
X04045*
X04055Y0811*
X03965Y0806D02*
Y0812D01*
X03995Y0809*
X03955*
X04265Y0811D02*
X04275Y0812D01*
X04295*
X04305Y0811*
Y0807*
X04295Y0806*
X04275*
X04265Y0807*
X04205Y0806D02*
X04245D01*
X04205Y081*
Y0811*
X04215Y0812*
X04235*
X04245Y0811*
X04145Y0806D02*
X04185D01*
X04145Y081*
Y0811*
X04155Y0812*
X04175*
X04185Y0811*
X04435D02*
X04445Y0812D01*
X04465*
X04475Y0811*
Y0807*
X04465Y0806*
X04445*
X04435Y0807*
X04375Y0806D02*
X04415D01*
X04375Y081*
Y0811*
X04385Y0812*
X04405*
X04415Y0811*
X04355Y0806D02*
X04335D01*
X04345*
Y0812*
X04355Y0811*
X0463D02*
X0464Y0812D01*
X0466*
X0467Y0811*
Y0807*
X0466Y0806*
X0464*
X0463Y0807*
X0457Y0806D02*
X0461D01*
X0457Y081*
Y0811*
X0458Y0812*
X046*
X0461Y0811*
X0455D02*
X0454Y0812D01*
X0452*
X0451Y0811*
Y0807*
X0452Y0806*
X0454*
X0455Y0807*
Y0811*
X04705Y07905D02*
X04695Y07915D01*
Y07935*
X04705Y07945*
X04745*
X04755Y07935*
Y07915*
X04745Y07905*
X04755Y07885D02*
Y07865D01*
Y07875*
X04695*
X04705Y07885*
Y07835D02*
X04695Y07825D01*
Y07805*
X04705Y07795*
X04715*
X04725Y07805*
X04735Y07795*
X04745*
X04755Y07805*
Y07825*
X04745Y07835*
X04735*
X04725Y07825*
X04715Y07835*
X04705*
X04725Y07825D02*
Y07805D01*
X047Y0769D02*
X0469Y077D01*
Y0772*
X047Y0773*
X0474*
X0475Y0772*
Y077*
X0474Y0769*
X0475Y0767D02*
Y0765D01*
Y0766*
X0469*
X047Y0767*
X0469Y0762D02*
Y0758D01*
X047*
X0474Y0762*
X0475*
X0469Y07515D02*
X0468Y07525D01*
Y07545*
X0469Y07555*
X0473*
X0474Y07545*
Y07525*
X0473Y07515*
X0474Y07495D02*
Y07475D01*
Y07485*
X0468*
X0469Y07495*
X0468Y07405D02*
X0469Y07425D01*
X0471Y07445*
X0473*
X0474Y07435*
Y07415*
X0473Y07405*
X0472*
X0471Y07415*
Y07445*
X047Y07335D02*
X0469Y07345D01*
Y07365*
X047Y07375*
X0474*
X0475Y07365*
Y07345*
X0474Y07335*
X0475Y07315D02*
Y07295D01*
Y07305*
X0469*
X047Y07315*
X0469Y07225D02*
Y07265D01*
X0472*
X0471Y07245*
Y07235*
X0472Y07225*
X0474*
X0475Y07235*
Y07255*
X0474Y07265*
X05086Y0754D02*
X05096Y0755D01*
X05115*
X05125Y0754*
Y075*
X05115Y0749*
X05096*
X05086Y075*
X05066Y0749D02*
X05046D01*
X05056*
Y0755*
X05066Y0754*
X04986Y0749D02*
Y0755D01*
X05016Y0752*
X04976*
X03795Y0721D02*
X03785Y0722D01*
Y0724*
X03795Y0725*
X03835*
X03845Y0724*
Y0722*
X03835Y0721*
X03845Y0719D02*
Y0717D01*
Y0718*
X03785*
X03795Y0719*
Y0714D02*
X03785Y0713D01*
Y0711*
X03795Y071*
X03805*
X03815Y0711*
Y0712*
Y0711*
X03825Y071*
X03835*
X03845Y0711*
Y0713*
X03835Y0714*
X0379Y07405D02*
X0378Y07415D01*
Y07435*
X0379Y07445*
X0383*
X0384Y07435*
Y07415*
X0383Y07405*
X0384Y07385D02*
Y07365D01*
Y07375*
X0378*
X0379Y07385*
X0384Y07295D02*
Y07335D01*
X038Y07295*
X0379*
X0378Y07305*
Y07325*
X0379Y07335*
X04402Y0704D02*
X04392Y0703D01*
X04372*
X04362Y0704*
Y0708*
X04372Y0709*
X04392*
X04402Y0708*
X04422Y0709D02*
X04442D01*
X04432*
Y0703*
X04422Y0704*
X04472Y0709D02*
X04492D01*
X04482*
Y0703*
X04472Y0704*
X04593D02*
X04583Y0703D01*
X04563*
X04553Y0704*
Y0708*
X04563Y0709*
X04583*
X04593Y0708*
X04613D02*
X04623Y0709D01*
X04643*
X04653Y0708*
Y0704*
X04643Y0703*
X04623*
X04613Y0704*
Y0705*
X04623Y0706*
X04653*
X04765Y07045D02*
X04755Y07035D01*
X04735*
X04725Y07045*
Y07085*
X04735Y07095*
X04755*
X04765Y07085*
X04785Y07045D02*
X04794Y07035D01*
X04814*
X04824Y07045*
Y07055*
X04814Y07065*
X04824Y07075*
Y07085*
X04814Y07095*
X04794*
X04785Y07085*
Y07075*
X04794Y07065*
X04785Y07055*
Y07045*
X04794Y07065D02*
X04814D01*
X0379Y07755D02*
X0378Y07765D01*
Y07785*
X0379Y07795*
X0383*
X0384Y07785*
Y07765*
X0383Y07755*
X0378Y07695D02*
Y07735D01*
X0381*
X038Y07715*
Y07705*
X0381Y07695*
X0383*
X0384Y07705*
Y07725*
X0383Y07735*
X0378Y07925D02*
X0377Y07935D01*
Y07955*
X0378Y07965*
X0382*
X0383Y07955*
Y07935*
X0382Y07925*
X0383Y07875D02*
X0377D01*
X038Y07905*
Y07865*
X03785Y07565D02*
X03775Y07575D01*
Y07595*
X03785Y07605*
X03825*
X03835Y07595*
Y07575*
X03825Y07565*
X03785Y07545D02*
X03775Y07535D01*
Y07515*
X03785Y07505*
X03795*
X03805Y07515*
Y07525*
Y07515*
X03815Y07505*
X03825*
X03835Y07515*
Y07535*
X03825Y07545*
X04796Y059D02*
X04806Y0589D01*
Y0587*
X04796Y0586*
X04756*
X04746Y0587*
Y0589*
X04756Y059*
X04746Y0592D02*
Y05939D01*
Y05929*
X04806*
X04796Y0592*
X05208Y05271D02*
X05217Y05281D01*
X05237*
X05247Y05271*
Y05232*
X05237Y05222*
X05217*
X05208Y05232*
X05148Y05281D02*
X05168Y05271D01*
X05188Y05252*
Y05232*
X05178Y05222*
X05158*
X05148Y05232*
Y05242*
X05158Y05252*
X05188*
X05088Y05281D02*
X05108Y05271D01*
X05128Y05252*
Y05232*
X05118Y05222*
X05098*
X05088Y05232*
Y05242*
X05098Y05252*
X05128*
X05518Y04785D02*
X05527Y04795D01*
X05547*
X05557Y04785*
Y04745*
X05547Y04735*
X05527*
X05518Y04745*
X05458Y04795D02*
X05478Y04785D01*
X05498Y04765*
Y04745*
X05488Y04735*
X05468*
X05458Y04745*
Y04755*
X05468Y04765*
X05498*
X05438Y04785D02*
X05428Y04795D01*
X05408*
X05398Y04785*
Y04775*
X05408Y04765*
X05418*
X05408*
X05398Y04755*
Y04745*
X05408Y04735*
X05428*
X05438Y04745*
X05067Y04462D02*
X05077Y04472D01*
X05097*
X05107Y04462*
Y04422*
X05097Y04412*
X05077*
X05067Y04422*
X05007Y04472D02*
X05027Y04462D01*
X05047Y04442*
Y04422*
X05037Y04412*
X05017*
X05007Y04422*
Y04432*
X05017Y04442*
X05047*
X04947Y04412D02*
X04987D01*
X04947Y04452*
Y04462*
X04957Y04472*
X04977*
X04987Y04462*
G54D47*
X06303Y04114D02*
X06306D01*
X06303Y04165D02*
X06306D01*
X06298Y04349D02*
X06301D01*
X06298Y044D02*
X06301D01*
X06283Y04844D02*
X06286D01*
X06283Y04889D02*
X06286D01*
X05478Y04626D02*
X05481D01*
X05478Y04679D02*
X05481D01*
X05673Y0491D02*
X05676D01*
X05673Y04859D02*
X05676D01*
X06288Y04629D02*
X06291D01*
X06288Y0468D02*
X06291D01*
X06048Y04135D02*
X06051D01*
X06048Y0418D02*
X06051D01*
X06048Y044D02*
X06051D01*
X06048Y04349D02*
X06051D01*
X06038Y04626D02*
X06041D01*
X06038Y04679D02*
X06041D01*
X06023Y04859D02*
X06026D01*
X06023Y0491D02*
X06026D01*
X05893Y05112D02*
X05896D01*
X05893Y05163D02*
X05896D01*
X05553Y04114D02*
X05556D01*
X05553Y04165D02*
X05556D01*
X05533Y044D02*
X05536D01*
X05533Y04349D02*
X05536D01*
X05403Y04913D02*
X05406D01*
X05403Y0486D02*
X05406D01*
X05553Y05112D02*
X05556D01*
X05553Y05163D02*
X05556D01*
X05298Y04111D02*
X05301D01*
X05298Y04164D02*
X05301D01*
X05288Y04349D02*
X05291D01*
X05288Y044D02*
X05291D01*
X05153Y04629D02*
X05156D01*
X05153Y0468D02*
X05156D01*
X05158Y04859D02*
X05161D01*
X05158Y0491D02*
X05161D01*
X05168Y05166D02*
X05171D01*
X05168Y05113D02*
X05171D01*
X05038Y04293D02*
Y04296D01*
X05091Y04293D02*
Y04296D01*
X04053Y07965D02*
X04056D01*
X04053Y08014D02*
X04056D01*
X04243D02*
X04246D01*
X04243Y07965D02*
X04246D01*
X04413Y08014D02*
X04416D01*
X04413Y07965D02*
X04416D01*
X04608Y08014D02*
X04611D01*
X04608Y07965D02*
X04611D01*
X05111Y07338D02*
Y07361D01*
X05008Y07338D02*
Y07361D01*
X04908Y05651D02*
X04911D01*
X04908Y05608D02*
X04911D01*
X04568Y0638D02*
X04571D01*
X04568Y06429D02*
X04571D01*
X04378D02*
X04381D01*
X04378Y0638D02*
X04381D01*
X04193Y06434D02*
X04196D01*
X04193Y06385D02*
X04196D01*
X0392Y08303D02*
Y08306D01*
X03969Y08303D02*
Y08306D01*
X04161Y08303D02*
Y08306D01*
X04118Y08303D02*
Y08306D01*
X04171Y08608D02*
Y08611D01*
X04128Y08608D02*
Y08611D01*
X05258Y05777D02*
X05261D01*
X05258Y05732D02*
X05261D01*
X05188Y06152D02*
X05191D01*
X05188Y06197D02*
X05191D01*
X05188Y06537D02*
X05191D01*
X05188Y06582D02*
X05191D01*
X03388Y04961D02*
X03391D01*
X03388Y04908D02*
X03391D01*
X02933Y04519D02*
X02936D01*
X02933Y0457D02*
X02936D01*
X02933Y04734D02*
X02936D01*
X02933Y04785D02*
X02936D01*
X02928Y05005D02*
X02931D01*
X02928Y04954D02*
X02931D01*
X03628Y04388D02*
X03631D01*
X03628Y04431D02*
X03631D01*
X03623Y04619D02*
X03626D01*
X03623Y0457D02*
X03626D01*
X03073Y0783D02*
X03076D01*
X03073Y07779D02*
X03076D01*
X03073Y08195D02*
X03076D01*
X03073Y08144D02*
X03076D01*
X03073Y05894D02*
X03076D01*
X03073Y05945D02*
X03076D01*
X03073Y06264D02*
X03076D01*
X03073Y06315D02*
X03076D01*
X03073Y06675D02*
X03076D01*
X03073Y06624D02*
X03076D01*
X03073Y06979D02*
X03076D01*
X03073Y0703D02*
X03076D01*
X03073Y0739D02*
X03076D01*
X03073Y07339D02*
X03076D01*
X02613Y0598D02*
X02616D01*
X02613Y06029D02*
X02616D01*
X02613Y06705D02*
X02616D01*
X02613Y06754D02*
X02616D01*
X02613Y07065D02*
X02616D01*
X02613Y07114D02*
X02616D01*
X02613Y0744D02*
X02616D01*
X02613Y07489D02*
X02616D01*
X02613Y08254D02*
X02616D01*
X02613Y08205D02*
X02616D01*
X02303Y05959D02*
X02306D01*
X02303Y0601D02*
X02306D01*
X02303Y06324D02*
X02306D01*
X02303Y06375D02*
X02306D01*
X02303Y06684D02*
X02306D01*
X02303Y06735D02*
X02306D01*
X02303Y07409D02*
X02306D01*
X02303Y0746D02*
X02306D01*
X02303Y07054D02*
X02306D01*
X02303Y07105D02*
X02306D01*
X02303Y07839D02*
X02306D01*
X02303Y0789D02*
X02306D01*
X05448Y03435D02*
X05451D01*
X05448Y03484D02*
X05451D01*
X05633D02*
X05636D01*
X05633Y03435D02*
X05636D01*
X04839Y07668D02*
Y07671D01*
X0479Y07668D02*
Y07671D01*
Y07878D02*
Y07881D01*
X04839Y07878D02*
Y07881D01*
X0479Y07488D02*
Y07491D01*
X04839Y07488D02*
Y07491D01*
Y07313D02*
Y07316D01*
X0479Y07313D02*
Y07316D01*
X04768Y07125D02*
X04771D01*
X04768Y07174D02*
X04771D01*
X04593D02*
X04596D01*
X04593Y07125D02*
X04596D01*
X04413D02*
X04416D01*
X04413Y07174D02*
X04416D01*
X04238Y07169D02*
X04241D01*
X04238Y0712D02*
X04241D01*
X04058D02*
X04061D01*
X04058Y07169D02*
X04061D01*
X03875Y07183D02*
Y07186D01*
X03924Y07183D02*
Y07186D01*
Y07368D02*
Y07371D01*
X03875Y07368D02*
Y07371D01*
Y07558D02*
Y07561D01*
X03924Y07558D02*
Y07561D01*
X03875Y07743D02*
Y07746D01*
X03924Y07743D02*
Y07746D01*
X0387Y07918D02*
Y07921D01*
X03919Y07918D02*
Y07921D01*
X03538Y08004D02*
X03541D01*
X03538Y08055D02*
X03541D01*
X04749Y08563D02*
Y08566D01*
X048Y08563D02*
Y08566D01*
X04559Y08563D02*
Y08566D01*
X0461Y08563D02*
Y08566D01*
X02618Y07736D02*
X02621D01*
X02618Y07693D02*
X02621D01*
X02613Y07914D02*
X02616D01*
X02613Y07865D02*
X02616D01*
X02618Y08091D02*
X02621D01*
X02618Y08048D02*
X02621D01*
X02303Y08194D02*
X02306D01*
X02303Y08245D02*
X02306D01*
X02618Y07278D02*
X02621D01*
X02618Y07321D02*
X02621D01*
X02618Y06903D02*
X02621D01*
X02618Y06946D02*
X02621D01*
X02618Y06543D02*
X02621D01*
X02618Y06586D02*
X02621D01*
X02618Y06168D02*
X02621D01*
X02618Y06211D02*
X02621D01*
X02613Y0634D02*
X02616D01*
X02613Y06389D02*
X02616D01*
X02618Y05803D02*
X02621D01*
X02618Y05846D02*
X02621D01*
X05043Y03518D02*
X05046D01*
X05043Y03561D02*
X05046D01*
X05238D02*
X05241D01*
X05238Y03518D02*
X05241D01*
X05395Y03208D02*
Y03211D01*
X05444Y03208D02*
Y03211D01*
X05203Y05447D02*
X05206D01*
X05203Y05492D02*
X05206D01*
X04033Y05696D02*
X04036D01*
X04033Y05643D02*
X04036D01*
X04258Y05648D02*
X04261D01*
X04258Y05701D02*
X04261D01*
X04453Y0566D02*
X04456D01*
X04453Y05709D02*
X04456D01*
X04663Y05706D02*
X04666D01*
X04663Y05653D02*
X04666D01*
X04716Y06263D02*
Y06266D01*
X04663Y06263D02*
Y06266D01*
X04711Y06063D02*
Y06066D01*
X04658Y06063D02*
Y06066D01*
X04655Y05883D02*
Y05886D01*
X04704Y05883D02*
Y05886D01*
X04008Y05883D02*
Y05886D01*
X04061Y05883D02*
Y05886D01*
X04008Y06083D02*
Y06086D01*
X04061Y06083D02*
Y06086D01*
X04054Y06288D02*
Y06291D01*
X04005Y06288D02*
Y06291D01*
G54D79*
X04905Y0584D02*
X04944D01*
X04905Y0591D02*
X04945D01*
M02*