%FSTAX23Y23*%
%MOIN*%
%SFA1B1*%

%IPPOS*%
%AMD13*
4,1,8,-0.018700,-0.025000,0.018700,-0.025000,0.025000,-0.018700,0.025000,0.018700,0.018700,0.025000,-0.018700,0.025000,-0.025000,0.018700,-0.025000,-0.018700,-0.018700,-0.025000,0.0*
1,1,0.012504,-0.018700,-0.018700*
1,1,0.012504,0.018700,-0.018700*
1,1,0.012504,0.018700,0.018700*
1,1,0.012504,-0.018700,0.018700*
%
%AMD53*
4,1,8,0.018700,0.041300,-0.018700,0.041300,-0.037400,0.022600,-0.037400,-0.022600,-0.018700,-0.041300,0.018700,-0.041300,0.037400,-0.022600,0.037400,0.022600,0.018700,0.041300,0.0*
1,1,0.037402,0.018700,0.022600*
1,1,0.037402,-0.018700,0.022600*
1,1,0.037402,-0.018700,-0.022600*
1,1,0.037402,0.018700,-0.022600*
%
%ADD10R,0.066929X0.007874*%
%ADD11C,0.017717*%
%ADD12R,0.074803X0.051181*%
G04~CAMADD=13~8~0.0~0.0~500.0~500.0~62.5~0.0~15~0.0~0.0~0.0~0.0~0~0.0~0.0~0.0~0.0~0~0.0~0.0~0.0~180.0~500.0~500.0*
%ADD13D13*%
%ADD14C,0.014173*%
%ADD15R,0.053150X0.061024*%
%ADD16R,0.023622X0.043307*%
%ADD17R,0.049212X0.059055*%
%ADD18R,0.062992X0.110236*%
%ADD19R,0.057087X0.045275*%
%ADD20R,0.078740X0.070866*%
%ADD21R,0.078740X0.047244*%
%ADD22R,0.070866X0.157480*%
%ADD23R,0.043307X0.070866*%
%ADD24R,0.041339X0.023622*%
%ADD25O,0.019685X0.057087*%
%ADD26O,0.082677X0.013780*%
%ADD27R,0.082677X0.055118*%
%ADD28R,0.078740X0.059055*%
%ADD29R,0.059055X0.059055*%
%ADD30R,0.053150X0.015748*%
%ADD31R,0.074803X0.070866*%
%ADD32R,0.055118X0.082677*%
%ADD33R,0.110236X0.062992*%
%ADD34R,0.078740X0.057087*%
%ADD35R,0.059055X0.031496*%
%ADD36R,0.045275X0.057087*%
%ADD37R,0.098425X0.127953*%
%ADD38C,0.011811*%
%ADD39C,0.031496*%
%ADD40C,0.021654*%
%ADD41C,0.024606*%
%ADD42C,0.015748*%
%ADD43C,0.025000*%
%ADD44C,0.007874*%
%ADD45C,0.003937*%
%ADD46C,0.007087*%
%ADD47C,0.006890*%
%ADD48R,0.059055X0.059055*%
%ADD49C,0.059055*%
%ADD50O,0.170000X0.060000*%
%ADD51O,0.060000X0.160000*%
%ADD52O,0.160000X0.060000*%
G04~CAMADD=53~8~0.0~0.0~748.0~826.8~187.0~0.0~15~0.0~0.0~0.0~0.0~0~0.0~0.0~0.0~0.0~0~0.0~0.0~0.0~0.0~748.0~826.8*
%ADD53D53*%
%ADD54O,0.037401X0.033465*%
%ADD55C,0.015748*%
%LNpcb_take2-1-1*%
%LPD*%
G54D10*
X04688Y08264D03*
Y08283D03*
Y08303D03*
Y08323D03*
Y08342D03*
Y08362D03*
Y08382D03*
Y08401D03*
Y08421D03*
Y08441D03*
Y08461D03*
Y0848D03*
Y085D03*
Y0852D03*
Y08539D03*
Y08559D03*
Y08579D03*
Y08598D03*
Y08618D03*
Y08638D03*
Y08657D03*
Y08677D03*
Y08697D03*
Y08716D03*
X03932Y08264D03*
Y08283D03*
Y08303D03*
Y08323D03*
Y08342D03*
Y08362D03*
Y08382D03*
Y08401D03*
Y08421D03*
Y08441D03*
Y08461D03*
Y0848D03*
Y085D03*
Y0852D03*
Y08539D03*
Y08559D03*
Y08579D03*
Y08598D03*
Y08618D03*
Y08638D03*
Y08657D03*
Y08677D03*
Y08697D03*
Y08716D03*
G54D11*
X04517Y05917D03*
X04485D03*
X04454D03*
X04422D03*
X04391D03*
X0436D03*
X04328D03*
X04297D03*
X04265D03*
X04234D03*
X04202D03*
X04517Y05949D03*
X04485D03*
X04454D03*
X04422D03*
X04391D03*
X0436D03*
X04328D03*
X04297D03*
X04265D03*
X04234D03*
X04202D03*
X04517Y0598D03*
X04485D03*
X04454D03*
X04422D03*
X04391D03*
X0436D03*
X04328D03*
X04297D03*
X04265D03*
X04234D03*
X04202D03*
X04517Y06012D03*
X04485D03*
X04454D03*
X04422D03*
X04391D03*
X0436D03*
X04328D03*
X04297D03*
X04265D03*
X04234D03*
X04202D03*
X04517Y06043D03*
X04485D03*
X04454D03*
X04422D03*
X04391D03*
X0436D03*
X04328D03*
X04297D03*
X04265D03*
X04234D03*
X04202D03*
X04517Y06075D03*
X04485D03*
X04454D03*
X04422D03*
X04391D03*
X0436D03*
X04328D03*
X04297D03*
X04265D03*
X04234D03*
X04202D03*
X04517Y06106D03*
X04485D03*
X04454D03*
X04422D03*
X04391D03*
X0436D03*
X04328D03*
X04297D03*
X04265D03*
X04234D03*
X04202D03*
X04517Y06137D03*
X04485D03*
X04454D03*
X04422D03*
X04391D03*
X0436D03*
X04328D03*
X04297D03*
X04265D03*
X04234D03*
X04202D03*
X04517Y06169D03*
X04485D03*
X04454D03*
X04422D03*
X04391D03*
X0436D03*
X04328D03*
X04297D03*
X04265D03*
X04234D03*
X04202D03*
X04517Y062D03*
X04485D03*
X04454D03*
X04422D03*
X04391D03*
X0436D03*
X04328D03*
X04297D03*
X04265D03*
X04234D03*
X04202D03*
X04517Y06232D03*
X04485D03*
X04454D03*
X04422D03*
X04391D03*
X0436D03*
X04328D03*
X04297D03*
X04265D03*
X04234D03*
X04202D03*
G54D12*
X0525Y0626D03*
Y06476D03*
X05124D03*
Y0626D03*
G54D13*
X02782Y0591D03*
X02857D03*
X03077Y0423D03*
X03152D03*
X03372D03*
X03447D03*
X02782Y0737D03*
X02857D03*
X02782Y0701D03*
X02857D03*
X02782Y06655D03*
X02857D03*
X02782Y0628D03*
X02857D03*
X02777Y0817D03*
X02852D03*
X02782Y07803D03*
X02857D03*
X04327Y0375D03*
X04252D03*
G54D14*
X04072Y07827D03*
X04103D03*
X04135D03*
X04166D03*
X04198D03*
X04229D03*
X04261D03*
X04292D03*
X04324D03*
X04355D03*
X04387D03*
X04418D03*
X0445D03*
X04481D03*
X04513D03*
X04544D03*
X04576D03*
X04607D03*
X04072Y07796D03*
X04103D03*
X04135D03*
X04166D03*
X04198D03*
X04229D03*
X04261D03*
X04292D03*
X04324D03*
X04355D03*
X04387D03*
X04418D03*
X0445D03*
X04481D03*
X04513D03*
X04544D03*
X04576D03*
X04607D03*
X04072Y07764D03*
X04103D03*
X04135D03*
X04166D03*
X04198D03*
X04229D03*
X04261D03*
X04292D03*
X04324D03*
X04355D03*
X04387D03*
X04418D03*
X0445D03*
X04481D03*
X04513D03*
X04544D03*
X04576D03*
X04607D03*
X04072Y07733D03*
X04103D03*
X04135D03*
X04166D03*
X04198D03*
X04229D03*
X04261D03*
X04292D03*
X04324D03*
X04355D03*
X04387D03*
X04418D03*
X0445D03*
X04481D03*
X04513D03*
X04544D03*
X04576D03*
X04607D03*
X04072Y07701D03*
X04103D03*
X04135D03*
X04166D03*
X04198D03*
X04229D03*
X04261D03*
X04292D03*
X04324D03*
X04355D03*
X04387D03*
X04418D03*
X0445D03*
X04481D03*
X04513D03*
X04544D03*
X04576D03*
X04607D03*
X04072Y0767D03*
X04103D03*
X04135D03*
X04166D03*
X04198D03*
X04229D03*
X04261D03*
X04292D03*
X04324D03*
X04355D03*
X04387D03*
X04418D03*
X0445D03*
X04481D03*
X04513D03*
X04544D03*
X04576D03*
X04607D03*
X04072Y07638D03*
X04103D03*
X04135D03*
X04166D03*
X04198D03*
X04229D03*
X04261D03*
X04292D03*
X04324D03*
X04355D03*
X04387D03*
X04418D03*
X0445D03*
X04481D03*
X04513D03*
X04544D03*
X04576D03*
X04607D03*
X04072Y07607D03*
X04103D03*
X04135D03*
X04166D03*
X04198D03*
X04229D03*
X04261D03*
X04292D03*
X04324D03*
X04355D03*
X04387D03*
X04418D03*
X0445D03*
X04481D03*
X04513D03*
X04544D03*
X04576D03*
X04607D03*
X04072Y07575D03*
X04103D03*
X04135D03*
X04166D03*
X04198D03*
X04229D03*
X04261D03*
X04292D03*
X04324D03*
X04355D03*
X04387D03*
X04418D03*
X0445D03*
X04481D03*
X04513D03*
X04544D03*
X04576D03*
X04607D03*
X04072Y07544D03*
X04103D03*
X04135D03*
X04166D03*
X04198D03*
X04229D03*
X04261D03*
X04292D03*
X04324D03*
X04355D03*
X04387D03*
X04418D03*
X0445D03*
X04481D03*
X04513D03*
X04544D03*
X04576D03*
X04607D03*
X04072Y07512D03*
X04103D03*
X04135D03*
X04166D03*
X04198D03*
X04229D03*
X04261D03*
X04292D03*
X04324D03*
X04355D03*
X04387D03*
X04418D03*
X0445D03*
X04481D03*
X04513D03*
X04544D03*
X04576D03*
X04607D03*
X04072Y07481D03*
X04103D03*
X04135D03*
X04166D03*
X04198D03*
X04229D03*
X04261D03*
X04292D03*
X04324D03*
X04355D03*
X04387D03*
X04418D03*
X0445D03*
X04481D03*
X04513D03*
X04544D03*
X04576D03*
X04607D03*
X04072Y07449D03*
X04103D03*
X04135D03*
X04166D03*
X04198D03*
X04229D03*
X04261D03*
X04292D03*
X04324D03*
X04355D03*
X04387D03*
X04418D03*
X0445D03*
X04481D03*
X04513D03*
X04544D03*
X04576D03*
X04607D03*
X04072Y07418D03*
X04103D03*
X04135D03*
X04166D03*
X04198D03*
X04229D03*
X04261D03*
X04292D03*
X04324D03*
X04355D03*
X04387D03*
X04418D03*
X0445D03*
X04481D03*
X04513D03*
X04544D03*
X04576D03*
X04607D03*
X04072Y07386D03*
X04103D03*
X04135D03*
X04166D03*
X04198D03*
X04229D03*
X04261D03*
X04292D03*
X04324D03*
X04355D03*
X04387D03*
X04418D03*
X0445D03*
X04481D03*
X04513D03*
X04544D03*
X04576D03*
X04607D03*
X04072Y07355D03*
X04103D03*
X04135D03*
X04166D03*
X04198D03*
X04229D03*
X04261D03*
X04292D03*
X04324D03*
X04355D03*
X04387D03*
X04418D03*
X0445D03*
X04481D03*
X04513D03*
X04544D03*
X04576D03*
X04607D03*
X04072Y07323D03*
X04103D03*
X04135D03*
X04166D03*
X04198D03*
X04229D03*
X04261D03*
X04292D03*
X04324D03*
X04355D03*
X04387D03*
X04418D03*
X0445D03*
X04481D03*
X04513D03*
X04544D03*
X04576D03*
X04607D03*
X04072Y07292D03*
X04103D03*
X04135D03*
X04166D03*
X04198D03*
X04229D03*
X04261D03*
X04292D03*
X04324D03*
X04355D03*
X04387D03*
X04418D03*
X0445D03*
X04481D03*
X04513D03*
X04544D03*
X04576D03*
X04607D03*
G54D15*
X05865Y0339D03*
X05944D03*
G54D16*
X05747Y04837D03*
X05822D03*
Y04742D03*
X05785D03*
X05747D03*
Y04427D03*
X05822D03*
Y04332D03*
X05785D03*
X05747D03*
X05082Y03722D03*
X05045D03*
X05007D03*
Y03627D03*
X05082D03*
X05277Y03722D03*
X0524D03*
X05202D03*
Y03627D03*
X05277D03*
G54D17*
X05946Y0364D03*
X05863D03*
X03898Y03815D03*
X03981D03*
G54D18*
X04055Y06951D03*
X03939D03*
X04564Y08083D03*
X04448D03*
X04075Y08092D03*
X04191D03*
X04723Y06951D03*
X04606D03*
G54D19*
X0492Y07345D03*
Y07274D03*
G54D20*
X05115Y06795D03*
Y06995D03*
X0528Y06795D03*
Y06995D03*
G54D21*
X05265Y0565D03*
X05119D03*
Y05563D03*
X05265D03*
G54D22*
X0277Y0316D03*
Y03478D03*
X03225Y0316D03*
Y03478D03*
X0368Y0316D03*
Y03478D03*
G54D23*
X03708Y03823D03*
X03601D03*
X02988Y04335D03*
X02881D03*
G54D24*
X05643Y03237D03*
Y032D03*
Y03162D03*
X05546D03*
Y032D03*
Y03237D03*
G54D25*
X0393Y04477D03*
X03962D03*
X03993D03*
X04025D03*
X04056D03*
X04088D03*
X04119D03*
X04151D03*
X04182D03*
X04214D03*
X04245D03*
X04277D03*
X04308D03*
X0434D03*
X04371D03*
X04402D03*
X04434D03*
X04465D03*
X04497D03*
X04528D03*
X0456D03*
X04591D03*
X04623D03*
X04654D03*
X04686D03*
X04717D03*
X04749D03*
X0393Y04922D03*
X03962D03*
X03993D03*
X04025D03*
X04056D03*
X04088D03*
X04119D03*
X04151D03*
X04182D03*
X04214D03*
X04245D03*
X04277D03*
X04308D03*
X0434D03*
X04371D03*
X04402D03*
X04434D03*
X04465D03*
X04497D03*
X04528D03*
X0456D03*
X04591D03*
X04623D03*
X04654D03*
X04686D03*
X04717D03*
X04749D03*
G54D26*
X03124Y04801D03*
Y04775D03*
Y0475D03*
Y04724D03*
Y04698D03*
Y04673D03*
Y04647D03*
Y04622D03*
Y04596D03*
Y04571D03*
Y04545D03*
Y04519D03*
Y04494D03*
Y04468D03*
X03395Y04801D03*
Y04775D03*
Y0475D03*
Y04724D03*
Y04698D03*
Y04673D03*
Y04647D03*
Y04622D03*
Y04596D03*
Y04571D03*
Y04545D03*
Y04519D03*
Y04494D03*
Y04468D03*
G54D27*
X02485Y06002D03*
X02126D03*
Y05825D03*
X02485D03*
Y06367D03*
X02126D03*
Y0619D03*
X02485D03*
Y06732D03*
X02126D03*
Y06555D03*
X02485D03*
Y07097D03*
X02126D03*
Y0692D03*
X02485D03*
Y07462D03*
X02126D03*
Y07285D03*
X02485D03*
Y07892D03*
X02126D03*
Y07715D03*
X02485D03*
Y08257D03*
X02126D03*
Y0808D03*
X02485D03*
X0373Y08307D03*
X03371D03*
Y0813D03*
X0373D03*
G54D28*
X06606Y03136D03*
X06608Y03455D03*
X06606Y03681D03*
X06608Y04D03*
G54D29*
X0626Y03136D03*
Y03455D03*
Y03681D03*
Y04D03*
X05265Y0315D03*
X05116D03*
X04967D03*
X0624Y06935D03*
X0596Y0562D03*
G54D30*
X02213Y05377D03*
Y05402D03*
Y05428D03*
Y05351D03*
Y05326D03*
G54D31*
X02096Y05422D03*
Y05332D03*
G54D32*
X03117Y052D03*
Y05558D03*
X0294D03*
Y052D03*
G54D33*
X05025Y07803D03*
Y07686D03*
G54D34*
X02256Y049D03*
X02583D03*
Y04358D03*
X02256D03*
G54D35*
X0248Y04758D03*
Y04714D03*
Y04671D03*
Y04628D03*
Y04585D03*
Y04541D03*
Y04498D03*
Y04455D03*
G54D36*
X0366Y04835D03*
X03589D03*
G54D37*
X02836Y03886D03*
X026D03*
G54D38*
X05546Y032D02*
X05546D01*
X05277Y03588D02*
Y03627D01*
X05202Y03752D02*
X05234Y03784D01*
X05202Y03722D02*
Y03752D01*
X04985Y03736D02*
Y03835D01*
Y03736D02*
X04989Y03732D01*
X05007Y03722D02*
Y03732D01*
X05476Y03162D02*
X05546D01*
X05202Y03627D02*
Y03628D01*
X05007Y03627D02*
Y03628D01*
X05422Y03237D02*
X05546D01*
X05546*
X05007Y03628D02*
X05045D01*
X05202D02*
X0524D01*
X04989Y03732D02*
X05007D01*
X05546Y032D02*
Y03237D01*
X05082Y03627D02*
X05132D01*
X05133Y03626*
G54D39*
X05116Y0335D02*
X05166Y033D01*
X05359*
X05422Y03237*
X04918Y03199D02*
X04967Y0315D01*
X04918Y03199D02*
Y0328D01*
X04938Y033*
X05066*
X05116Y0335*
X026Y03852D02*
Y03886D01*
X02433Y03833D02*
X02452Y03852D01*
X0224Y03833D02*
X02433D01*
X0222Y03853D02*
X0224Y03833D01*
X0222Y03853D02*
Y03895D01*
X0277Y03478D02*
Y03711D01*
X0266Y03821D02*
X0277Y03711D01*
X026Y03821D02*
Y03852D01*
X0312Y03583D02*
X03225Y03478D01*
X0312Y03583D02*
Y03805D01*
X03038Y03887D02*
X0312Y03805D01*
X02836Y03886D02*
Y03887D01*
X03601Y03687D02*
X0368Y03609D01*
Y03478D02*
Y03609D01*
X03791Y03824D02*
X038Y03815D01*
X02864Y05428D02*
X02881Y0541D01*
X05234Y03784D02*
X05285Y03835D01*
X04967Y0325D02*
X05017Y032D01*
X05438*
X05476Y03162*
X0232Y03895D02*
X02537Y04112D01*
X02972*
X02988Y04128*
Y04335*
X02836Y03887D02*
X03038D01*
X02452Y03852D02*
X026D01*
Y03821D02*
X0266D01*
G54D40*
X03601Y03805D02*
Y03823D01*
X03708D02*
Y03824D01*
X02881Y04335D02*
Y0541D01*
X03601Y03687D02*
Y03805D01*
X03708Y03824D02*
X03791D01*
X0332Y03805D02*
X03601D01*
G54D41*
X03898Y03815D02*
X0394D01*
X038D02*
X03898D01*
X03981D02*
X04187D01*
G54D42*
X02213Y05428D02*
X02864D01*
G54D43*
X04187Y03815D02*
X04252Y0375D01*
G54D44*
X04564Y08083D02*
Y0815D01*
X05025Y07803D02*
X05091D01*
X04075Y08092D02*
Y08159D01*
X04576Y07796D02*
X04591Y07811D01*
X04513Y07796D02*
X04528Y07811D01*
X04576Y07701D02*
X04591Y07717D01*
X04355Y07796D02*
X04371Y07811D01*
X0445Y07733D02*
X04465Y07748D01*
X04481Y07701D02*
X04497Y07717D01*
X04513Y07638D02*
X04528Y07654D01*
X04182Y07811D02*
X04198Y07796D01*
X04355Y07701D02*
X04371Y07717D01*
X04576Y07575D02*
X04591Y07591D01*
X04245Y07748D02*
X04261Y07733D01*
X04308Y07717D02*
X04324Y07701D01*
X04879Y07345D02*
X0492D01*
X04056Y07811D02*
X04072Y07796D01*
X04481Y07575D02*
X04497Y07591D01*
X04182Y07717D02*
X04198Y07701D01*
X0528Y06995D02*
X05331D01*
X04088Y07717D02*
X04103Y07701D01*
X04513Y07481D02*
X04528Y07465D01*
X04576Y07386D02*
X04591Y07371D01*
X04481Y07418D02*
X04497Y07402D01*
X04308Y07465D02*
X04324Y07481D01*
X04513Y07355D02*
X04528Y07339D01*
X04418Y07386D02*
X04434Y07371D01*
X04355Y07418D02*
X04371Y07402D01*
X04308D02*
X04324Y07418D01*
X04481Y07323D02*
X04497Y07308D01*
X04151Y07465D02*
X04166Y07481D01*
X04182Y07402D02*
X04198Y07418D01*
X04214Y07371D02*
X04229Y07386D01*
X04308Y07308D02*
X04324Y07323D01*
X04088Y07371D02*
X04103Y07386D01*
X04151Y07308D02*
X04166Y07323D01*
X04723Y06885D02*
Y06951D01*
X04055Y06885D02*
Y06951D01*
X05822Y04803D02*
Y04837D01*
Y04393D02*
Y04427D01*
X04391Y06137D02*
X04407Y06153D01*
X04422Y06075D02*
X04438Y06059D01*
X04312Y06153D02*
X04328Y06137D01*
X04422Y06043D02*
X04438Y06027D01*
X04391Y06012D02*
X04407Y05996D01*
X04281Y06027D02*
X04297Y06043D01*
X04717Y04922D02*
Y04962D01*
X04371Y04882D02*
Y04922D01*
X0434D02*
Y04962D01*
X04623Y04437D02*
Y04477D01*
X03962D02*
Y04517D01*
X03447Y04193D02*
Y0423D01*
X0248Y04628D02*
X02522D01*
X04643Y08539D02*
X04688D01*
Y08323D02*
X04734D01*
X0561Y032D02*
X05643D01*
X04387Y07607D02*
X04402Y07622D01*
X04245Y07654D02*
X04261Y07638D01*
X04308Y07622D02*
X04324Y07607D01*
X04355Y07575D02*
X04371Y07591D01*
X04387Y07544D02*
X04402Y07528D01*
X04277Y07591D02*
X04292Y07575D01*
X04308Y07528D02*
X04324Y07544D01*
X05643Y03162D02*
X05675D01*
X04371Y07653D02*
Y07654D01*
X04434Y0758D02*
Y07591D01*
X04183D02*
X04183D01*
X04246Y07529D02*
Y0754D01*
X04088Y07591D02*
X04088D01*
X03152Y0423D02*
X03153Y04229D01*
X04289Y05909D02*
X04297Y05917D01*
X04289Y05901D02*
Y05909D01*
X04281Y05893D02*
X04289Y05901D01*
X04056Y04866D02*
Y04922D01*
X03879Y08539D02*
X03932D01*
X0366Y04795D02*
Y04835D01*
X03196Y04372D02*
X03256Y04432D01*
Y04576D02*
X03276Y04596D01*
X04376Y07466D02*
X04403D01*
X04371Y07471D02*
X04376Y07466D01*
X02988Y04335D02*
Y04349D01*
Y04372*
Y04349D02*
X03103D01*
X02988Y04372D02*
X03126D01*
X03196*
X03103Y04349D02*
X03126Y04372D01*
X03256Y04502*
X03343Y04589*
X03256Y04432D02*
Y04502D01*
Y04576*
X04371Y07471D02*
Y07497D01*
X04371Y07497*
X03153Y04193D02*
Y04229D01*
X03132Y04172D02*
X03153Y04193D01*
X03109Y04172D02*
X03132D01*
X02964Y04695D02*
X02998D01*
X03026Y04724*
X03124*
G54D45*
X04643Y08697D02*
X04688D01*
X04643Y08579D02*
X04688D01*
X04643Y08382D02*
X04688D01*
Y08283D02*
X04734D01*
X03932Y08598D02*
X03978D01*
X03887Y085D02*
X03932D01*
X04448Y08083D02*
Y0815D01*
X05025Y07686D02*
X05091D01*
X04191Y08092D02*
Y08159D01*
X04607Y07827D02*
X04623Y07843D01*
X04544Y07764D02*
X0456Y0778D01*
X0445Y07796D02*
X04465Y07811D01*
X04513Y07701D02*
X04528Y07717D01*
X04576Y07638D02*
X04591Y07654D01*
X04245Y07811D02*
X04261Y07796D01*
X04355Y07733D02*
X04371Y07748D01*
X04056Y07843D02*
X04072Y07827D01*
X04418Y07638D02*
X04434Y07654D01*
X02777Y08133D02*
Y0817D01*
X04119Y0778D02*
X04135Y07764D01*
X04513Y07575D02*
X04528Y07591D01*
X04182Y07748D02*
X04198Y07733D01*
X04879Y07274D02*
X0492D01*
X04355Y07607D02*
X04371Y07622D01*
X04576Y07481D02*
X04591Y07465D01*
X04387Y07575D02*
X04402Y07591D01*
X04277Y07622D02*
X04292Y07607D01*
X04182Y07654D02*
X04198Y07638D01*
X04308Y07591D02*
X04324Y07575D01*
X04355Y07544D02*
X04371Y07528D01*
X04387Y07512D02*
X04402Y07497D01*
X04607Y07386D02*
X04623Y07371D01*
X04088Y07654D02*
X04103Y07638D01*
X04277Y07528D02*
X04292Y07544D01*
X0445Y07449D02*
X04465Y07434D01*
X04308Y07497D02*
X04324Y07512D01*
X04544Y07386D02*
X0456Y07371D01*
X04418Y07449D02*
X04434Y07434D01*
X04151Y07591D02*
X04166Y07575D01*
X04544Y07355D02*
X0456Y07339D01*
X04481Y07386D02*
X04497Y07371D01*
X04607Y07292D02*
X04623Y07276D01*
X04214Y07465D02*
X04229Y07481D01*
X04308Y07371D02*
X04324Y07386D01*
X04418Y07323D02*
X04434Y07308D01*
X04088Y07465D02*
X04103Y07481D01*
X05064Y06795D02*
X05115D01*
X04151Y07371D02*
X04166Y07386D01*
X04214Y07308D02*
X04229Y07323D01*
X02782Y07766D02*
Y07803D01*
X04056Y07371D02*
X04072Y07386D01*
X04056Y07276D02*
X04072Y07292D01*
X04606Y06885D02*
Y06951D01*
X02782Y07333D02*
Y0737D01*
X03939Y06885D02*
Y06951D01*
X0626Y03639D02*
Y03681D01*
Y03094D02*
Y03136D01*
X05785Y04709D02*
Y04742D01*
X05265Y05563D02*
X05316D01*
X05068Y0565D02*
X05119D01*
X02782Y06973D02*
Y0701D01*
X05785Y04299D02*
Y04332D01*
X04391Y06169D02*
X04407Y06185D01*
X04454Y06075D02*
X0447Y06059D01*
X05863Y03598D02*
Y0364D01*
X04454Y06043D02*
X0447Y06027D01*
X04281Y06153D02*
X04297Y06137D01*
X05865Y03347D02*
Y0339D01*
X04485Y05949D02*
X04501Y05933D01*
X04344Y05996D02*
X0436Y06012D01*
X04391Y05949D02*
X04407Y05933D01*
X04249Y06027D02*
X04265Y06043D01*
X04281Y05933D02*
X04297Y05949D01*
X02782Y06618D02*
Y06655D01*
X05643Y03237D02*
X05675D01*
X02782Y06243D02*
Y0628D01*
X0524Y03722D02*
Y03755D01*
X04623Y04882D02*
Y04922D01*
X05045Y03722D02*
Y03755D01*
X04717Y04477D02*
Y04517D01*
X04402Y04922D02*
Y04962D01*
X02782Y05873D02*
Y0591D01*
X0434Y04477D02*
Y04517D01*
X03962Y04922D02*
Y04962D01*
X04277Y04477D02*
Y04517D01*
X04056Y04437D02*
Y04477D01*
X04327Y03713D02*
Y0375D01*
X03589Y04794D02*
Y04835D01*
X02174Y05326D02*
X02213D01*
X03342Y04775D02*
X03395D01*
Y0475D02*
X03448D01*
X03342Y04724D02*
X03395D01*
Y04545D02*
X03448D01*
X0368Y03069D02*
Y0316D01*
X0248Y04541D02*
X02522D01*
X03225Y03069D02*
Y0316D01*
X0277Y03069D02*
Y0316D01*
X04688Y08716D02*
X04733D01*
X04734Y08717*
X04688Y08401D02*
X04733D01*
X04734Y08402*
X03888Y08618D02*
Y08619D01*
X03888Y08461D02*
X03932D01*
X03888Y08461D02*
X03888Y08461D01*
X03932Y08323D02*
X03977D01*
X03978Y08323*
X06606Y03681D02*
Y03839D01*
X06608Y0384*
Y04*
X06606Y03136D02*
Y03294D01*
X06608Y03295*
Y03455*
X04422Y05949D02*
X04454D01*
X02485Y05825D02*
X02538D01*
X02852Y0817D02*
X03071D01*
X05119Y05563D02*
X05173D01*
X02857Y07803D02*
X03006Y07654D01*
X02857Y0737D02*
X02904Y07417D01*
X02857Y0701D02*
X02893Y06974D01*
X06445Y04D02*
X06608D01*
X04808Y05563D02*
X05119D01*
X04454Y05917D02*
X04808Y05563D01*
X02485Y0692D02*
X02538D01*
X02857Y0591D02*
X02888Y05879D01*
X02857Y0628D02*
X02888Y06249D01*
X03336Y04193D02*
X03372Y0423D01*
X03213Y04193D02*
X03336D01*
X02485Y06555D02*
X02538D01*
X0626Y04D02*
X06297Y04037D01*
Y0458*
X02074Y06002D02*
X02126D01*
X02074Y06367D02*
X02126D01*
X02074Y07097D02*
X02126D01*
X04517Y06106D02*
X04532Y06122D01*
X05747Y04104D02*
Y04332D01*
Y04837D02*
Y04864D01*
X03077Y0423D02*
Y04303D01*
X03895Y08303D02*
X03932D01*
X03887Y08295D02*
X03895Y08303D01*
X05747Y04375D02*
Y04427D01*
X02971Y05038D02*
X03059Y05125D01*
Y05536*
X03082Y05559*
X03117Y05558D02*
Y05559D01*
X05265Y0565D02*
X05316D01*
X03395Y04571D02*
X03449D01*
X04422Y05917D02*
X04439Y05901D01*
Y05818D02*
Y05901D01*
X04513Y07733D02*
X04529Y07749D01*
X06219Y03496D02*
X0626Y03455D01*
X0436Y05626D02*
X04368Y05618D01*
X0436Y05626D02*
Y05917D01*
X04391Y0598D02*
X04407Y05965D01*
X04591Y06137D02*
Y06703D01*
X04761Y06873*
Y07744*
X04218Y06248D02*
X04234Y06232D01*
X04218Y06248D02*
X04218D01*
X03858Y06258D02*
X03912Y06312D01*
X03858Y044D02*
Y06258D01*
Y044D02*
X03876Y04382D01*
X03965*
X04025Y04442*
Y04477*
X0456D02*
Y04509D01*
X04512Y04558D02*
X0456Y04509D01*
X04501Y06028D02*
X04502D01*
X0445Y07607D02*
X04465Y07623D01*
X04281Y06122D02*
X04297Y06106D01*
X04544Y07701D02*
X04559Y07717D01*
X0456*
X04435Y07225D02*
X04501Y07158D01*
Y06185D02*
Y07158D01*
X04544Y07607D02*
Y07615D01*
X04552D02*
X0456Y07623D01*
X0425Y06059D02*
X04265Y06075D01*
X04308Y04922D02*
Y05002D01*
X04443Y07558D02*
X04489D01*
X04495Y07526D02*
Y07552D01*
X04481Y07512D02*
X04495Y07526D01*
X02485Y07285D02*
X02538D01*
X04517Y06137D02*
X04545D01*
X04434Y04477D02*
Y04529D01*
X04151Y07811D02*
Y07812D01*
Y07811D02*
X04166Y07796D01*
X02485Y07715D02*
X02538D01*
X04214Y0778D02*
X04214D01*
X04229Y07764*
X04182Y07779D02*
X04198Y07764D01*
X04183Y07842D02*
X04198Y07827D01*
X04277Y0778D02*
X04277D01*
X04292Y07764*
X04391Y05917D02*
X04407Y05901D01*
Y05893D02*
Y05901D01*
X05822Y04742D02*
Y0478D01*
X05801Y04801D02*
X05822Y0478D01*
X05801Y04801D02*
Y04912D01*
X05792Y04922D02*
X05801Y04912D01*
X05559Y04922D02*
X05792D01*
X0544Y04803D02*
X05559Y04922D01*
X0412Y07842D02*
Y07851D01*
Y07842D02*
X04135Y07827D01*
X04688Y08657D02*
X04734D01*
X04644Y08677D02*
X04688D01*
X04644Y08638D02*
X04644Y08638D01*
X03932Y08657D02*
X04168D01*
X04458Y07379D02*
X04466Y07371D01*
X0445Y07379D02*
Y07386D01*
X04934Y085D02*
X04955Y0848D01*
Y0732D02*
Y0848D01*
X04945Y0731D02*
X04955Y0732D01*
X04591Y07277D02*
X04592D01*
X04576Y07292D02*
X04591Y07277D01*
X04985Y03835D02*
Y05305D01*
X05188Y05508*
Y05702*
X04991Y05899D02*
X05188Y05702D01*
X04598Y05899D02*
X04991D01*
X04517Y0598D02*
X04598Y05899D01*
X0335Y04622D02*
X03395D01*
X03342Y04614D02*
X0335Y04622D01*
X03395Y04468D02*
X03463D01*
X0225Y05377D02*
X02286Y05342D01*
X02213Y05377D02*
X0225D01*
X04422Y06137D02*
X04439Y06154D01*
X04422Y06106D02*
X04438Y06122D01*
X04422Y06169D02*
X04439Y06185D01*
X0248Y04585D02*
X02782D01*
X04218Y05933D02*
X04234Y05949D01*
X04344Y06216D02*
X0436Y062D01*
X04344Y06216D02*
Y06217D01*
X04437Y07527D02*
Y07552D01*
X04443Y07558*
X04489D02*
X04495Y07552D01*
X04481Y0767D02*
Y07678D01*
X04489D02*
X04497Y07686D01*
X04607Y0767D02*
Y07678D01*
X04615D02*
X04623Y07686D01*
X04485Y06137D02*
X04501Y06154D01*
X03993Y04448D02*
Y04477D01*
X03984Y04439D02*
X03993Y04448D01*
X03904Y04439D02*
X03984D01*
X03888Y04455D02*
X03904Y04439D01*
X03888Y04455D02*
Y06201D01*
X04218Y06216D02*
X04234Y062D01*
X0425Y06122D02*
X04265Y06106D01*
X0425Y06122D02*
X0425D01*
X04686Y04922D02*
Y04986D01*
X04345Y05966D02*
X0436Y0598D01*
X04344Y05966D02*
X04345D01*
X0425Y05996D02*
Y05996D01*
X04265Y06012*
X0425Y05965D02*
X04265Y0598D01*
X0412Y07339D02*
Y07497D01*
Y07339D02*
X04135Y07323D01*
X04438Y06217D02*
X04454Y062D01*
X04438Y06217D02*
Y06369D01*
X04411Y06396D02*
X04438Y06369D01*
X04411Y06396D02*
Y07194D01*
X04342Y07263D02*
X04411Y07194D01*
X04342Y07263D02*
Y07552D01*
X04348Y07558*
X04404*
X04418Y07544*
X04292Y07796D02*
X04311Y07777D01*
X04332*
X04338Y07772*
Y07696D02*
Y07772D01*
X04328Y07686D02*
X04338Y07696D01*
X04224Y07686D02*
X04328D01*
X04216Y07678D02*
X04224Y07686D01*
X04216Y07503D02*
Y07678D01*
Y07503D02*
X04224Y07495D01*
X0424*
X04248Y07487*
Y07279D02*
Y07487D01*
Y07279D02*
X04401Y07126D01*
Y06309D02*
Y07126D01*
Y06309D02*
X04422Y06287D01*
Y06232D02*
Y06287D01*
X04297Y06106D02*
X04312Y06122D01*
X04336*
X04345Y06113*
Y06032D02*
Y06113D01*
Y06032D02*
X0435Y06027D01*
X04368*
X04376Y06019*
Y0586D02*
Y06019D01*
Y0586D02*
X04382Y05854D01*
Y05425D02*
Y05854D01*
X04151Y05194D02*
X04382Y05425D01*
X04151Y04922D02*
Y05194D01*
X04481Y07607D02*
X04497Y07622D01*
X04115Y06075D02*
X04202D01*
X04544Y07638D02*
X04559Y07654D01*
X0456*
X04281Y06059D02*
X04281D01*
X04297Y06075*
X04376Y06185D02*
X04391Y062D01*
X04281Y06216D02*
X04297Y062D01*
X04281Y06216D02*
Y06217D01*
X04088Y04922D02*
Y04962D01*
X04501Y06122D02*
X04502D01*
X04485Y06106D02*
X04501Y06122D01*
X04277Y04882D02*
Y04922D01*
X04313Y06248D02*
X04321Y0624D01*
X04328Y06232D02*
Y0624D01*
X04119Y04922D02*
Y05658D01*
X04517Y06043D02*
X04575Y05985D01*
Y05977D02*
Y05985D01*
X04528Y04437D02*
Y04477D01*
X04422Y0598D02*
X04438Y05965D01*
X04439*
X0456Y04922D02*
Y0502D01*
X04245Y04477D02*
Y04518D01*
X04501Y06184D02*
Y06185D01*
X04485Y06169D02*
X04501Y06184D01*
X04454Y06232D02*
X0447Y06247D01*
Y06248*
X04214Y0478D02*
X04291Y04857D01*
X04214Y04477D02*
Y0478D01*
X04312Y05996D02*
X04328Y06012D01*
X0425Y06153D02*
X04265Y06137D01*
X0425Y06153D02*
Y06154D01*
X04517Y06012D02*
X04599Y0593D01*
X03463Y04528D02*
Y04859D01*
X03454Y04519D02*
X03463Y04528D01*
X03395Y04519D02*
X03454D01*
X04607Y07796D02*
X04674Y07862D01*
X04688Y08618D02*
X04748D01*
X04544Y07733D02*
X0456Y07749D01*
X04644Y0848D02*
X04688D01*
X04513Y07386D02*
X04529Y07371D01*
X03071Y04699D02*
X03071Y04698D01*
X03124*
X03343Y04647D02*
X03395D01*
X03313Y04678D02*
X03343Y04647D01*
X03124D02*
X03185D01*
X03395Y04673D02*
X03449D01*
X04591Y04922D02*
Y04963D01*
X04171Y06106D02*
X04171Y06106D01*
X04202*
X04179Y0602D02*
X04202Y06043D01*
X04171Y0602D02*
X04179D01*
X04623Y07531D02*
Y07623D01*
X04607Y07638D02*
X04623Y07623D01*
X04591Y04437D02*
Y04477D01*
X04186Y06217D02*
X04186D01*
X04202Y062*
X04265Y05901D02*
Y05917D01*
X0425Y05886D02*
X04265Y05901D01*
X04581Y07769D02*
X04592Y0778D01*
X04576Y07764D02*
Y07769D01*
X04527Y07876D02*
X04576Y07827D01*
X04527Y07876D02*
Y08521D01*
X04644Y08638D02*
X04688D01*
X04218Y05996D02*
X04234Y06012D01*
X04218Y05996D02*
X04218D01*
X0244Y04679D02*
Y04693D01*
Y04679D02*
X02448Y04671D01*
X0248*
Y04498D02*
X02611D01*
X04138Y05478D02*
X04154Y05494D01*
Y05902*
X0416Y05908*
Y05948*
X04176Y05964*
X04217*
X04234Y0598*
Y05908D02*
Y05917D01*
X04211Y05894D02*
X04225Y05908D01*
X0248Y04714D02*
X02675D01*
X02213Y05402D02*
X02384D01*
X03343Y04494D02*
X03395D01*
X02857Y06655D02*
X02953Y06559D01*
X03116*
X04328Y05917D02*
X04336Y05909D01*
Y05828D02*
Y05909D01*
X06514Y03455D02*
X06608D01*
X04454Y06012D02*
X0447Y05996D01*
X05285Y05491D02*
X05433Y05639D01*
X05285Y03835D02*
Y05491D01*
X0332Y05319D02*
Y05365D01*
X03124Y05123D02*
X0332Y05319D01*
X03124Y04801D02*
Y05123D01*
X04344Y06248D02*
X0436Y06232D01*
X04344Y06248D02*
Y06256D01*
X04621Y08461D02*
X04688D01*
X04411Y08815D02*
X04446Y0885D01*
X04411Y0796D02*
Y08815D01*
Y0796D02*
X04451Y0792D01*
X04465Y07403D02*
X04466D01*
X0445Y07418D02*
X04465Y07403D01*
X04454Y05948D02*
Y05949D01*
Y05948D02*
X04485Y05917D01*
X04485*
X04571Y05832*
X04811*
X04418Y07512D02*
X04434Y07497D01*
Y07497D02*
Y07497D01*
X0528Y06795D02*
Y06892D01*
X05064Y06995D02*
X05115D01*
X05944Y0339D02*
Y03457D01*
X05634Y03768D02*
X05944Y03457D01*
X05634Y03768D02*
Y04844D01*
X05946Y0364D02*
Y0382D01*
X05747Y04871D02*
X0576Y04883D01*
X05716Y04799D02*
X05747Y04768D01*
Y04742D02*
Y04768D01*
X04517Y06075D02*
X04534Y06057D01*
X04588*
X03371Y08307D02*
X03499D01*
X0373Y0813D02*
X03795D01*
X04088Y07277D02*
X04103Y07292D01*
X0218Y06732D02*
X02202Y0671D01*
X02126Y06732D02*
X0218D01*
X02185Y07462D02*
X02212Y07435D01*
X02126Y07462D02*
X02185D01*
Y07892D02*
X02212Y07865D01*
X02126Y07892D02*
X02185D01*
X02178Y08257D02*
X02215Y0822D01*
X02126Y08257D02*
X02178D01*
X0294Y05128D02*
Y052D01*
X04344Y05933D02*
X04352Y05941D01*
X0436D02*
Y05949D01*
X05822Y04332D02*
Y0437D01*
X05841Y04388*
Y04576*
X05822Y04594D02*
X05841Y04576D01*
X05822Y04594D02*
Y04742D01*
X04501Y05996D02*
X04502D01*
X04485Y06012D02*
X04501Y05996D01*
X04277Y07748D02*
Y07749D01*
Y07748D02*
X04292Y07733D01*
X04245Y07843D02*
X04261Y07827D01*
X04246Y07779D02*
Y0778D01*
Y07779D02*
X04261Y07764D01*
X04214Y07843D02*
Y07859D01*
Y07843D02*
X04229Y07827D01*
X04214Y07811D02*
X04229Y07796D01*
X04151Y07843D02*
X04151D01*
X04166Y07827*
X04115Y07812D02*
X0413Y07796D01*
X04135*
X02616Y07715D02*
X02653Y07677D01*
X02485Y0808D02*
X02538D01*
X04214Y07748D02*
Y07749D01*
Y07748D02*
X04229Y07733D01*
X02538Y0808D02*
X02618D01*
X04088Y07839D02*
X04092D01*
X04103Y07827*
X04088Y07812D02*
X04103Y07796D01*
X04391Y06232D02*
X04407Y06247D01*
Y06248*
X05739Y06041D02*
X0586Y0592D01*
X04501Y06059D02*
X04502D01*
X04485Y06075D02*
X04501Y06059D01*
X04281Y06185D02*
X04297Y06169D01*
X04313Y06184D02*
X04328Y06169D01*
X04313Y06184D02*
Y06185D01*
Y06216D02*
Y06217D01*
Y06216D02*
X04328Y062D01*
X04422Y06012D02*
X04439Y05996D01*
X04485Y0598D02*
X04501Y05965D01*
X04502*
X04454Y0598D02*
X0447Y05965D01*
X04517Y05939D02*
Y05949D01*
Y05939D02*
X04524Y05933D01*
X04533*
X02485Y0619D02*
X02538D01*
X04517Y05917D02*
X04533Y05902D01*
X04541Y06193D02*
Y06327D01*
X04517Y06169D02*
X04541Y06193D01*
X04313Y05933D02*
X04328Y05949D01*
X04313Y05879D02*
Y05933D01*
Y05965D02*
X04328Y0598D01*
X04281Y05996D02*
X04297Y06012D01*
X04481Y07449D02*
X04497Y07434D01*
X04683Y06912D02*
Y0719D01*
X04577Y06806D02*
X04683Y06912D01*
X04577Y06108D02*
Y06806D01*
X0456Y06091D02*
X04577Y06108D01*
X04416Y06091D02*
X0456D01*
X04408Y06099D02*
X04416Y06091D01*
X04408Y06099D02*
Y06114D01*
X044Y06122D02*
X04408Y06114D01*
X04384Y06122D02*
X044D01*
X04376Y0613D02*
X04384Y06122D01*
X04376Y0613D02*
Y06153D01*
X0436Y06169D02*
X04376Y06153D01*
X04371Y04477D02*
Y04517D01*
X04263Y04626D02*
X04371Y04517D01*
X04345Y06184D02*
Y06184D01*
Y06184D02*
X0436Y06169D01*
X0445Y07481D02*
X04465Y07466D01*
X04466*
X04343Y06153D02*
X0436Y06137D01*
X04218Y06122D02*
X04234Y06106D01*
X04152Y06122D02*
X04218D01*
X0414Y06134D02*
X04152Y06122D01*
X0414Y06134D02*
Y06143D01*
X0442Y05594D02*
X04654Y05359D01*
Y04922D02*
Y05359D01*
X0416Y06137D02*
X04202D01*
X04749Y04922D02*
Y04963D01*
X04218Y06154D02*
X04234Y06137D01*
X04218Y06154D02*
X04218D01*
X04453Y05669D02*
Y05896D01*
Y05669D02*
X04766Y05356D01*
Y04779D02*
Y05356D01*
X04749Y04763D02*
X04766Y04779D01*
X04749Y04477D02*
Y04763D01*
X04686Y04477D02*
Y04518D01*
X04187Y06185D02*
X04187D01*
X04202Y06169*
X04218Y06185D02*
X04234Y06169D01*
X04218Y06185D02*
X04218D01*
X04644Y04883D02*
X04654Y04872D01*
Y04477D02*
Y04872D01*
X04088Y04477D02*
Y04542D01*
X04187Y06248D02*
X04202Y06232D01*
X0425Y06247D02*
X04265Y06232D01*
X0425Y06247D02*
Y06256D01*
X03899Y06165D02*
X03957Y06223D01*
X03899Y0459D02*
Y06165D01*
Y0459D02*
X0393Y04559D01*
Y04477D02*
Y04559D01*
X0425Y06216D02*
X04265Y062D01*
X0425Y06216D02*
X0425D01*
X03952Y06063D02*
X04131Y06242D01*
X03952Y05004D02*
Y06063D01*
X0393Y04982D02*
X03952Y05004D01*
X0393Y04922D02*
Y04982D01*
X03993Y04922D02*
Y0568D01*
X0412Y05806*
Y05962*
X04141Y05983*
X0425Y06185D02*
X04265Y06169D01*
X04281Y06248D02*
X04297Y06232D01*
X04281Y06248D02*
X04281D01*
X04141Y05704D02*
Y05928D01*
X04025Y05588D02*
X04141Y05704D01*
X04025Y04922D02*
Y05588D01*
X0445Y07575D02*
X04466Y07591D01*
X04218Y06028D02*
X04218D01*
X04234Y06043*
X04245Y04922D02*
Y04979D01*
X04219Y0609D02*
X04234Y06075D01*
X04126Y06112D02*
X04148Y0609D01*
X04126Y06112D02*
Y0616D01*
X04165Y06199*
X04524Y07619D02*
Y07623D01*
X04513Y07607D02*
X04524Y07619D01*
X04148Y0609D02*
X04219D01*
X04165Y06199D02*
Y06454D01*
X0403Y06185D02*
Y06454D01*
X03941Y06096D02*
X0403Y06185D01*
X03941Y05022D02*
Y06096D01*
X03914Y04996D02*
X03941Y05022D01*
X03914Y04887D02*
Y04996D01*
Y04887D02*
X03954Y04848D01*
X04198*
X04214Y04864*
Y04922*
X04154Y06027D02*
X04202Y06075D01*
X0413Y06027D02*
X04154D01*
X04174Y04987D02*
X04182Y04978D01*
Y04922D02*
Y04978D01*
X04576Y0767D02*
X04586Y07681D01*
X04592*
X04454Y06137D02*
X0447Y06153D01*
X04119Y04477D02*
Y04656D01*
X03906Y04869D02*
X04119Y04656D01*
X03906Y04869D02*
Y05804D01*
X03921Y05819*
X0447Y06153D02*
Y06154D01*
X0445Y07544D02*
X04465Y07529D01*
X04151Y04477D02*
Y0474D01*
X04462Y06177D02*
X0447Y06185D01*
X04454Y06169D02*
Y06177D01*
Y062D02*
X0447Y06217D01*
X04471*
X04182Y04517D02*
X04183Y04518D01*
X04182Y04477D02*
Y04517D01*
X04607Y07701D02*
X04634D01*
X04638Y07697*
Y07654D02*
Y07697D01*
X04631Y07647D02*
X04638Y07654D01*
X04631Y07569D02*
Y07647D01*
Y07569D02*
X04637Y07562D01*
Y07327D02*
Y07562D01*
X04618Y07308D02*
X04637Y07327D01*
X04541Y07308D02*
X04618D01*
X04529Y07296D02*
X04541Y07308D01*
X04529Y07288D02*
Y07296D01*
X04491Y0725D02*
X04529Y07288D01*
X04439Y0725D02*
X04491D01*
X0442Y07232D02*
X04439Y0725D01*
X0442Y06412D02*
Y07232D01*
Y06412D02*
X04454Y06378D01*
Y06232D02*
Y06378D01*
X04517Y06137D02*
X04565Y06185D01*
Y07046*
X04645Y07126*
Y07637*
X04645Y07638D02*
X04645Y07637D01*
X04465Y07654D02*
X04466D01*
X0445Y07638D02*
X04465Y07654D01*
X04418Y07607D02*
X04434Y07622D01*
Y07623*
X04465Y04477D02*
Y04595D01*
X04497Y04477D02*
Y04544D01*
X04454Y06106D02*
X0447Y06122D01*
X04616Y07749D02*
X04623D01*
X04607Y0774D02*
X04616Y07749D01*
X04607Y07733D02*
Y0774D01*
X04517Y06043D02*
X0454D01*
X04541Y06044*
X04591Y07749D02*
X04592D01*
X04576Y07733D02*
X04591Y07749D01*
X04485Y06043D02*
X04501Y06028D01*
X04496Y07654D02*
X04497D01*
X04481Y07638D02*
X04496Y07654D01*
X04528Y04882D02*
Y04922D01*
X0474Y07764D02*
X04761Y07744D01*
X04607Y07764D02*
X0474D01*
X04497Y04922D02*
Y04996D01*
X04465Y04882D02*
Y04922D01*
X04135Y05122D02*
Y05251D01*
X04184Y053*
Y05846*
X0425Y05912*
X04544Y0767D02*
X04552Y07678D01*
X0456Y07686*
X0425Y05933D02*
Y05933D01*
X04265Y05949*
X04434Y04922D02*
Y0503D01*
X04281Y05965D02*
X04297Y0598D01*
X04281Y05965D02*
X04281D01*
X04515Y0767D02*
X04528Y07683D01*
X04513Y0767D02*
X04515D01*
X04247Y07873D02*
X04292Y07827D01*
X04059Y07873D02*
X04247D01*
X04042Y07856D02*
X04059Y07873D01*
X04042Y07171D02*
Y07856D01*
Y07171D02*
X04145Y07068D01*
Y06463D02*
Y07068D01*
X04129Y06447D02*
X04145Y06463D01*
X04129Y06272D02*
Y06447D01*
Y06272D02*
X04145Y06256D01*
Y06214D02*
Y06256D01*
X04112Y06181D02*
X04145Y06214D01*
X04112Y06133D02*
Y06181D01*
X04101Y06122D02*
X04112Y06133D01*
X04101Y06032D02*
Y06122D01*
Y06032D02*
X04128Y06005D01*
X04195*
X04202Y06012*
X0525Y06476D02*
X05288D01*
X05299Y06487*
Y06522*
X04187Y05933D02*
X04202Y05941D01*
Y05949*
X04173Y05888D02*
X04202Y05917D01*
X0525Y0626D02*
X05299D01*
X04225Y05908D02*
X04234D01*
X04688Y085D02*
X04857D01*
X04934*
X0445Y07379D02*
X04458D01*
X04527Y08521D02*
X04644Y08638D01*
X05747Y04864D02*
Y04871D01*
Y04864D02*
X05786Y04902D01*
X03795Y0813D02*
X03832D01*
X03082Y05559D02*
X03117D01*
X04352Y05941D02*
X0436D01*
X02538Y07715D02*
X02616D01*
X04321Y0624D02*
X04328D01*
X04544Y07615D02*
X04552D01*
X04165Y06454D02*
Y06861D01*
X04607Y07678D02*
X04615D01*
X04454Y06177D02*
X04462D01*
X04501Y06184D02*
X04501Y06185D01*
X04481Y07678D02*
X04489D01*
X04576Y07769D02*
X04581D01*
X0425Y05912D02*
Y05933D01*
X03888Y08618D02*
X03932D01*
G54D46*
X04355Y07638D02*
X04371Y07653D01*
X04418Y07575D02*
X04429D01*
X04434Y0758*
X04158Y07647D02*
X04166Y07638D01*
X04156Y07647D02*
X04158D01*
X04183Y07591D02*
X04198Y07575D01*
X0425Y07544D02*
X04261D01*
X04246Y0754D02*
X0425Y07544D01*
X04088Y07591D02*
X04103Y07575D01*
X04261Y07481D02*
Y07492D01*
X04272*
X04403Y07466D02*
X04418Y07481D01*
X04355Y07512D02*
X04371Y07497D01*
X04272Y07492D02*
X04277Y07497D01*
X04292Y07512*
G54D47*
X03276Y04596D02*
X03395D01*
G54D48*
X0332Y05365D03*
X03075Y0858D03*
X0232Y03895D03*
X04235Y03175D03*
X04575D03*
X04235Y03485D03*
X04575D03*
X022Y0858D03*
X05285Y03835D03*
X04985D03*
X05555Y06875D03*
G54D49*
X0342Y05365D03*
X03675Y0868D03*
Y0858D03*
X03575Y0868D03*
Y0858D03*
X03475Y0868D03*
Y0858D03*
X03375Y0868D03*
Y0858D03*
X03275Y0868D03*
Y0858D03*
X03175Y0868D03*
Y0858D03*
X03075Y0868D03*
X05265Y0335D03*
Y0325D03*
X0212Y03895D03*
X0222D03*
X05116Y0335D03*
Y0325D03*
X04967Y0335D03*
Y0325D03*
X022Y0868D03*
X023Y0858D03*
Y0868D03*
X024Y0858D03*
Y0868D03*
X025Y0858D03*
Y0868D03*
X026Y0858D03*
Y0868D03*
X027Y0858D03*
Y0868D03*
X05755Y06875D03*
X05655D03*
X0634Y06035D03*
X0624D03*
X0634Y06135D03*
X0624D03*
X0634Y06235D03*
X0624D03*
X0634Y06335D03*
X0624D03*
X0634Y06435D03*
X0624D03*
X0634Y06535D03*
X0624D03*
X0634Y06635D03*
X0624D03*
X0634Y06735D03*
X0624D03*
X0634Y06835D03*
X0624D03*
X0634Y06935D03*
X0586Y0562D03*
X0596Y0572D03*
X0586D03*
X0596Y0582D03*
X0586D03*
X0596Y0592D03*
X0586D03*
X0596Y0602D03*
X0586D03*
X0332Y03805D03*
X0322D03*
X0312D03*
G54D50*
X02255Y03604D03*
G54D51*
X02451Y03482D03*
G54D52*
X02255Y0336D03*
G54D53*
X02089Y05233D03*
Y05521D03*
G54D54*
X02215Y05465D03*
Y05289D03*
G54D55*
X05277Y03588D03*
X0394Y03815D03*
X0524Y03628D03*
X05045D03*
X04939Y0886D03*
X04704Y08855D03*
X04512Y08849D03*
X04235Y08851D03*
X04564Y0815D03*
X05091Y07803D03*
X04574Y07949D03*
X04379D03*
X04075Y08159D03*
X04855Y07705D03*
X04591Y07811D03*
X04528D03*
X05126Y07408D03*
X04591Y07717D03*
X04371Y07811D03*
X04465Y07748D03*
X04497Y07717D03*
X04528Y07654D03*
X04182Y07811D03*
X04855Y07454D03*
X04371Y07717D03*
X04591Y07591D03*
X04245Y07748D03*
X04308Y07717D03*
X03935Y07884D03*
X04879Y07345D03*
X04056Y07811D03*
X04497Y07591D03*
X04182Y07717D03*
X04855Y0735D03*
X05331Y06995D03*
X04088Y07717D03*
X04528Y07465D03*
X02586Y08032D03*
X04591Y07371D03*
X0394Y07709D03*
X04497Y07402D03*
X04308Y07465D03*
X04528Y07339D03*
X04805Y0719D03*
X04434Y07371D03*
X04371Y07402D03*
X04308D03*
X04497Y07308D03*
X04151Y07465D03*
X04182Y07402D03*
X04214Y07371D03*
X04308Y07308D03*
X04559Y0719D03*
X04088Y07371D03*
X04151Y07308D03*
X04723Y06885D03*
X0394Y07405D03*
X02586Y07677D03*
X04204Y07185D03*
X04095D03*
X0394Y07149D03*
X04055Y06885D03*
X02653Y07262D03*
X04605Y06364D03*
X04647Y06304D03*
X05822Y04803D03*
X04344Y06364D03*
X05822Y04393D03*
X02653Y06887D03*
X04407Y06153D03*
X04438Y06059D03*
X04312Y06153D03*
X04876Y05592D03*
X0407Y06325D03*
X04438Y06027D03*
X04407Y05996D03*
X04281Y06027D03*
X04625Y05722D03*
X04077Y06045D03*
X0449Y05725D03*
X02653Y06527D03*
X05196Y04613D03*
X04299Y05717D03*
X04077Y05845D03*
X03995Y05712D03*
X04717Y04962D03*
X02653Y06152D03*
X05133Y03626D03*
X05078Y03502D03*
X04371Y04882D03*
X0434Y04962D03*
X04623Y04437D03*
X02653Y05787D03*
X03962Y04517D03*
X03663Y04372D03*
X03447Y04193D03*
X02522Y04628D03*
X04643Y08539D03*
X04734Y08323D03*
X0561Y032D03*
X04402Y07622D03*
X04245Y07654D03*
X04308Y07622D03*
X04371Y07591D03*
X04402Y07528D03*
X04277Y07591D03*
X04308Y07528D03*
X04371Y07497D03*
X04277D03*
X05675Y03162D03*
X04643Y08697D03*
Y08579D03*
X03966Y08846D03*
X04643Y08382D03*
X04734Y08283D03*
X03978Y08598D03*
X03887Y085D03*
X04855Y07915D03*
X04645Y07949D03*
X04448Y0815D03*
X05091Y07686D03*
X0445Y07949D03*
X04191Y08159D03*
X04623Y07843D03*
X0428Y07949D03*
X04855Y07634D03*
X0456Y0778D03*
X04465Y07811D03*
X04528Y07717D03*
X04855Y07525D03*
X04591Y07654D03*
X03935Y07955D03*
X04245Y07811D03*
X04371Y07748D03*
X05126Y07291D03*
X03581Y08071D03*
X04056Y07843D03*
X04434Y07654D03*
X02346Y08178D03*
X02777Y08133D03*
X04119Y0778D03*
X04528Y07591D03*
X04182Y07748D03*
X04879Y07274D03*
X04371Y07622D03*
X04591Y07465D03*
X04402Y07591D03*
X04277Y07622D03*
X04182Y07654D03*
X04308Y07591D03*
X04855Y07279D03*
X04371Y07528D03*
X04402Y07497D03*
X04623Y07371D03*
X04088Y07654D03*
X04277Y07528D03*
X04465Y07434D03*
X04308Y07497D03*
X0456Y07371D03*
X04434Y07434D03*
X04151Y07591D03*
X0456Y07339D03*
X04497Y07371D03*
X04623Y07276D03*
X04214Y07465D03*
X0394Y07595D03*
X04734Y0719D03*
X04308Y07371D03*
X04434Y07308D03*
X04088Y07465D03*
X0265Y07849D03*
X0463Y0719D03*
X05064Y06795D03*
X04151Y07371D03*
X02346Y07823D03*
X04214Y07308D03*
X02782Y07766D03*
X04056Y07371D03*
Y07276D03*
X05158Y06521D03*
X04606Y06885D03*
X0394Y07334D03*
Y0722D03*
X04024Y07185D03*
X02579Y07424D03*
X05158Y06136D03*
X06258Y04333D03*
X02346Y07393D03*
X02782Y07333D03*
X03939Y06885D03*
X0626Y03639D03*
Y03094D03*
X05228Y05716D03*
X05785Y04709D03*
X05316Y05563D03*
X02579Y07049D03*
X05068Y0565D03*
X02346Y07038D03*
X02782Y06973D03*
X0423Y06369D03*
X05236Y05508D03*
X04642Y06025D03*
X05785Y04299D03*
X04407Y06185D03*
X0447Y06059D03*
X04639Y05849D03*
X05863Y03598D03*
X0447Y06027D03*
X04281Y06153D03*
X05519Y0461D03*
X05865Y03347D03*
X04501Y05933D03*
X0407Y06254D03*
X04344Y05996D03*
X04704Y05722D03*
X04407Y05933D03*
X04249Y06027D03*
X0513Y05097D03*
X02579Y06689D03*
X04281Y05933D03*
X02782Y06618D03*
X02346Y06668D03*
X05201Y04843D03*
X05675Y03237D03*
X05599Y03419D03*
X04419Y05725D03*
X04077Y05924D03*
X05485Y03419D03*
X0422Y05717D03*
X05473Y03274D03*
X02579Y06324D03*
X04074Y05712D03*
X02782Y06243D03*
X02346Y06308D03*
X0524Y03755D03*
X05107Y04255D03*
X04623Y04882D03*
X05045Y03755D03*
X04717Y04517D03*
X04402Y04962D03*
X02579Y05964D03*
X02782Y05873D03*
X02346Y05943D03*
X0434Y04517D03*
X03962Y04962D03*
X04277Y04517D03*
X04056Y04437D03*
X04327Y03713D03*
X03589Y04794D03*
X0335Y04892D03*
X02174Y05326D03*
X0366Y04554D03*
X03342Y04775D03*
X03448Y0475D03*
X03342Y04724D03*
X02912Y04925D03*
X03448Y04545D03*
X0368Y03069D03*
X02522Y04541D03*
X03225Y03069D03*
X0277D03*
X04734Y08717D03*
Y08402D03*
X03888Y08619D03*
Y08461D03*
X03978Y08323D03*
X04371Y07654D03*
X04434Y07591D03*
X04151Y07654D03*
X04183Y07591D03*
X04246Y07529D03*
X04088Y07591D03*
X0394Y07525D03*
X02964Y04695D03*
X0466Y03418D03*
X02538Y05825D03*
X02538Y0619D03*
X03071Y0817D03*
X05173Y05563D03*
X03006Y07654D03*
X05444Y04845D03*
X05716Y04843D03*
X02904Y07417D03*
X02893Y06974D03*
X06445Y04D03*
X02538Y0692D03*
X02888Y05879D03*
Y06249D03*
X04626Y06104D03*
X03213Y04193D03*
X03832Y0813D03*
X02538Y06555D03*
X06297Y0458D03*
X02074Y06002D03*
Y06367D03*
Y07097D03*
X04532Y06122D03*
X05747Y04104D03*
X05786Y04902D03*
X02943Y04678D03*
X03077Y04303D03*
X03887Y08295D03*
X05747Y04375D03*
X06071Y0461D03*
X02971Y05038D03*
X05316Y0565D03*
X03449Y04571D03*
X04439Y05818D03*
X04529Y07749D03*
X06219Y03496D03*
X04368Y05618D03*
X04407Y05965D03*
X04591Y06137D03*
X04267Y07185D03*
X0455Y06364D03*
X04218Y06248D03*
X03912Y06312D03*
X04512Y04558D03*
X04502Y06028D03*
X04465Y07623D03*
X04281Y06122D03*
Y05893D03*
X0456Y07717D03*
X04435Y07225D03*
X04442Y0719D03*
X0456Y07623D03*
X0425Y06059D03*
X04308Y05002D03*
X03477Y05834D03*
X04437Y07527D03*
X04143Y06369D03*
X02538Y07285D03*
X04056Y04866D03*
X04647Y06193D03*
X04545Y06137D03*
X04434Y04529D03*
X03131Y07749D03*
X04151Y07812D03*
X0265Y08181D03*
X02538Y07715D03*
X04214Y0778D03*
X03956Y07796D03*
X04182Y07779D03*
X04183Y07842D03*
X04027Y07949D03*
X04277Y0778D03*
X0409Y07941D03*
X04217D03*
X04407Y05893D03*
X0544Y04803D03*
X03879Y08539D03*
X03596Y08544D03*
X0412Y07851D03*
X04734Y08657D03*
X04644Y08677D03*
Y08638D03*
X04168Y08657D03*
X04466Y07371D03*
X04945Y0731D03*
X04592Y07277D03*
X04871Y07844D03*
X03342Y04614D03*
X03463Y04468D03*
X02286Y05342D03*
X04439Y06154D03*
X04438Y06122D03*
X04439Y06185D03*
X02782Y04585D03*
X04218Y05933D03*
X04344Y06217D03*
X04415Y06332D03*
X04387Y0719D03*
X04497Y07686D03*
X04439Y05965D03*
X04623Y07686D03*
X03888Y06201D03*
X04218Y06216D03*
X0425Y06122D03*
X04686Y04986D03*
X04344Y05966D03*
X04319Y06293D03*
X0567Y0601D03*
X0425Y05996D03*
Y05965D03*
X0412Y07497D03*
X04093Y0614D03*
X04497Y07622D03*
X04115Y06075D03*
X0456Y07654D03*
X04281Y06059D03*
X04376Y06185D03*
X04281Y06217D03*
X04088Y04962D03*
X04502Y06122D03*
X04277Y04882D03*
X04313Y06248D03*
X04119Y05658D03*
X04501Y06154D03*
X04575Y05977D03*
X04528Y04437D03*
X0456Y0502D03*
X04245Y04518D03*
X04501Y06185D03*
X0447Y06248D03*
X04291Y04857D03*
X04312Y05996D03*
X03116Y06884D03*
X0425Y06154D03*
X04599Y0593D03*
X03463Y04859D03*
X05493Y04317D03*
X06091D03*
X04674Y07862D03*
X04748Y08618D03*
X0456Y07749D03*
X04644Y0848D03*
X04529Y07371D03*
X04857Y085D03*
X03071Y04699D03*
X03313Y04678D03*
X03185Y04647D03*
X03449Y04673D03*
X02976Y04504D03*
X0366Y04795D03*
X03343Y04589D03*
X04591Y04963D03*
X04171Y06106D03*
Y0602D03*
X04623Y07531D03*
X04591Y04437D03*
X04186Y06217D03*
X0425Y05886D03*
X04592Y0778D03*
X04218Y05996D03*
X0244Y04693D03*
X02611Y04498D03*
X04138Y05478D03*
X04211Y05894D03*
X02675Y04714D03*
X02384Y05402D03*
X03343Y04494D03*
X03116Y06559D03*
X04336Y05828D03*
X06514Y03455D03*
X0447Y05996D03*
X05433Y05639D03*
X04344Y06256D03*
X04621Y08461D03*
X04446Y0885D03*
X04451Y0792D03*
X04466Y07403D03*
X04811Y05832D03*
X04434Y07497D03*
X0528Y06892D03*
X05064Y06995D03*
X05634Y04844D03*
X05946Y0382D03*
X05366Y04845D03*
X0576Y04883D03*
X05716Y04799D03*
X05576Y04334D03*
X0538Y04138D03*
X04588Y06057D03*
X0464Y0592D03*
X03499Y08307D03*
X03795Y0813D03*
X04088Y07277D03*
X02202Y0671D03*
X02212Y07435D03*
Y07865D03*
X02215Y0822D03*
X03589Y04698D03*
X0294Y05128D03*
X04344Y05933D03*
X04502Y05996D03*
X04277Y07749D03*
X04245Y07843D03*
X04246Y0778D03*
X03712Y08739D03*
X04214Y07859D03*
Y07811D03*
X04151Y07843D03*
X04059Y07946D03*
X04115Y07812D03*
X02653Y07677D03*
X02538Y0808D03*
X04214Y07749D03*
X02653Y08032D03*
X02618Y0808D03*
X03033Y07764D03*
X04088Y07839D03*
X03033Y08121D03*
X04088Y07812D03*
X04407Y06248D03*
X05739Y06041D03*
X04502Y06059D03*
X04281Y06185D03*
X04313Y06185D03*
Y06217D03*
X04439Y05996D03*
X04502Y05965D03*
X02586Y059D03*
X0447Y05965D03*
X04533Y05933D03*
Y05902D03*
X02586Y06423D03*
Y06834D03*
X04541Y06327D03*
X04313Y05879D03*
X03131Y05864D03*
X03033Y06527D03*
X04313Y05965D03*
X03033Y07286D03*
X04281Y05996D03*
X04497Y07434D03*
X04683Y0719D03*
X04263Y04626D03*
X04345Y06184D03*
X04466Y07466D03*
X04343Y06153D03*
X0414Y06143D03*
X03998Y05748D03*
X0442Y05594D03*
X0416Y06137D03*
X04076Y05588D03*
X04749Y04963D03*
X04218Y06154D03*
X04453Y05896D03*
X04686Y04518D03*
X03582Y05647D03*
X04187Y06185D03*
X04218D03*
X04644Y04883D03*
X04088Y04542D03*
X04187Y06248D03*
X0425Y06256D03*
X03957Y06223D03*
X0425Y06216D03*
X04131Y06242D03*
X04141Y05983D03*
X0425Y06185D03*
X04281Y06248D03*
X04141Y05928D03*
X04466Y07591D03*
X04131Y06487D03*
X04218Y06028D03*
X04113Y05979D03*
X04245Y04979D03*
X04165Y06861D03*
X04524Y07623D03*
X04165Y06454D03*
X0403D03*
X0413Y06027D03*
X04174Y04987D03*
X04592Y07681D03*
X03921Y05819D03*
X0447Y06154D03*
X04151Y0474D03*
X04465Y07529D03*
X0447Y06185D03*
X04471Y06217D03*
X04183Y04518D03*
X04645Y07638D03*
X04466Y07654D03*
X04434Y07623D03*
X04465Y04595D03*
X04497Y04544D03*
X0447Y06122D03*
X04415Y06357D03*
X04623Y07749D03*
X04541Y06044D03*
X04592Y07749D03*
X04497Y07654D03*
X04528Y04882D03*
X04497Y04996D03*
X04465Y04882D03*
X04135Y05122D03*
X0456Y07686D03*
X0425Y05933D03*
X04281Y05965D03*
X04206Y05378D03*
X04434Y0503D03*
X04528Y07683D03*
X05299Y06522D03*
X05221D03*
X04187Y05933D03*
X05299Y0626D03*
X04173Y05888D03*
X05361Y03094D03*
X04133Y03166D03*
X03796Y0853D03*
X03109Y04172D03*
M02*