%FSTAX23Y23*%
%MOIN*%
%SFA1B1*%

%IPPOS*%
%ADD39C,0.031496*%
%ADD45C,0.003937*%
%ADD49C,0.059055*%
%ADD50O,0.170000X0.060000*%
%ADD55C,0.015748*%
%LNpcb_take2-1-1*%
%LPD*%
G54D39*
X02144Y03604D02*
X02255D01*
X0212Y03628D02*
X02144Y03604D01*
X0212Y03628D02*
Y03895D01*
G54D45*
X02943Y04437D02*
Y04678D01*
Y04437D02*
X03077Y04303D01*
X06219Y03496D02*
Y03759D01*
X04368Y0561D02*
X06219Y03759D01*
X04368Y0561D02*
Y05618D01*
X0445Y07639D02*
X04465Y07623D01*
X04363Y07639D02*
X0445D01*
X0434Y07616D02*
X04363Y07639D01*
X0434Y07455D02*
Y07616D01*
X04245Y0736D02*
X0434Y07455D01*
X04245Y06288D02*
Y0736D01*
Y06288D02*
X04266Y06267D01*
Y06137D02*
Y06267D01*
Y06137D02*
X04281Y06122D01*
X04545Y06137D02*
X04553Y06129D01*
Y06108D02*
Y06129D01*
X04524Y06079D02*
X04553Y06108D01*
X04524Y06032D02*
Y06079D01*
Y06032D02*
X04556Y06D01*
Y05792D02*
Y06D01*
X04533Y05769D02*
X04556Y05792D01*
X04378Y05769D02*
X04533D01*
X04353Y05744D02*
X04378Y05769D01*
X04353Y05552D02*
Y05744D01*
Y05552D02*
X04733Y05173D01*
Y04827D02*
Y05173D01*
X04434Y04529D02*
X04733Y04827D01*
X023Y0858D02*
X03131Y07749D01*
X03596Y08544D02*
X0412Y0802D01*
Y07851D02*
Y0802D01*
X04497Y07686D02*
X04511Y077D01*
X04602*
X04606Y07696*
Y07339D02*
Y07696D01*
X04545Y07278D02*
X04606Y07339D01*
X04545Y06556D02*
Y07278D01*
X04491Y06502D02*
X04545Y06556D01*
X04491Y06224D02*
Y06502D01*
X04485Y06217D02*
X04491Y06224D01*
X04485Y05986D02*
Y06217D01*
X0448Y05981D02*
X04485Y05986D01*
X04455Y05981D02*
X0448D01*
X04439Y05965D02*
X04455Y05981D01*
X04623Y07555D02*
Y07686D01*
Y07555D02*
X04638Y0754D01*
Y07352D02*
Y0754D01*
X04609Y07323D02*
X04638Y07352D01*
X04609Y07167D02*
Y07323D01*
X04591Y07149D02*
X04609Y07167D01*
X04591Y06243D02*
Y07149D01*
X04501Y06154D02*
X04591Y06243D01*
X0425Y06122D02*
X04264Y06108D01*
Y0602D02*
Y06108D01*
X04256Y06012D02*
X04264Y0602D01*
X04241Y06012D02*
X04256D01*
X04234Y06005D02*
X04241Y06012D01*
X04234Y05989D02*
Y06005D01*
X04204Y05959D02*
X04234Y05989D01*
X04204Y05915D02*
Y05959D01*
X04196Y05907D02*
X04204Y05915D01*
X04196Y05879D02*
Y05907D01*
Y05879D02*
X04206Y0587D01*
Y05466D02*
Y0587D01*
Y05466D02*
X04686Y04986D01*
X0567Y0601D02*
X0586Y0582D01*
X04481Y07638D02*
X04497Y07622D01*
X04481Y07638D02*
Y07669D01*
X04464Y07686D02*
X04481Y07669D01*
X04221Y07686D02*
X04464D01*
X04199Y07664D02*
X04221Y07686D01*
X04199Y07327D02*
Y07664D01*
X0411Y07238D02*
X04199Y07327D01*
X0411Y06079D02*
Y07238D01*
Y06079D02*
X04115Y06075D01*
X04702Y04832D02*
Y05182D01*
X04346Y05538D02*
X04702Y05182D01*
X04346Y05538D02*
Y0581D01*
X04484Y05949*
X04512*
X04516Y05953*
Y06108*
X04502Y06122D02*
X04516Y06108D01*
X04748Y08131D02*
Y08618D01*
X04589Y07972D02*
X04748Y08131D01*
X04589Y07893D02*
Y07972D01*
X04575Y07879D02*
X04589Y07893D01*
X04575Y07763D02*
Y07879D01*
X0456Y07749D02*
X04575Y07763D01*
X03279Y04504D02*
X03449Y04673D01*
X02976Y04504D02*
X03279D01*
X04164Y05389D02*
X04591Y04963D01*
X04164Y05389D02*
Y05863D01*
X04156Y05871D02*
X04164Y05863D01*
X04156Y05871D02*
Y05946D01*
X04184Y05974*
Y06092*
X04171Y06106D02*
X04184Y06092D01*
X04554Y044D02*
X04591Y04437D01*
X04519Y044D02*
X04554D01*
X04072Y04847D02*
X04519Y044D01*
X04072Y04847D02*
Y04917D01*
X0406Y04929D02*
X04072Y04917D01*
X0406Y04929D02*
Y05964D01*
X04109Y06013*
X04148*
X04152Y06018*
Y06096*
X04126Y06122D02*
X04152Y06096D01*
X04126Y06122D02*
Y06157D01*
X04186Y06217*
X04588Y06057D02*
X0464Y06005D01*
Y0592D02*
Y06005D01*
X03795Y0757D02*
Y0813D01*
Y0757D02*
X04088Y07277D01*
X03712Y08739D02*
X04159Y08292D01*
Y07914D02*
Y08292D01*
Y07914D02*
X04214Y07859D01*
X023Y0868D02*
X02336Y08644D01*
X02794*
X02958Y0848*
X03517*
X04042Y07954*
Y07929D02*
Y07954D01*
Y07929D02*
X04104Y07867D01*
Y07836D02*
Y07867D01*
Y07836D02*
X04112Y07828D01*
X04136*
X04151Y07843*
X0442Y07466D02*
X04466D01*
X04401Y07447D02*
X0442Y07466D01*
X04401Y07178D02*
Y07447D01*
X04359Y07136D02*
X04401Y07178D01*
X04359Y06169D02*
Y07136D01*
X04343Y06153D02*
X04359Y06169D01*
X04218Y06185D02*
X04233Y0617D01*
Y0602D02*
Y0617D01*
X04224Y06011D02*
X04233Y0602D01*
X04207Y06011D02*
X04224D01*
X04196Y06D02*
X04207Y06011D01*
X04196Y05962D02*
Y06D01*
X04173Y0594D02*
X04196Y05962D01*
X04173Y05926D02*
Y0594D01*
Y05926D02*
X04188Y05911D01*
Y05426D02*
Y05911D01*
Y05426D02*
X04644Y04971D01*
Y04883D02*
Y04971D01*
X03981Y0465D02*
X04088Y04542D01*
X03981Y0465D02*
Y05903D01*
X04136Y06058*
Y06079*
X04118Y06096D02*
X04136Y06079D01*
X04118Y06096D02*
Y06179D01*
X04187Y06248*
X04129Y06485D02*
X04131Y06487D01*
X04129Y06342D02*
Y06485D01*
Y06342D02*
X04202Y0627D01*
Y06044D02*
Y0627D01*
Y06044D02*
X04218Y06028D01*
X04113Y05766D02*
Y05979D01*
Y05766D02*
X04157Y05722D01*
Y05068D02*
Y05722D01*
Y05068D02*
X04245Y04979D01*
X04457Y06198D02*
X0447Y06185D01*
X04457Y06198D02*
Y06224D01*
X04467Y06234*
X04477*
X04483Y0624*
Y06583*
X04492Y06592*
Y07273*
X04543Y07324*
Y07488*
X04502Y07529D02*
X04543Y07488D01*
X04465Y07529D02*
X04502D01*
X04418Y07607D02*
X04434Y07623D01*
X04418Y07487D02*
Y07607D01*
X04318Y07387D02*
X04418Y07487D01*
X04304Y07387D02*
X04318D01*
X04294Y07377D02*
X04304Y07387D01*
X04294Y07294D02*
Y07377D01*
Y07294D02*
X04296Y07292D01*
Y05989D02*
Y07292D01*
X04288Y05981D02*
X04296Y05989D01*
X04273Y05981D02*
X04288D01*
X04264Y05972D02*
X04273Y05981D01*
X04264Y05959D02*
Y05972D01*
X04256Y05951D02*
X04264Y05959D01*
X04242Y05951D02*
X04256D01*
X04235Y05944D02*
X04242Y05951D01*
X04235Y05649D02*
Y05944D01*
X04465Y04595D02*
X04702Y04832D01*
X04452Y0614D02*
X0447Y06122D01*
X04432Y0614D02*
X04452D01*
X04422Y0615D02*
X04432Y0614D01*
X04422Y0615D02*
Y06296D01*
X04401Y06317D02*
X04422Y06296D01*
X04401Y06317D02*
Y06343D01*
X04415Y06357*
X04541Y06044D02*
X04662Y06165D01*
Y07679*
X04592Y07749D02*
X04662Y07679D01*
X04546Y07672D02*
X0456Y07686D01*
X04546Y07579D02*
Y07672D01*
X04528Y07561D02*
X04546Y07579D01*
X04474Y07561D02*
X04528D01*
X04451Y07538D02*
X04474Y07561D01*
X04451Y07516D02*
Y07538D01*
Y07516D02*
X0448Y07488D01*
Y0724D02*
Y07488D01*
X04447Y07207D02*
X0448Y0724D01*
X04432Y07207D02*
X04447D01*
X04425Y072D02*
X04432Y07207D01*
X04425Y07185D02*
Y072D01*
X04393Y07153D02*
X04425Y07185D01*
X04393Y05985D02*
Y07153D01*
X04355Y05947D02*
X04393Y05985D01*
X04264Y05947D02*
X04355D01*
X0425Y05933D02*
X04264Y05947D01*
X04235Y05649D02*
X04346Y05538D01*
G54D49*
X0212Y03895D03*
X023Y0858D03*
Y0868D03*
X0586Y0582D03*
G54D50*
X02255Y03604D03*
G54D55*
X02943Y04678D03*
X03077Y04303D03*
X06219Y03496D03*
X04368Y05618D03*
X04465Y07623D03*
X04281Y06122D03*
X04545Y06137D03*
X04434Y04529D03*
X03131Y07749D03*
X03596Y08544D03*
X0412Y07851D03*
X04497Y07686D03*
X04439Y05965D03*
X04623Y07686D03*
X0425Y06122D03*
X04686Y04986D03*
X0567Y0601D03*
X04497Y07622D03*
X04115Y06075D03*
X04502Y06122D03*
X04501Y06154D03*
X04748Y08618D03*
X0456Y07749D03*
X03449Y04673D03*
X02976Y04504D03*
X04591Y04963D03*
X04171Y06106D03*
X04591Y04437D03*
X04186Y06217D03*
X04588Y06057D03*
X0464Y0592D03*
X03795Y0813D03*
X04088Y07277D03*
X03712Y08739D03*
X04214Y07859D03*
X04151Y07843D03*
X04466Y07466D03*
X04343Y06153D03*
X04218Y06185D03*
X04644Y04883D03*
X04088Y04542D03*
X04187Y06248D03*
X04131Y06487D03*
X04218Y06028D03*
X04113Y05979D03*
X04245Y04979D03*
X04465Y07529D03*
X0447Y06185D03*
X04434Y07623D03*
X04465Y04595D03*
X0447Y06122D03*
X04415Y06357D03*
X04541Y06044D03*
X04592Y07749D03*
X0456Y07686D03*
X0425Y05933D03*
M02*