%FSTAX23Y23*%
%MOIN*%
%SFA1B1*%

%IPPOS*%
%AMD53*
4,1,8,0.018700,0.041300,-0.018700,0.041300,-0.037400,0.022600,-0.037400,-0.022600,-0.018700,-0.041300,0.018700,-0.041300,0.037400,-0.022600,0.037400,0.022600,0.018700,0.041300,0.0*
1,1,0.037402,0.018700,0.022600*
1,1,0.037402,-0.018700,0.022600*
1,1,0.037402,-0.018700,-0.022600*
1,1,0.037402,0.018700,-0.022600*
%
%AMD69*
4,1,8,0.025600,-0.029000,0.025600,0.029000,0.019200,0.035400,-0.019200,0.035400,-0.025600,0.029000,-0.025600,-0.029000,-0.019200,-0.035400,0.019200,-0.035400,0.025600,-0.029000,0.0*
1,1,0.012795,0.019200,-0.029000*
1,1,0.012795,0.019200,0.029000*
1,1,0.012795,-0.019200,0.029000*
1,1,0.012795,-0.019200,-0.029000*
%
%ADD15R,0.053150X0.061024*%
%ADD17R,0.049212X0.059055*%
%ADD19R,0.057087X0.045275*%
%ADD29R,0.059055X0.059055*%
%ADD33R,0.110236X0.062992*%
%ADD36R,0.045275X0.057087*%
%ADD38C,0.011811*%
%ADD39C,0.031496*%
%ADD44C,0.007874*%
%ADD45C,0.003937*%
%ADD48R,0.059055X0.059055*%
%ADD49C,0.059055*%
%ADD50O,0.170000X0.060000*%
%ADD51O,0.060000X0.160000*%
%ADD52O,0.160000X0.060000*%
G04~CAMADD=53~8~0.0~0.0~748.0~826.8~187.0~0.0~15~0.0~0.0~0.0~0.0~0~0.0~0.0~0.0~0.0~0~0.0~0.0~0.0~0.0~748.0~826.8*
%ADD53D53*%
%ADD54O,0.037401X0.033465*%
%ADD55C,0.015748*%
%ADD65C,0.019685*%
%ADD66R,0.061024X0.053150*%
%ADD67R,0.037401X0.053150*%
%ADD68R,0.033465X0.051181*%
G04~CAMADD=69~8~0.0~0.0~708.7~511.8~64.0~0.0~15~0.0~0.0~0.0~0.0~0~0.0~0.0~0.0~0.0~0~0.0~0.0~0.0~270.0~512.0~708.0*
%ADD69D69*%
%ADD70C,0.022638*%
%ADD71C,0.016732*%
%LNpcb_take2-1-1*%
%LPD*%
G54D15*
X04625Y0568D03*
X04704D03*
X04299Y05675D03*
X0422D03*
X03995Y0567D03*
X04074D03*
X0335Y04935D03*
X03429D03*
X0513Y0514D03*
X05209D03*
X05339Y04138D03*
X0526D03*
X05365Y04886D03*
X05444D03*
X06079Y04653D03*
X06D03*
X05519D03*
X0544D03*
G54D17*
X02346Y0822D03*
X02263D03*
X04621Y08813D03*
X04704D03*
X04857Y08819D03*
X04939D03*
X03581Y0803D03*
X03498D03*
X02346Y07865D03*
X02263D03*
X02346Y0708D03*
X02263D03*
X02346Y07435D03*
X02263D03*
X02346Y0671D03*
X02263D03*
X02346Y0635D03*
X02263D03*
X02346Y05985D03*
X02263D03*
X03033Y07365D03*
X03116D03*
Y07005D03*
X03033D03*
Y0665D03*
X03116D03*
Y0629D03*
X03033D03*
X03116Y0592D03*
X03033D03*
Y0817D03*
X03116D03*
X03033Y07805D03*
X03116D03*
X02888Y0498D03*
X02971D03*
X02976Y0476D03*
X02893D03*
X02976Y04545D03*
X02893D03*
X05201Y04885D03*
X05118D03*
X05196Y04655D03*
X05113D03*
X05331Y04375D03*
X05248D03*
X05596Y05138D03*
X05513D03*
X05493Y04375D03*
X05576D03*
X05596Y0414D03*
X05513D03*
X05936Y05138D03*
X05853D03*
X06066Y04885D03*
X05983D03*
X06008Y04375D03*
X06091D03*
X06331Y04655D03*
X06248D03*
X05633Y04885D03*
X05716D03*
X06341Y04375D03*
X06258D03*
X06346Y0414D03*
X06263D03*
G54D19*
X0403Y06325D03*
Y06254D03*
X0468Y05849D03*
Y0592D03*
X0542Y03174D03*
Y03245D03*
X03895Y07884D03*
Y07955D03*
X039Y07709D03*
Y0778D03*
Y07524D03*
Y07595D03*
Y07405D03*
Y07334D03*
Y07149D03*
Y0722D03*
X04815Y0735D03*
Y07279D03*
Y07454D03*
Y07525D03*
Y07844D03*
Y07915D03*
Y07705D03*
Y07634D03*
G54D29*
X05265Y0315D03*
X05116D03*
X04967D03*
X0624Y06935D03*
X0596Y0562D03*
G54D33*
X0506Y07408D03*
Y07291D03*
G54D36*
X0449Y05685D03*
X04419D03*
X0265Y06365D03*
X02579D03*
Y0789D03*
X0265D03*
X04095Y07145D03*
X04024D03*
X04204D03*
X04275D03*
X0445Y0715D03*
X04379D03*
X04559D03*
X0463D03*
X04805D03*
X04734D03*
X05599Y0346D03*
X0567D03*
X05485D03*
X05414D03*
X02579Y0823D03*
X0265D03*
Y07465D03*
X02579D03*
X0265Y0709D03*
X02579D03*
X0265Y0673D03*
X02579D03*
X0265Y06005D03*
X02579D03*
X03589Y04595D03*
X0366D03*
X04159Y0641D03*
X0423D03*
X04344Y06405D03*
X04415D03*
X04605D03*
X04534D03*
X04574Y0799D03*
X04645D03*
X04379D03*
X0445D03*
X04209D03*
X0428D03*
X0409D03*
X04019D03*
X04037Y08805D03*
X03966D03*
G54D38*
X04182Y07681D02*
Y07717D01*
X04155Y07654D02*
X04182Y07681D01*
X04151Y07654D02*
X04155D01*
X04088Y07716D02*
X04151Y07654D01*
X04088Y07716D02*
Y07717D01*
X04088Y07591D02*
X04151Y07654D01*
Y07623D02*
Y07654D01*
Y07623D02*
X04183Y07591D01*
X0473Y08405D02*
X04734Y08402D01*
X0473Y08405D02*
Y08629D01*
X04751Y0865*
Y08675*
X04734Y08693D02*
X04751Y08675D01*
X04734Y08693D02*
Y08717D01*
Y08784*
X04704Y08813D02*
X04734Y08784D01*
X0394Y07405D02*
Y07524D01*
X0394Y07525D02*
X0394Y07524D01*
G54D39*
X05116Y0335D02*
X05238Y03472D01*
X05067Y03199D02*
Y03374D01*
Y03199D02*
X05116Y0315D01*
X05206Y03594D02*
X0524Y03628D01*
X05011Y03594D02*
X05045Y03628D01*
X05265Y0335D02*
X05306Y03391D01*
X05511*
X05528Y03408*
Y03508*
X05363Y03673D02*
X05528Y03508D01*
X05036Y03673D02*
X05363D01*
X05011Y03648D02*
X05036Y03673D01*
G54D44*
X04939Y08819D02*
Y0886D01*
X04704Y08813D02*
Y08855D01*
X04512Y08812D02*
Y08849D01*
X04235Y08813D02*
Y08851D01*
X04574Y07949D02*
Y0799D01*
X04379Y07949D02*
Y0799D01*
X04815Y07705D02*
X04855D01*
X0506Y07408D02*
X05126D01*
X04815Y07454D02*
X04855D01*
X03895Y07884D02*
X03935D01*
X04815Y0735D02*
X04855D01*
X02586Y08032D02*
Y0807D01*
X039Y07709D02*
X0394D01*
X04805Y0715D02*
Y0719D01*
X04559Y0715D02*
Y0719D01*
X039Y07405D02*
X0394D01*
X02586Y07677D02*
Y07715D01*
X04204Y07145D02*
Y07185D01*
X04095Y07145D02*
Y07185D01*
X039Y07149D02*
X0394D01*
X02653Y07262D02*
Y073D01*
X04605Y06364D02*
Y06405D01*
X04647Y06304D02*
X0469D01*
X04344Y06364D02*
Y06405D01*
X02653Y06887D02*
Y06925D01*
X04876Y05592D02*
Y0563D01*
X0403Y06325D02*
X0407D01*
X04625Y0568D02*
Y05722D01*
X04035Y06045D02*
X04077D01*
X0449Y05685D02*
Y05725D01*
X02653Y06527D02*
Y06565D01*
X05196Y04613D02*
Y04655D01*
X04299Y05675D02*
Y05717D01*
X04035Y05845D02*
X04077D01*
X03995Y0567D02*
Y05712D01*
X02653Y06152D02*
Y0619D01*
X05078Y03502D02*
Y0354D01*
X02653Y05787D02*
Y05825D01*
X03663Y04372D02*
Y0441D01*
X039Y07524D02*
X03939D01*
X0394Y07525*
X04626Y06104D02*
X04685D01*
X0445Y0715D02*
Y07182D01*
X04442Y0719D02*
X0445Y07182D01*
X04159Y06376D02*
Y0641D01*
X04153Y06369D02*
X04159Y06376D01*
X04143Y06369D02*
X04153D01*
X0409Y07941D02*
Y0799D01*
X04209Y07957D02*
Y0799D01*
Y07957D02*
X04217Y07949D01*
Y07941D02*
Y07949D01*
X04815Y07844D02*
X04871D01*
X04246Y07529D02*
X04262Y07512D01*
X04283*
X04292Y07503*
Y07482D02*
Y07503D01*
Y07482D02*
X04308Y07466D01*
Y07465D02*
Y07466D01*
X04371Y07654D02*
Y07716D01*
X04371Y07717*
G54D45*
X03966Y08805D02*
Y08846D01*
X04815Y07915D02*
X04855D01*
X04645Y07949D02*
Y0799D01*
X0445Y07949D02*
Y0799D01*
X0428Y07949D02*
Y0799D01*
X04815Y07634D02*
X04855D01*
X04815Y07525D02*
X04855D01*
X03895Y07955D02*
X03935D01*
X0506Y07291D02*
X05126D01*
X03581Y0803D02*
Y08071D01*
X02346Y08178D02*
Y0822D01*
X04815Y07279D02*
X04855D01*
X039Y07595D02*
X0394D01*
X04734Y0715D02*
Y0719D01*
X0265Y07849D02*
Y0789D01*
X0463Y0715D02*
Y0719D01*
X02346Y07823D02*
Y07865D01*
X05158Y06521D02*
Y0656D01*
X039Y07334D02*
X0394D01*
X039Y0722D02*
X0394D01*
X04024Y07145D02*
Y07185D01*
X02579Y07424D02*
Y07465D01*
X05158Y06136D02*
Y06175D01*
X06258Y04333D02*
Y04375D01*
X02346Y07393D02*
Y07435D01*
X05228Y05716D02*
Y05755D01*
X02579Y07049D02*
Y0709D01*
X02346Y07038D02*
Y0708D01*
X0423Y06369D02*
Y0641D01*
X05236Y0547D02*
Y05508D01*
X04642Y06025D02*
X04685D01*
X04639Y05849D02*
X0468D01*
X05519Y0461D02*
Y04653D01*
X0403Y06254D02*
X0407D01*
X04704Y0568D02*
Y05722D01*
X0513Y05097D02*
Y0514D01*
X02579Y06689D02*
Y0673D01*
X02346Y06668D02*
Y0671D01*
X05201Y04843D02*
Y04885D01*
X05599Y03419D02*
Y0346D01*
X04419Y05685D02*
Y05725D01*
X04035Y05924D02*
X04077D01*
X05485Y03419D02*
Y0346D01*
X0422Y05675D02*
Y05717D01*
X0542Y03245D02*
X05463D01*
X05473Y03255*
Y03274*
X02579Y06324D02*
Y06365D01*
X04074Y0567D02*
Y05712D01*
X02346Y06308D02*
Y0635D01*
X05065Y04255D02*
X05107D01*
X02579Y05964D02*
Y06005D01*
X02346Y05943D02*
Y05985D01*
X0335Y04892D02*
Y04935D01*
X0366Y04554D02*
Y04595D01*
X02888Y04935D02*
Y0498D01*
Y04935D02*
X02898Y04925D01*
X02912*
X04943Y0563D02*
Y05733D01*
X04982Y05771*
Y05875*
X05983Y04885D02*
Y04987D01*
X05936Y05034D02*
X05983Y04987D01*
X05936Y05034D02*
Y05138D01*
X06066Y04885D02*
X06151D01*
X06168Y04867*
X06253*
X06263Y0414D02*
Y04218D01*
X06341Y04295*
Y04375*
X06018Y04157D02*
Y04261D01*
X06008Y0427D02*
X06018Y04261D01*
X06008Y0427D02*
Y04375D01*
X0526Y04221D02*
X05331Y04291D01*
Y04375*
X03596Y0441D02*
Y04499D01*
X03589Y04505D02*
X03596Y04499D01*
X03589Y04505D02*
Y04595D01*
X05209Y0514D02*
X0536D01*
X05361Y05138*
X05513*
X05113Y04655D02*
Y04767D01*
X05118Y04772*
Y04885*
X05065Y04334D02*
X05136D01*
X05176Y04375*
X05248*
X02586Y05883D02*
X0265Y05946D01*
Y06005*
X02586Y0619D02*
Y06245D01*
X0265Y06308*
Y06365*
X02586Y06565D02*
Y06615D01*
X0265Y06678*
Y0673*
X02586Y06925D02*
Y06975D01*
X0265Y07038*
Y0709*
X02586Y073D02*
Y0735D01*
X0265Y07413*
Y07465*
X02538Y05825D02*
X02586D01*
X02538Y0619D02*
X02586D01*
X03071Y0817D02*
X03116D01*
X05173Y0547D02*
Y05563D01*
X03006Y07654D02*
X03116Y07764D01*
Y07805*
X05113Y04576D02*
Y04655D01*
Y04576D02*
X05135Y04554D01*
X0526*
X05359Y04653*
X0544*
X05444Y04845D02*
Y04886D01*
X05444Y04845D02*
X05444Y04845D01*
X05716Y04843D02*
Y04885D01*
X02904Y07417D02*
X03107D01*
X03116Y07408*
Y07365D02*
Y07408D01*
X03033Y06974D02*
Y07005D01*
X06346Y04099D02*
Y0414D01*
Y04099D02*
X06445Y04D01*
X02586Y0692D02*
Y06925D01*
X02888Y05879D02*
X03024D01*
X03033Y05888*
Y0592*
X02888Y06249D02*
X03024D01*
X03033Y06258*
Y0629*
X02893Y04513D02*
X03213Y04193D01*
X02893Y04513D02*
Y04545D01*
X05596Y05097D02*
Y05138D01*
Y05097D02*
X05716Y04977D01*
Y04885D02*
Y04977D01*
X02579Y0819D02*
Y0823D01*
Y0819D02*
X02653Y08116D01*
Y0807D02*
Y08116D01*
X03832Y0813D02*
X04037Y08335D01*
Y08805*
X06297Y0458D02*
X06331Y04614D01*
Y04655*
X02579Y0785D02*
Y0789D01*
Y0785D02*
X02653Y07776D01*
Y07715D02*
Y07776D01*
X02091Y05985D02*
X02263D01*
X02074Y06002D02*
X02091Y05985D01*
Y0635D02*
X02263D01*
X02074Y06367D02*
X02091Y0635D01*
Y0708D02*
X02263D01*
X02074Y07097D02*
X02091Y0708D01*
X05513Y0414D02*
X05553D01*
X05565Y04128*
Y04108D02*
Y04128D01*
Y04108D02*
X05569Y04104D01*
X05747*
X05786Y04902D02*
X05853Y0497D01*
Y05138*
X02893Y04728D02*
Y0476D01*
Y04728D02*
X02943Y04678D01*
X06Y04611D02*
Y04653D01*
Y04611D02*
X06091Y0452D01*
Y04375D02*
Y0452D01*
X06248Y04655D02*
Y04761D01*
X06316Y04828*
Y04867*
X05576Y04375D02*
X05747D01*
X06079Y04618D02*
Y04653D01*
X06071Y0461D02*
X06079Y04618D01*
X06081Y04154D02*
Y04157D01*
X06165Y04154D02*
X0618Y0414D01*
X06263*
X02971Y0498D02*
Y05038D01*
X05291Y05674D02*
X05316Y0565D01*
X05291Y05674D02*
Y05755D01*
X03449Y04571D02*
X03472Y04595D01*
X03589*
X04407Y05965D02*
X04423Y05981D01*
X04448*
X04453Y05986*
Y06064*
X0448Y06091*
X04545*
X04591Y06137*
X04275Y07145D02*
Y07177D01*
X04267Y07185D02*
X04275Y07177D01*
X04534Y06374D02*
Y06405D01*
Y06374D02*
X04544Y06364D01*
X0455*
X04512Y04558D02*
Y05141D01*
X04391Y05262D02*
X04512Y05141D01*
X04391Y05262D02*
Y05742D01*
X04487Y05838*
Y06013*
X04502Y06028*
X02586Y07285D02*
Y073D01*
X04656Y06225D02*
X0469D01*
X04647Y06217D02*
X04656Y06225D01*
X04647Y06193D02*
Y06217D01*
X0265Y08181D02*
Y0823D01*
X039Y0778D02*
X03928D01*
X0394Y07792*
Y07796*
X03956*
X04019Y07957D02*
Y0799D01*
Y07957D02*
X04027Y07949D01*
X0544Y04653D02*
Y04803D01*
X04415Y06375D02*
Y06405D01*
Y06375D02*
X0442Y0637D01*
X04424*
X04428Y06366*
Y06345D02*
Y06366D01*
X04415Y06332D02*
X04428Y06345D01*
X04379Y0715D02*
Y07185D01*
X04384Y0719*
X04387*
X04315Y0629D02*
X04319Y06293D01*
X03116Y0629D02*
X04315D01*
X04324Y08175D02*
X0461Y08461D01*
X04324Y07701D02*
Y08175D01*
X0412Y07497D02*
X04324Y07701D01*
X04035Y06124D02*
X04077D01*
X04093Y0614*
X04264Y062D02*
X04281Y06217D01*
X04264Y05872D02*
Y062D01*
X0418Y05788D02*
X04264Y05872D01*
X0418Y0563D02*
Y05788D01*
Y0563D02*
X04188Y05622D01*
Y04974D02*
Y05622D01*
X04176Y04962D02*
X04188Y04974D01*
X04088Y04962D02*
X04176D01*
X04277Y04882D02*
Y05587D01*
X04332Y05642*
Y05795*
X04366Y05829*
Y06042*
X04424Y061*
Y06164*
X0443Y0617*
X04449*
X04456Y06177*
Y06193*
X04464Y06201*
X0448*
X04484Y06205*
Y06226*
X04476Y06234D02*
X04484Y06226D01*
X04319Y06234D02*
X04476D01*
X04313Y0624D02*
X04319Y06234D01*
X04313Y0624D02*
Y06248D01*
X04575Y04483D02*
Y05977D01*
X04528Y04437D02*
X04575Y04483D01*
X0447Y06248D02*
X04483D01*
X04515Y06216*
Y06176D02*
Y06216D01*
X04507Y06168D02*
X04515Y06176D01*
X04463Y06168D02*
X04507D01*
X04455Y0616D02*
X04463Y06168D01*
X04455Y06119D02*
Y0616D01*
X04383Y06047D02*
X04455Y06119D01*
X04383Y05807D02*
Y06047D01*
X04354Y05778D02*
X04383Y05807D01*
X04354Y05582D02*
Y05778D01*
X04291Y05519D02*
X04354Y05582D01*
X04291Y04857D02*
Y05519D01*
X03116Y06884D02*
Y07005D01*
X04599Y0581D02*
Y0593D01*
Y0581D02*
X04665Y05744D01*
Y05401D02*
Y05744D01*
Y05401D02*
X04688Y05378D01*
X05029*
X05209Y05198*
Y0514D02*
Y05198D01*
X03429Y04893D02*
Y04935D01*
Y04893D02*
X03463Y04859D01*
X05513Y0414D02*
Y04173D01*
X05508Y04179D02*
X05513Y04173D01*
X05267Y04179D02*
X05508D01*
X0526Y04172D02*
X05267Y04179D01*
X06091Y04317D02*
Y04375D01*
X05633Y04832D02*
X05705Y0476D01*
X05721*
X05846Y04885*
X05983*
X04674Y07862D02*
Y08597D01*
X04734Y08657*
X04857Y085D02*
Y08819D01*
X03086Y05031D02*
X0342Y05365D01*
X03086Y04714D02*
Y05031D01*
X03071Y04699D02*
X03086Y04714D01*
X03002Y04678D02*
X03313D01*
X02976Y04704D02*
X03002Y04678D01*
X02976Y04704D02*
Y0476D01*
X02976Y04504D02*
X02976Y04504D01*
Y04545*
X04171Y0602D02*
X04203Y06052D01*
Y06256*
X04216Y06269*
X0438*
X04505Y06394*
Y07249*
X04545Y07289*
Y07453*
X04623Y07531*
X04233Y05903D02*
X0425Y05886D01*
X04233Y05903D02*
Y0594D01*
X04168Y06004D02*
X04233Y0594D01*
X04164Y06004D02*
X04168D01*
X04152Y06016D02*
X04164Y06004D01*
X04152Y06016D02*
Y06064D01*
X04184Y06097*
Y06163*
X04172Y06176D02*
X04184Y06163D01*
X04172Y06176D02*
Y06257D01*
X04192Y06277*
X04332*
X04336Y06281*
Y06337*
X04316Y06357D02*
X04336Y06337D01*
X04316Y06357D02*
Y0674D01*
X04483Y06907*
Y07744*
X04502Y07763*
X04576*
X04592Y07779*
Y0778*
X05596Y0414D02*
Y04231D01*
X05493Y04334D02*
X05596Y04231D01*
X05493Y04334D02*
Y04375D01*
X03116Y06559D02*
Y0665D01*
X04621Y08461D02*
Y08813D01*
X04446Y08812D02*
Y08849D01*
X04446Y0885D02*
X04446Y08849D01*
X04811Y05832D02*
X04867Y05836D01*
Y05875*
X05633Y04844D02*
X05634Y04844D01*
X05633Y04844D02*
Y04885D01*
X05946Y0382D02*
X06056Y0393D01*
Y04189*
X06122Y04255*
Y0444*
X06248Y04567*
Y04655*
X05365Y04845D02*
Y04886D01*
Y04845D02*
X05366Y04845D01*
X05576Y04334D02*
Y04375D01*
X05576Y04334D02*
X05576Y04334D01*
X05339Y04138D02*
X0538D01*
X0464Y0592D02*
X0468D01*
X03498Y08306D02*
X03499Y08307D01*
X03498Y0803D02*
Y08306D01*
X04266Y08778D02*
X04302Y08813D01*
X04065Y08778D02*
X04266D01*
X04037Y08805D02*
X04065Y08778D01*
X02202Y0671D02*
X02263D01*
X02212Y07435D02*
X02263D01*
X02212Y07865D02*
X02263D01*
X02215Y0822D02*
X02263D01*
X03589Y04595D02*
Y04698D01*
X05065Y04334D02*
Y04854D01*
X04585Y05334D02*
X05065Y04854D01*
X04585Y05334D02*
Y05954D01*
X04589Y05958*
Y05984*
X04577Y05996D02*
X04589Y05984D01*
X04502Y05996D02*
X04577D01*
X04059Y07946D02*
X04105Y079D01*
Y07822D02*
Y079D01*
Y07822D02*
X04115Y07812D01*
X02653Y07677D02*
Y07715D01*
Y08032D02*
Y0807D01*
X03033Y07764D02*
Y07805D01*
Y08121D02*
Y0817D01*
X03033Y08121D02*
X03033Y08121D01*
X03116Y05879D02*
X03131Y05864D01*
X03116Y05879D02*
Y0592D01*
X03033Y06527D02*
Y0665D01*
Y07286D02*
Y07365D01*
X04263Y04626D02*
Y04919D01*
X04268Y04924*
Y05*
X04266Y05002D02*
X04268Y05D01*
X04266Y05002D02*
Y05795D01*
X04323Y05853*
X04342*
X04358Y05868*
Y06171*
X04345Y06184D02*
X04358Y06171D01*
X04101Y06104D02*
X0414Y06143D01*
X04101Y0603D02*
Y06104D01*
X0408Y06009D02*
X04101Y0603D01*
X04053Y06009D02*
X0408D01*
X03998Y05954D02*
X04053Y06009D01*
X03998Y05748D02*
Y05954D01*
X04136Y06113D02*
X0416Y06137D01*
X04136Y06062D02*
Y06113D01*
X04117Y06043D02*
X04136Y06062D01*
X04117Y0601D02*
Y06043D01*
X04099Y05992D02*
X04117Y0601D01*
X04099Y05837D02*
Y05992D01*
X04041Y05779D02*
X04099Y05837D01*
X04041Y05624D02*
Y05779D01*
Y05624D02*
X04076Y05588D01*
X04434Y0756D02*
X04466Y07591D01*
X04412Y0756D02*
X04434D01*
X04388Y07536D02*
X04412Y0756D01*
X04388Y07264D02*
Y07536D01*
X04326Y07202D02*
X04388Y07264D01*
X04149Y07202D02*
X04326D01*
X04131Y07184D02*
X04149Y07202D01*
X04131Y06487D02*
Y07184D01*
X0413Y06018D02*
Y06027D01*
Y06018D02*
X04156Y05992D01*
Y05004D02*
Y05992D01*
Y05004D02*
X04174Y04987D01*
X04592Y07681D02*
X04603Y0767D01*
X04658*
X04669Y07659*
Y0637D02*
Y07659D01*
X04529Y0623D02*
X04669Y0637D01*
X04529Y06155D02*
Y0623D01*
X04512Y06138D02*
X04529Y06155D01*
X04486Y06138D02*
X04512D01*
X0447Y06154D02*
X04486Y06138D01*
X04463Y06217D02*
X04471D01*
X04447Y06201D02*
X04463Y06217D01*
X04339Y06201D02*
X04447D01*
X0433Y06192D02*
X04339Y06201D01*
X0433Y05875D02*
Y06192D01*
X04255Y058D02*
X0433Y05875D01*
X04255Y05639D02*
Y058D01*
X04223Y05607D02*
X04255Y05639D01*
X04223Y04558D02*
Y05607D01*
X04183Y04518D02*
X04223Y04558D01*
X0432Y04721D02*
X04497Y04544D01*
X0432Y04721D02*
Y04909D01*
X04381Y04971*
Y05787*
X04391Y05796*
Y06043*
X0447Y06122*
X04502Y06028D02*
X04648Y06174D01*
X04746*
X04764Y06192*
Y07624*
X04686Y07702D02*
X04764Y07624D01*
X0452Y07702D02*
X04686D01*
X04514Y07696D02*
X0452Y07702D01*
X04514Y07671D02*
Y07696D01*
X04497Y07654D02*
X04514Y07671D01*
X04281Y05965D02*
X04296Y0595D01*
Y0588D02*
Y0595D01*
X04188Y05772D02*
X04296Y0588D01*
X04188Y05638D02*
Y05772D01*
Y05638D02*
X04206Y0562D01*
Y05378D02*
Y0562D01*
X04281Y05965D02*
X04298Y05982D01*
Y06255*
X04304Y06261*
X04321*
X04327Y06256*
Y06251D02*
Y06256D01*
Y06251D02*
X04336Y06242D01*
X04373*
X04481Y0635*
X0456*
X04576Y06366*
Y06964*
X04601Y06989*
Y07188*
X04609Y07196*
Y07496*
X04637Y07524*
Y07624*
X04622Y07639D02*
X04637Y07624D01*
X04554Y07639D02*
X04622D01*
X04545Y07648D02*
X04554Y07639D01*
X04545Y07648D02*
Y07665D01*
X04528Y07682D02*
X04545Y07665D01*
X04528Y07682D02*
Y07683D01*
X05232Y06522D02*
X05299D01*
X05221Y06532D02*
Y0656D01*
Y06175D02*
Y06204D01*
X05243*
X05299Y0626*
X02893Y06974D02*
X03033D01*
X05633Y04832D02*
Y04844D01*
X05716Y04799D02*
Y04843D01*
X05493Y04317D02*
Y04334D01*
X06081Y04154D02*
X06165D01*
X0526Y04138D02*
Y04172D01*
Y04221*
X02586Y05825D02*
Y05883D01*
Y059*
X02538Y06555D02*
X02586D01*
Y06423D02*
Y06555D01*
Y06565*
X02538Y0692D02*
X02586D01*
Y06834D02*
Y0692D01*
X02538Y07285D02*
X02586D01*
X05221Y06532D02*
X05232Y06522D01*
X05221D02*
Y06532D01*
X0461Y08461D02*
X04621D01*
G54D48*
X0332Y05365D03*
X03075Y0858D03*
X0232Y03895D03*
X04235Y03175D03*
X04575D03*
X04235Y03485D03*
X04575D03*
X022Y0858D03*
X05285Y03835D03*
X04985D03*
X05555Y06875D03*
G54D49*
X0342Y05365D03*
X03675Y0868D03*
Y0858D03*
X03575Y0868D03*
Y0858D03*
X03475Y0868D03*
Y0858D03*
X03375Y0868D03*
Y0858D03*
X03275Y0868D03*
Y0858D03*
X03175Y0868D03*
Y0858D03*
X03075Y0868D03*
X05265Y0335D03*
Y0325D03*
X0212Y03895D03*
X0222D03*
X05116Y0335D03*
Y0325D03*
X04967Y0335D03*
Y0325D03*
X022Y0868D03*
X023Y0858D03*
Y0868D03*
X024Y0858D03*
Y0868D03*
X025Y0858D03*
Y0868D03*
X026Y0858D03*
Y0868D03*
X027Y0858D03*
Y0868D03*
X05755Y06875D03*
X05655D03*
X0634Y06035D03*
X0624D03*
X0634Y06135D03*
X0624D03*
X0634Y06235D03*
X0624D03*
X0634Y06335D03*
X0624D03*
X0634Y06435D03*
X0624D03*
X0634Y06535D03*
X0624D03*
X0634Y06635D03*
X0624D03*
X0634Y06735D03*
X0624D03*
X0634Y06835D03*
X0624D03*
X0634Y06935D03*
X0586Y0562D03*
X0596Y0572D03*
X0586D03*
X0596Y0582D03*
X0586D03*
X0596Y0592D03*
X0586D03*
X0596Y0602D03*
X0586D03*
X0332Y03805D03*
X0322D03*
X0312D03*
G54D50*
X02255Y03604D03*
G54D51*
X02451Y03482D03*
G54D52*
X02255Y0336D03*
G54D53*
X02089Y05233D03*
Y05521D03*
G54D54*
X02215Y05465D03*
Y05289D03*
G54D55*
X05277Y03588D03*
X0394Y03815D03*
X0524Y03628D03*
X05045D03*
X04939Y0886D03*
X04704Y08855D03*
X04512Y08849D03*
X04235Y08851D03*
X04564Y0815D03*
X05091Y07803D03*
X04574Y07949D03*
X04379D03*
X04075Y08159D03*
X04855Y07705D03*
X04591Y07811D03*
X04528D03*
X05126Y07408D03*
X04591Y07717D03*
X04371Y07811D03*
X04465Y07748D03*
X04497Y07717D03*
X04528Y07654D03*
X04182Y07811D03*
X04855Y07454D03*
X04371Y07717D03*
X04591Y07591D03*
X04245Y07748D03*
X04308Y07717D03*
X03935Y07884D03*
X04879Y07345D03*
X04056Y07811D03*
X04497Y07591D03*
X04182Y07717D03*
X04855Y0735D03*
X05331Y06995D03*
X04088Y07717D03*
X04528Y07465D03*
X02586Y08032D03*
X04591Y07371D03*
X0394Y07709D03*
X04497Y07402D03*
X04308Y07465D03*
X04528Y07339D03*
X04805Y0719D03*
X04434Y07371D03*
X04371Y07402D03*
X04308D03*
X04497Y07308D03*
X04151Y07465D03*
X04182Y07402D03*
X04214Y07371D03*
X04308Y07308D03*
X04559Y0719D03*
X04088Y07371D03*
X04151Y07308D03*
X04723Y06885D03*
X0394Y07405D03*
X02586Y07677D03*
X04204Y07185D03*
X04095D03*
X0394Y07149D03*
X04055Y06885D03*
X02653Y07262D03*
X04605Y06364D03*
X04647Y06304D03*
X05822Y04803D03*
X04344Y06364D03*
X05822Y04393D03*
X02653Y06887D03*
X04407Y06153D03*
X04438Y06059D03*
X04312Y06153D03*
X04876Y05592D03*
X0407Y06325D03*
X04438Y06027D03*
X04407Y05996D03*
X04281Y06027D03*
X04625Y05722D03*
X04077Y06045D03*
X0449Y05725D03*
X02653Y06527D03*
X05196Y04613D03*
X04299Y05717D03*
X04077Y05845D03*
X03995Y05712D03*
X04717Y04962D03*
X02653Y06152D03*
X05133Y03626D03*
X05078Y03502D03*
X04371Y04882D03*
X0434Y04962D03*
X04623Y04437D03*
X02653Y05787D03*
X03962Y04517D03*
X03663Y04372D03*
X03447Y04193D03*
X02522Y04628D03*
X04643Y08539D03*
X04734Y08323D03*
X0561Y032D03*
X04402Y07622D03*
X04245Y07654D03*
X04308Y07622D03*
X04371Y07591D03*
X04402Y07528D03*
X04277Y07591D03*
X04308Y07528D03*
X04371Y07497D03*
X04277D03*
X05675Y03162D03*
X04643Y08697D03*
Y08579D03*
X03966Y08846D03*
X04643Y08382D03*
X04734Y08283D03*
X03978Y08598D03*
X03887Y085D03*
X04855Y07915D03*
X04645Y07949D03*
X04448Y0815D03*
X05091Y07686D03*
X0445Y07949D03*
X04191Y08159D03*
X04623Y07843D03*
X0428Y07949D03*
X04855Y07634D03*
X0456Y0778D03*
X04465Y07811D03*
X04528Y07717D03*
X04855Y07525D03*
X04591Y07654D03*
X03935Y07955D03*
X04245Y07811D03*
X04371Y07748D03*
X05126Y07291D03*
X03581Y08071D03*
X04056Y07843D03*
X04434Y07654D03*
X02346Y08178D03*
X02777Y08133D03*
X04119Y0778D03*
X04528Y07591D03*
X04182Y07748D03*
X04879Y07274D03*
X04371Y07622D03*
X04591Y07465D03*
X04402Y07591D03*
X04277Y07622D03*
X04182Y07654D03*
X04308Y07591D03*
X04855Y07279D03*
X04371Y07528D03*
X04402Y07497D03*
X04623Y07371D03*
X04088Y07654D03*
X04277Y07528D03*
X04465Y07434D03*
X04308Y07497D03*
X0456Y07371D03*
X04434Y07434D03*
X04151Y07591D03*
X0456Y07339D03*
X04497Y07371D03*
X04623Y07276D03*
X04214Y07465D03*
X0394Y07595D03*
X04734Y0719D03*
X04308Y07371D03*
X04434Y07308D03*
X04088Y07465D03*
X0265Y07849D03*
X0463Y0719D03*
X05064Y06795D03*
X04151Y07371D03*
X02346Y07823D03*
X04214Y07308D03*
X02782Y07766D03*
X04056Y07371D03*
Y07276D03*
X05158Y06521D03*
X04606Y06885D03*
X0394Y07334D03*
Y0722D03*
X04024Y07185D03*
X02579Y07424D03*
X05158Y06136D03*
X06258Y04333D03*
X02346Y07393D03*
X02782Y07333D03*
X03939Y06885D03*
X0626Y03639D03*
Y03094D03*
X05228Y05716D03*
X05785Y04709D03*
X05316Y05563D03*
X02579Y07049D03*
X05068Y0565D03*
X02346Y07038D03*
X02782Y06973D03*
X0423Y06369D03*
X05236Y05508D03*
X04642Y06025D03*
X05785Y04299D03*
X04407Y06185D03*
X0447Y06059D03*
X04639Y05849D03*
X05863Y03598D03*
X0447Y06027D03*
X04281Y06153D03*
X05519Y0461D03*
X05865Y03347D03*
X04501Y05933D03*
X0407Y06254D03*
X04344Y05996D03*
X04704Y05722D03*
X04407Y05933D03*
X04249Y06027D03*
X0513Y05097D03*
X02579Y06689D03*
X04281Y05933D03*
X02782Y06618D03*
X02346Y06668D03*
X05201Y04843D03*
X05675Y03237D03*
X05599Y03419D03*
X04419Y05725D03*
X04077Y05924D03*
X05485Y03419D03*
X0422Y05717D03*
X05473Y03274D03*
X02579Y06324D03*
X04074Y05712D03*
X02782Y06243D03*
X02346Y06308D03*
X0524Y03755D03*
X05107Y04255D03*
X04623Y04882D03*
X05045Y03755D03*
X04717Y04517D03*
X04402Y04962D03*
X02579Y05964D03*
X02782Y05873D03*
X02346Y05943D03*
X0434Y04517D03*
X03962Y04962D03*
X04277Y04517D03*
X04056Y04437D03*
X04327Y03713D03*
X03589Y04794D03*
X0335Y04892D03*
X02174Y05326D03*
X0366Y04554D03*
X03342Y04775D03*
X03448Y0475D03*
X03342Y04724D03*
X02912Y04925D03*
X03448Y04545D03*
X0368Y03069D03*
X02522Y04541D03*
X03225Y03069D03*
X0277D03*
X04734Y08717D03*
Y08402D03*
X03888Y08619D03*
Y08461D03*
X03978Y08323D03*
X04371Y07654D03*
X04434Y07591D03*
X04151Y07654D03*
X04183Y07591D03*
X04246Y07529D03*
X04088Y07591D03*
X0394Y07525D03*
X02964Y04695D03*
X0466Y03418D03*
X02538Y05825D03*
X02538Y0619D03*
X03071Y0817D03*
X05173Y05563D03*
X03006Y07654D03*
X05444Y04845D03*
X05716Y04843D03*
X02904Y07417D03*
X02893Y06974D03*
X06445Y04D03*
X02538Y0692D03*
X02888Y05879D03*
Y06249D03*
X04626Y06104D03*
X03213Y04193D03*
X03832Y0813D03*
X02538Y06555D03*
X06297Y0458D03*
X02074Y06002D03*
Y06367D03*
Y07097D03*
X04532Y06122D03*
X05747Y04104D03*
X05786Y04902D03*
X02943Y04678D03*
X03077Y04303D03*
X03887Y08295D03*
X05747Y04375D03*
X06071Y0461D03*
X02971Y05038D03*
X05316Y0565D03*
X03449Y04571D03*
X04439Y05818D03*
X04529Y07749D03*
X06219Y03496D03*
X04368Y05618D03*
X04407Y05965D03*
X04591Y06137D03*
X04267Y07185D03*
X0455Y06364D03*
X04218Y06248D03*
X03912Y06312D03*
X04512Y04558D03*
X04502Y06028D03*
X04465Y07623D03*
X04281Y06122D03*
Y05893D03*
X0456Y07717D03*
X04435Y07225D03*
X04442Y0719D03*
X0456Y07623D03*
X0425Y06059D03*
X04308Y05002D03*
X03477Y05834D03*
X04437Y07527D03*
X04143Y06369D03*
X02538Y07285D03*
X04056Y04866D03*
X04647Y06193D03*
X04545Y06137D03*
X04434Y04529D03*
X03131Y07749D03*
X04151Y07812D03*
X0265Y08181D03*
X02538Y07715D03*
X04214Y0778D03*
X03956Y07796D03*
X04182Y07779D03*
X04183Y07842D03*
X04027Y07949D03*
X04277Y0778D03*
X0409Y07941D03*
X04217D03*
X04407Y05893D03*
X0544Y04803D03*
X03879Y08539D03*
X03596Y08544D03*
X0412Y07851D03*
X04734Y08657D03*
X04644Y08677D03*
Y08638D03*
X04168Y08657D03*
X04466Y07371D03*
X04945Y0731D03*
X04592Y07277D03*
X04871Y07844D03*
X03342Y04614D03*
X03463Y04468D03*
X02286Y05342D03*
X04439Y06154D03*
X04438Y06122D03*
X04439Y06185D03*
X02782Y04585D03*
X04218Y05933D03*
X04344Y06217D03*
X04415Y06332D03*
X04387Y0719D03*
X04497Y07686D03*
X04439Y05965D03*
X04623Y07686D03*
X03888Y06201D03*
X04218Y06216D03*
X0425Y06122D03*
X04686Y04986D03*
X04344Y05966D03*
X04319Y06293D03*
X0567Y0601D03*
X0425Y05996D03*
Y05965D03*
X0412Y07497D03*
X04093Y0614D03*
X04497Y07622D03*
X04115Y06075D03*
X0456Y07654D03*
X04281Y06059D03*
X04376Y06185D03*
X04281Y06217D03*
X04088Y04962D03*
X04502Y06122D03*
X04277Y04882D03*
X04313Y06248D03*
X04119Y05658D03*
X04501Y06154D03*
X04575Y05977D03*
X04528Y04437D03*
X0456Y0502D03*
X04245Y04518D03*
X04501Y06185D03*
X0447Y06248D03*
X04291Y04857D03*
X04312Y05996D03*
X03116Y06884D03*
X0425Y06154D03*
X04599Y0593D03*
X03463Y04859D03*
X05493Y04317D03*
X06091D03*
X04674Y07862D03*
X04748Y08618D03*
X0456Y07749D03*
X04644Y0848D03*
X04529Y07371D03*
X04857Y085D03*
X03071Y04699D03*
X03313Y04678D03*
X03185Y04647D03*
X03449Y04673D03*
X02976Y04504D03*
X0366Y04795D03*
X03343Y04589D03*
X04591Y04963D03*
X04171Y06106D03*
Y0602D03*
X04623Y07531D03*
X04591Y04437D03*
X04186Y06217D03*
X0425Y05886D03*
X04592Y0778D03*
X04218Y05996D03*
X0244Y04693D03*
X02611Y04498D03*
X04138Y05478D03*
X04211Y05894D03*
X02675Y04714D03*
X02384Y05402D03*
X03343Y04494D03*
X03116Y06559D03*
X04336Y05828D03*
X06514Y03455D03*
X0447Y05996D03*
X05433Y05639D03*
X04344Y06256D03*
X04621Y08461D03*
X04446Y0885D03*
X04451Y0792D03*
X04466Y07403D03*
X04811Y05832D03*
X04434Y07497D03*
X0528Y06892D03*
X05064Y06995D03*
X05634Y04844D03*
X05946Y0382D03*
X05366Y04845D03*
X0576Y04883D03*
X05716Y04799D03*
X05576Y04334D03*
X0538Y04138D03*
X04588Y06057D03*
X0464Y0592D03*
X03499Y08307D03*
X03795Y0813D03*
X04088Y07277D03*
X02202Y0671D03*
X02212Y07435D03*
Y07865D03*
X02215Y0822D03*
X03589Y04698D03*
X0294Y05128D03*
X04344Y05933D03*
X04502Y05996D03*
X04277Y07749D03*
X04245Y07843D03*
X04246Y0778D03*
X03712Y08739D03*
X04214Y07859D03*
Y07811D03*
X04151Y07843D03*
X04059Y07946D03*
X04115Y07812D03*
X02653Y07677D03*
X02538Y0808D03*
X04214Y07749D03*
X02653Y08032D03*
X02618Y0808D03*
X03033Y07764D03*
X04088Y07839D03*
X03033Y08121D03*
X04088Y07812D03*
X04407Y06248D03*
X05739Y06041D03*
X04502Y06059D03*
X04281Y06185D03*
X04313Y06185D03*
Y06217D03*
X04439Y05996D03*
X04502Y05965D03*
X02586Y059D03*
X0447Y05965D03*
X04533Y05933D03*
Y05902D03*
X02586Y06423D03*
Y06834D03*
X04541Y06327D03*
X04313Y05879D03*
X03131Y05864D03*
X03033Y06527D03*
X04313Y05965D03*
X03033Y07286D03*
X04281Y05996D03*
X04497Y07434D03*
X04683Y0719D03*
X04263Y04626D03*
X04345Y06184D03*
X04466Y07466D03*
X04343Y06153D03*
X0414Y06143D03*
X03998Y05748D03*
X0442Y05594D03*
X0416Y06137D03*
X04076Y05588D03*
X04749Y04963D03*
X04218Y06154D03*
X04453Y05896D03*
X04686Y04518D03*
X03582Y05647D03*
X04187Y06185D03*
X04218D03*
X04644Y04883D03*
X04088Y04542D03*
X04187Y06248D03*
X0425Y06256D03*
X03957Y06223D03*
X0425Y06216D03*
X04131Y06242D03*
X04141Y05983D03*
X0425Y06185D03*
X04281Y06248D03*
X04141Y05928D03*
X04466Y07591D03*
X04131Y06487D03*
X04218Y06028D03*
X04113Y05979D03*
X04245Y04979D03*
X04165Y06861D03*
X04524Y07623D03*
X04165Y06454D03*
X0403D03*
X0413Y06027D03*
X04174Y04987D03*
X04592Y07681D03*
X03921Y05819D03*
X0447Y06154D03*
X04151Y0474D03*
X04465Y07529D03*
X0447Y06185D03*
X04471Y06217D03*
X04183Y04518D03*
X04645Y07638D03*
X04466Y07654D03*
X04434Y07623D03*
X04465Y04595D03*
X04497Y04544D03*
X0447Y06122D03*
X04415Y06357D03*
X04623Y07749D03*
X04541Y06044D03*
X04592Y07749D03*
X04497Y07654D03*
X04528Y04882D03*
X04497Y04996D03*
X04465Y04882D03*
X04135Y05122D03*
X0456Y07686D03*
X0425Y05933D03*
X04281Y05965D03*
X04206Y05378D03*
X04434Y0503D03*
X04528Y07683D03*
X05299Y06522D03*
X05221D03*
X04187Y05933D03*
X05299Y0626D03*
X04173Y05888D03*
X05361Y03094D03*
X04133Y03166D03*
X03796Y0853D03*
X03109Y04172D03*
G54D65*
X05585Y03174D02*
X0561Y032D01*
X0542Y03174D02*
X05585D01*
X0466Y03349D02*
Y03418D01*
Y03349D02*
X04913Y03096D01*
X053*
X05379Y03174*
X0542*
X05675Y03162D02*
Y03206D01*
X05697Y03228*
Y03433*
X0567Y0346D02*
X05697Y03433D01*
X05582Y03069D02*
X05675Y03162D01*
X04196Y03069D02*
X05582D01*
X04132Y03132D02*
X04196Y03069D01*
X04132Y03132D02*
Y03164D01*
X04133Y03166*
X03796Y08504D02*
Y0853D01*
X0384Y08461D02*
X03888D01*
X03796Y08504D02*
X0384Y08461D01*
X03978Y08323*
X03799Y0853D02*
X03888Y08619D01*
X03796Y0853D02*
X03799D01*
G54D66*
X04035Y06045D03*
Y06124D03*
Y05845D03*
Y05924D03*
X04685Y06104D03*
Y06025D03*
X0469Y06304D03*
Y06225D03*
X05065Y04255D03*
Y04334D03*
G54D67*
X05236Y0547D03*
X05173D03*
X05221Y0656D03*
X05158D03*
X05221Y06175D03*
X05158D03*
X05228Y05755D03*
X05291D03*
X06081Y04157D03*
X06018D03*
X06316Y04867D03*
X06253D03*
G54D68*
X05206Y0354D03*
X05273D03*
X05078D03*
X05011D03*
X02653Y05825D03*
X02586D03*
X02653Y0619D03*
X02586D03*
X02653Y06565D03*
X02586D03*
X02653Y06925D03*
X02586D03*
X02653Y073D03*
X02586D03*
Y0807D03*
X02653D03*
X02586Y07715D03*
X02653D03*
X03663Y0441D03*
X03596D03*
X04876Y0563D03*
X04943D03*
X04235Y08813D03*
X04302D03*
X04512Y08812D03*
X04446D03*
G54D69*
X04867Y05875D03*
X04982D03*
G54D70*
X05414Y0346D02*
Y03508D01*
X05392Y03531D02*
X05414Y03508D01*
G54D71*
X05238Y03472D02*
X05273Y03507D01*
Y03531*
Y0354*
Y03584D02*
X05277Y03588D01*
X05273Y0354D02*
Y03584D01*
X05206Y03513D02*
Y0354D01*
X05067Y03374D02*
X05206Y03513D01*
Y0354D02*
Y03594D01*
X05011Y0354D02*
Y03594D01*
Y03648*
X05273Y03531D02*
X05392D01*
M02*